<?xml version="1.0" encoding="UTF-8"?>
<svg id="Ebene_2" data-name="Ebene 2" xmlns="http://www.w3.org/2000/svg" viewBox="0 0 100 60">
  <defs>
    <style>
      .cls-1 {
        fill: #010101;
      }

      .cls-2 {
        fill: #fff;
      }

      .cls-3 {
        fill: #fde44b;
      }

      .cls-4 {
        fill: #e30d13;
      }
    </style>
  </defs>
  <g id="Ebene_1-2" data-name="Ebene 1">
    <g id="bb-flag-coa.svg.svg">
      <rect id="Weisse_Flaeche" data-name="Weisse Flaeche" class="cls-2" y="30" width="100" height="30"/>
      <rect id="Rote_Flaeche" data-name="Rote Flaeche" class="cls-4" width="100" height="30"/>
      <path id="Schildflaeche" class="cls-2" d="m35.05,12.17v12.66c0,4.22-.3,8.67.61,12.08.86,3.23,2.73,5.79,5.03,7.66,1.15.94,2.43,1.73,4.01,2.32,1.55.58,3.32,1.04,5.34,1.02,4.03-.04,7.08-1.52,9.34-3.35,2.3-1.85,4.15-4.48,4.98-7.71.88-3.43.61-7.85.61-12.08v-12.69h-29.88s-.03.04-.03.08Z"/>
      <path id="Umrandung_Adler" data-name="Umrandung Adler" class="cls-1" d="m52.3,13.91c1.14.42.69,2.58,1.63,3.1-.14.07-.4.03-.55.08.01.63-.47,1.33-.39,1.96.03.24.22.36.25.55-.2.19-.52.04-.75-.06-.28.38-.56,1.28-.14,1.71-.3-.03-.48.06-.58.22-.11.52.31.47.58.66.23.17.28.34.44.5,2.7.05,4.44-1.66,4.34-4.42-.06-.11-.21-.12-.33-.17.03.74-.05,1.46-.42,1.99-.21.31-.71.67-.97.77-.4.16-1.03.12-.83-.5.5-.17,1.09-.26,1.41-.61.08-.26.27-.46.36-.77.07-.25.17-.73.08-1.02-.04-.12-.52-.48-.64-.61-.31-.33-.64-.74-.58-1.47.04-.48.2-.95.5-1.24.59-.58,1.79-.48,2.88-.52,1.44-.06,2.77-.1,3.92-.44.01,1.64-1.26,2-2.65,2.24.22.18.54.25.83.33.96.28,2.1.41,3.26.55-.24,1.41-1.97,1.72-3.54,1.27.95,1.16,2.24,2.22,3.54,3.12-.28.29-.66.47-1.16.47-1.18,0-1.9-.97-2.65-1.44,1.22,2.47,2.59,4.8,4.09,6.99-1.09.37-1.84-.47-2.4-1.08-.34-.37-.69-.73-1-1.11-.67-.82-1.25-1.7-1.85-2.35.49.82,1.03,1.65,1.33,2.71.29,1.05.47,2.21.69,3.37.43,2.24,1.49,4.07,2.16,6-.58-.06-1.23-.13-1.6-.44-.22-.19-.48-.59-.69-.89-1.46-2.1-2.21-5.28-3.21-7.8-.07.4,0,.84.03,1.27.03.67,0,1.37.08,2.02.26,2.24.63,4.45,1.05,6.39-1.7-.13-2.41-1.58-2.93-3.01-.54-1.49-.89-3.04-.77-4.95-.46,1.14-.18,3-.61,4.18-.16.09-.37.13-.64.11-.9-.89-.68-2.89-1-4.37-.41,1.7-.43,3.73.39,4.84.12.16.28.32.36.5.21.49.15,1.06.41,1.49.72,1.2,1.44,2.21,2.1,3.34.5.19.84-.06.97-.41.05-.14.01-.34.08-.47.1-.18.46-.2.72-.36.11-.06.24-.25.36-.3.3-.12.7,0,.97.11-.23.06-.55.03-.64.22.03.2.23.14.25.3.03.37-.65.41-.91.28-.12.05,0,.23,0,.33-.15.17-.44.2-.44.52.33.15.68,0,1.02-.17.13-.06.3-.21.44-.19.15.01.33.27.5.33.62.23,1.58-.18,1.69.5-.18-.09-.49-.07-.55.11,0,.2.19.2.17.39-.03.19-.29.28-.53.19-.19-.07-.38-.5-.69-.5-1.36.22-2.45-.04-.55,1.1.09.15.12.34.14.55-.19,0-.15-.23-.36-.22-.2.1-.12.35-.3.41-.37.14-.55-.69-.94-.72-.02-.11-.1-.15-.14-.25-.27-.15-.57-.26-.8-.44-.63-.13-1.1-.13-1.77-.03-.15.21-.9.43-1,.06-.06-.23.11-.26.19-.44-.03-.3-.35-.02-.39-.08.29-.73,1.23.08,1.91-.28-.73-1.25-1.58-2.38-2.52-3.43-.08.16-.18.28-.44.25-.07.07-.05.23-.17.25-.65-.07-.49-1.11-.64-1.71-.03-.1-.1-.45-.25-.47-.3-.04-.39.94-.39,1.13,0,.67.18,1.74.88,2.02.7.28,1.59-.08,1.94.44.09.14.15.47.25.64.12.22.5.55-.03.61-.2.02-.3-.13-.5-.17-.57-.11-1.44.16-1.99-.05-.2-.08-.27-.22-.44-.33.05.47.27.94.5,1.3.23.35.55.71.97.88.67.28,1.49.32,2.24.47,1.5.29,2.82.74,2.88,2.49.04,1.49-1.3,2.64-2.79,1.91,1.04-.02,1.95-.58,1.99-1.6.04-.99-.77-1.65-1.63-1.8.14.56,1.05.86,1.16,1.55.04.25-.07.71-.39.66-.22-.03-.43-.4-.64-.58-.63-.57-1.5-.98-2.27-1.36-.57-.28-1.13-.55-1.52-.88-.44-.38-.71-.95-1.02-1.38.17.97.32,1.86,1.1,2.38.41.27,1.23.37,1.63.64.29.19.57.56.22.89.37.4.86.69,1.41.91-2.45.06-3.59-1.42-4.62-2.88-.17,1.22.01,2.41.47,3.18.15.26.42.5.5.72.15.45-.14,1.11-.72.97-.24.39-.49.78-.69,1.22-.3-.37-.5-.84-.8-1.22-.45.04-.74-.27-.66-.77.07-.51.63-.87.8-1.49.26-.93.18-1.81.25-2.82-.2.14-.29.37-.41.55-.89,1.25-2.15,2.3-4.23,2.41.51-.28,1.06-.51,1.41-.94-.16-.21-.3-.53-.08-.77.78-.46,1.96-.33,2.38-1.11.26-.48.42-1.15.52-1.85-.27.4-.62.9-1.05,1.27-.82.71-2.08,1.03-3.04,1.71-.19.13-.42.32-.66.53-.24.2-.77.94-.91.22-.2-1.04.98-1.35,1.24-2.05-.91.04-1.85,1.01-1.6,2.07.18.79.89,1.32,1.85,1.38-1.01.51-2.16-.07-2.57-.8-.5-1.09-.02-2.36.64-2.88,1.21-.95,3.75-.37,4.86-1.49.37-.37.52-.83.72-1.44-.33.12-.89.33-1.46.3-.19,0-.4-.11-.58-.08-.32.04-.58.4-.86.17.16-.21.22-.4.3-.61.12-.32.16-.71.47-.86.6-.28,1.71,0,2.1-.61.21-.33.3-1.14.28-1.74-.02-.4-.03-1.08-.28-1.1-.11-.01-.23.13-.28.22-.17.35-.13.88-.28,1.3-.1.3-.28.52-.47.69-.2-.05-.45-.07-.55-.22-.91,1.08-1.84,2.14-2.74,3.24.56.26,1.4-.31,1.82.11-.1.14-.31.17-.44.28.03.2.22.15.17.36-.07.28-.71.18-.83-.03-.51.07-.89-.21-1.35-.06-.28.1-.45.46-.77.5-.12.48-.78.47-1,.86-.12.21-.03.49-.22.69-.14.03-.26.11-.41.05-.11-.05-.06-.25-.11-.36-.23.01-.28.2-.33.39-.14-.24-.06-.64.06-.86.08-.04.16-.08.25-.11.32-.62,1.21-.67,1.41-1.41-.27-.05-.59-.25-.88-.19-.13.03-.16.15-.28.17-.15.01-.23-.13-.36-.14-.13,0-.41.12-.5.19-.14.12-.14.37-.3.5-.17.08-.46.06-.61-.03-.11-.12.03-.34-.08-.44-.14-.12-.25.14-.33.08-.02-.66.79-.55,1.38-.83.16-.08.35-.3.53-.33.49-.09.98.34,1.44.39.21-.42-.29-.59-.41-.86-.46-.1-.76.02-1.19-.03-.13-.18,0-.4.08-.53-.09-.16-.34-.27-.58-.19.14-.16.35-.31.55-.3.14,0,.25.15.39.22.41.2,1.01.31,1.44.41.21.15.26,1.16.63,1.16.19,0,.64-.66.75-.8.66-.84,1.36-1.87,1.94-2.63-.3-.62.19-1.01.44-1.36.43-.58.79-1.32.86-2.32.04-.54-.1-1.07-.19-1.58-.15-.76-.13-1.37-.3-2.18-.3,1.51.01,3.62-.69,4.73-.97.56-1.11-.95-1.19-1.8-.08-.92-.11-1.76-.33-2.32.12,2.13-.23,3.87-.86,5.53-.47,1.24-1.05,2.39-2.6,2.52.5-3,.92-6.23.86-9.7-.25.53-.42,1.13-.61,1.71-.51,1.59-.96,3.24-1.63,4.73-.04.09-.06.28-.19.3-.3.81-.86,1.91-1.66,2.35-.27.15-.65.26-1.13.22.59-1.91,1.63-3.71,1.96-5.94.18-1.19.3-2.34.55-3.4.25-1.05.63-1.93,1.16-2.76-.97,1.16-1.82,2.76-3.01,3.87-.43.4-1.1.98-1.82.8,1.19-2.43,2.56-4.66,3.65-7.19-.82.66-2.26,2.2-3.54,1.13,1.02-1.16,2.3-2.05,3.21-3.32-1.36.48-3.16.41-3.29-1.16,1.36-.19,2.62-.49,3.73-.94-.14-.14-.36-.11-.52-.14-1.16-.18-2.14-.67-2.13-2.05,1.57.46,3.69.13,5.5.28,1.24.1,1.87.91,1.8,2.05-.06.9-.63,1.17-1.13,1.71-.05.89.3,1.73.83,2.05.3.18.75.1,1.11.3.14.25,0,.52-.17.64-1.44-.16-2.24-1.23-2.07-2.82-.19-.02-.29.06-.39.14-.14,2.58,1.9,4.49,4.34,4.37.45-.02.68-.74,1.38-.53.14-.19.05-.61.19-.8-.14-.15-.47-.12-.69-.19.8-.04.91-.56,1.33-1.11.2-.27.46-.46.66-.75-.51-.32-1.26.06-1.46.3.18-.61.68-.78,1.35-1.05.42-.17,1.21-.42.88-.97-.46-.27-1.15-.33-1.66-.55.28-.66,2.1.25,2.18-.53-.4-.14-1.03-.13-1.49-.11-.56.02-1.09.1-1.55.22-.7.19-1.23.66-1.91.77,1.3-.75,2.86-1.8,4.98-1.3.08-.79-.98-1.09-1.44-.61-.58-.47-1.58-.47-1.8.3-.04.14.11.22.06.28-.44-.3-.35-1.16.03-1.47.16-.13.41-.14.61-.28.24-.15.3-.53.72-.33.18-.09.18-.24.3-.33.88-.63,2.58.5,3.48-.22.05.06-.15.12-.25.19-.11.08-.24.18-.3.25Z"/>
      <path id="Umrandung_Schild" data-name="Umrandung Schild" class="cls-1" d="m35.08,12.09h29.88c0,4.23,0,8.44,0,12.69,0,4.24.27,8.65-.61,12.08-.83,3.23-2.68,5.86-4.98,7.71-2.26,1.83-5.32,3.31-9.34,3.35-2.01.02-3.78-.44-5.34-1.02-1.58-.59-2.85-1.38-4.01-2.32-2.3-1.87-4.17-4.43-5.03-7.66-.91-3.41-.61-7.86-.61-12.08v-12.66s0-.08.03-.08Zm.28.44v12.44c0,3.11-.1,6.37.14,9.18.08.92.29,1.76.52,2.6.46,1.66,1.1,3.04,1.88,4.34.39.65.89,1.13,1.41,1.69.51.55,1.02,1.08,1.58,1.55,1.09.91,2.45,1.69,3.95,2.27,1.51.58,3.27,1.02,5.2,1.02s3.67-.46,5.17-1.05c2.35-.93,3.99-2.17,5.53-3.79.53-.55,1.02-1.07,1.41-1.71.78-1.28,1.43-2.72,1.88-4.34.91-3.31.64-7.66.64-11.8v-12.47h-29.28s-.03.04-.03.08Z"/>
      <path id="Rotes_Gefieder" data-name="Rotes Gefieder" class="cls-4" d="m56.56,17.97c.15.18.19.49.17.75-.09,1.09-.77,2.01-1.91,2.07-.1-.11-.18-.29-.08-.42.1-.12.39-.09.5-.11.9-.2,1.44-1.11,1.33-2.29Zm-13.16,2.27c.4.25.8.77,1.47.58.25-.57-.37-.41-.75-.5-.34-.08-.73-.5-.91-.89-.19-.4-.25-.79-.28-1.3-.25.79.14,1.62.47,2.1Zm8.32-6.03c.12.29.51.3.77.44.12.12.41.45.5.41-.1-.59-.67-1.28-1.27-.86Zm-.64-.44c-.6.17-1.37.18-1.58.75-.25,0-.35-.22-.3-.44.12-.58,1.32-.48,1.88-.3Zm11.64,12.03c-.68-.67-1.26-1.54-1.83-2.57-.35-.65-.84-1.38-1.22-2.07-.2-.36-.38-.91-.75-.53.54.24.62,1.09-.17,1.05.11.24.36.44.28.77.83,1.06,1.77,2.4,2.74,3.43.6.64,1.14,1.39,2.29,1.3-.13-.33-.38-.62-.58-.91-1.5-2.15-2.75-4.58-4.04-6.91-.06.12-.19.18-.33.22.2.14.5.41.3.78,1.07,1.9,2.22,3.86,3.4,5.56,0-.03-.02-.03-.03-.05-.03-.01-.06-.03-.08-.05Zm-10.7-11.97c-.38.57-1.65.08-2.05.61.16.1.23.29.44.33.3.06.62-.17.88-.22-.01-.14-.26-.03-.28-.17.53-.31.85.43,1.41.44.69.41.73,1.48,1.19,2.13-.35-.01-.36-.36-.58-.5.41,1.07-.43,2.2-.08,3.12-.72-.07-.35-1.05-.19-1.47-.18.01-.25.38-.36.55.07.87-.56,1.41-.41,2.35-.27.2-.46.52-.33.97-.11-.02-.16.03-.25.03.16-.49.35-1.27.06-1.74.05.79-.14,1.54-.44,2.07.75-.38,1.47-.03,1.69.61.12.35.12.93.14,1.33.07,1.61-.26,3.32-.42,4.81-.04.42-.08.81-.05,1.16.08,1.25.93,1.79,1.22,2.88-.18.03-.27-.11-.41-.03-.17.46-.23,1.04-.39,1.52-.11.08-.13-.12-.28-.08-.12.05-.09.25-.19.3-.36-.23-.32-.82-.39-1.33-.04-.28-.12-.55-.14-.8-.68-.44-.78.65-.8,1.36-.04,1.36.48,2.12,1.66,2.24.51.05.95-.07,1.16.22.06.08.05.22.08.3.09.22.28.38.28.58-.3-.01-.57-.11-.88-.11-.26,0-.48.11-.72.14-.74.1-1.44-.43-1.55-1.08.46.35,1.37.79,2.1.44.19.02.22.2.44.19-.09-.23-.59-.66-.86-.25-1.18.03-1.73-.58-2.02-1.44-.03,1.51.57,2.62,1.16,3.59,1.13,1.31,4.44.6,5.45,2.1.25.38.44,1.07.33,1.74-.15.93-.76,1.47-1.82,1.55.67-.43,1.42-.77,1.36-1.94-.06-1.1-1.08-1.65-2.1-1.88-.02.73,1.08,1.12,1.3,1.74.09.24.08.55-.19.61-.28-.16-.47-.43-.72-.64-.75-.62-1.73-1.07-2.65-1.55-1.27-.66-2.06-1.62-2.29-3.32-.07,1.35.21,2.75.83,3.57.48.63,1.45.58,2.13,1.08.12.09.26.22.22.44-.07.09-.27.04-.41.05.21.47.75.61,1.08.97-2.13-.34-3.19-1.75-4.04-3.37,0,1.36-.09,2.77.39,3.68.14.28.36.48.53.8.1.2.11.63-.03.8-.18.09-.44.14-.69.08-.06.4-.26.8-.47.97-.11-.05-.21-.2-.28-.3-.12-.19-.21-.35-.22-.66-.58.15-.97-.19-.77-.75.08-.22.3-.39.41-.61.54-1.01.6-2.59.53-4.17-.8,1.62-1.94,2.89-3.9,3.35.32-.28.72-.48.97-.83-.19-.1-.46-.06-.44-.36.03-.58,1.45-.49,1.91-.75.67-.38,1.04-1.71,1.13-2.63.04-.42.02-.76.03-1.25-.18.43-.21.85-.36,1.22-.89,2.15-3.89,2.25-5.22,4.01-.24-.15-.13-.65-.05-.8.26-.52,1.2-.9,1.33-1.6-.85.09-1.62.52-1.93,1.19-.29.62-.12,1.41.28,1.85.27.3.64.44.91.69-1.24.02-2.07-.78-1.94-2.1.06-.61.46-1.32.94-1.63.46-.29,1.13-.4,1.69-.5.67-.12,1.42-.04,2.1-.28,1.11-.38,1.62-1.59,1.94-2.76.11-.43.23-.84.22-1.41-.4.8-1.13,1.5-2.35,1.22-.15.12-.24.3-.33.47.16-.01.19-.16.3-.22.9.37,1.65-.31,2.07-.66-.14.91-.74,1.46-1.71,1.33-.09-.01-.19-.08-.3-.08-.38,0-.62.32-.97.28,0-.2.15-.25.22-.41.14-.32.1-.76.5-.89.26-.08.53-.01.75-.03.55-.04,1.13-.21,1.38-.64.44-.75.31-2.04.06-3.04-.05,0-.07-.02-.08-.06-1.08-.12-.47,2.02-1.24,2.24-.1-.03-.02-.24-.11-.28-.17-.01-.07.25-.22.25-.25-.24.09-.76-.3-.8-.25-.03-.31.33-.66.16-.12-.8.48-1.26.83-1.82.25-.4.48-.81.53-1.44.15-2.23-.93-4.25-.77-6.8.04-.57.18-.97.33-1.49.27-.17.56-.33,1.05-.28.09-.31.11-.68.22-.97.2-.11.61-.01.8-.14-.23-.12-.69-.01-.97-.08.29-.2.72-.25,1.13-.33-.12-.16-.5-.05-.75-.08.4-.61.74-1.29,1.52-1.52-.41-.13-1.05-.02-1.55-.05.4-.67,1.77-.36,1.99-1.22.04-.14-.06-.42.14-.42.04.17-.15.59-.19.86.38-.1.32-.88.72-1.05.07.15.02.42.08.58.13-.42.21-1.02.53-1.16.09.23-.06.43-.05.66.48-.42.17-1.53-.11-1.82.15-.05.36-.03.5-.08-.72-.06-1.26-.56-1.94-.66-.28-.04-.42-.06-.61-.22.12-.52.8-.47,1.3-.61.11-.03.22-.14.33-.17.23-.05.48.04.69,0Zm-14.96.36c1.06.23,2.28.31,3.62.25,1.02-.04,2.02-.02,2.76.33.41.39.77,1.27.47,2.02-.04-.32.03-.95-.33-1.11.15.51.15,1.21-.11,1.63-.29.47-.98.6-1.41.88-.02.11.15.03.11.17.17,2.86,1.69,4.37,4.59,4.51.02.15-.02.24-.06.33-1.63.01-2.82-.49-3.65-1.44-.82-.95-1.31-2.52-1.05-4.09.97.29,1.1-1.1.22-1.02.4-.78-.83-1.13-1.02-.47.03.16.07.32.11.47-.88-.19-.7,1.25.08,1.02-.04,3.95,1.76,6.07,5.22,6.52.21,1.19.26,2.66.14,4.09-.06.75-.1,1.52-.17,2.1-.06.51-.28,1.38-.91,1.11-.42-.61-.47-1.58-.55-2.49-.09-.93-.2-1.85-.47-2.57.08,3.18-.38,6.68-1.96,8.29-.27.28-.69.49-1.19.5.54-3.13.93-6.54.8-10.26.43.3.85-.04,1.05-.36.15,1-.1,1.94-.19,2.9-.19,1.94-.21,3.96-.61,5.72.23-.19.22-.52.28-.8.4-1.98.41-4.61.72-6.72.22.14.47.14.69.06.22-.09.31-.3.44-.33.05.51.25.97.88.8.33,1.06,0,2.97.11,4.29.22-1.23.37-3.1.03-4.31.31-.39.81-.88.63-1.58-.31.53-.34,1.62-1.27,1.36-.08-.18-.17-.34-.19-.58-.04-.42.28-.93-.03-1.11-.17.32-.2.92-.47,1.16-.55.49-.85-.15-.8-.8.03-.35.24-.77,0-.88-.3.32-.35,1.15-.97,1.08-.23-.03-.35-.25-.3-.58.06-.44.48-.88.41-1.13-.22.03-.32.33-.52.5-.18.14-.41.25-.72.17-.2-.3.02-.56.17-.77.15-.22.4-.42.41-.64-.32-.09-.84.63-1.24.19,0-.59.54-.66.77-1.02-.13-.2-.99.43-1.13-.05-.13-.44.59-.59.8-.83-.37-.09-.96-.03-1-.36-.04-.4.58-.28.83-.5-.06-.2-.35-.08-.53-.14-.16-.05-.32-.19-.3-.33.03-.28.5-.16.72-.3-.14-.23-.54-.1-.69,0-.13.09-.13.19-.22.33-.27.4-.72.89-1.19,1.33-.71.66-1.55,1.43-2.74.86,1.12-1.29,2.53-2.28,3.57-3.65-1.12.42-3.51,1.01-3.7-.64,1.56-.34,3.08-.71,4.45-1.24-1.65-.1-3.32-.18-3.4-1.85Zm3.23.64c.13.09.32.12.39.28-1.09.08-2.23-.14-3.04-.33.88.38,2.31.57,3.51.36-.15-.06-.3-.12-.39-.25.2-.12.55-.08.77-.17-.36-.02-.88.04-1.24.11Zm-.14,2.05s0-.06-.06-.05c-1.12.39-2.27.75-3.7.83,1.55.14,2.64-.4,3.76-.77Zm-1,2.41c-.44.52-.99,1.03-1.49,1.47-.18.15-.38.27-.5.44,1-.67,1.86-1.48,2.57-2.43-.25.12-.3.44-.58.53Zm-3.21,8.29c1.01-.07,1.59-.87,2.13-1.49.69-.8,1.41-1.64,1.91-2.57.33-.2.48-.64.64-1.02.09-.24.25-.46.22-.61-.78.05-.67-.79-.17-1.05-.11-.03-.19-.1-.33-.11-1.16,1.84-1.96,4.18-3.43,5.61,1.21-1.8,2.27-3.76,3.24-5.81-.03-.09-.08-.16-.08-.28.08-.18.22-.31.39-.42-.16-.04-.25-.15-.39-.22-1.25,2.77-2.7,5.36-4.12,7.96Zm22.72-3.29c.54,1.87,1.13,3.78,1.8,5.53.27.71.68,1.38.77,2.16-.65-1.2-1.12-2.54-1.6-3.9-.48-1.37-.89-2.81-1.22-4.31-.24.14-.65.08-.88-.03,0,1.03.31,1.94.64,2.79.8,2.06,1.42,4.34,2.43,6.16.52.94,1.12,1.84,2.35,1.88-.72-1.8-1.71-3.75-2.13-5.94-.14-.75-.23-1.54-.41-2.29-.1-.43-.29-.88-.44-1.33-.32-.92-.67-1.69-1.19-2.32-.16.14-.47-.03-.61.03.35.36.33,1.01.5,1.58Zm-17.8-1.35s0-.03-.03-.03c-.56.86-.95,1.7-1.22,2.79-.36,1.48-.48,3.45-.91,4.92-.43,1.45-1.12,2.94-1.55,4.34.22-.02.38-.1.61-.11.83-.38,1.26-1.15,1.63-1.96,1.12-2.46,2-5.35,2.79-8.07-.14-.22-.08-.65-.03-.91-.25.14-.54.2-.86.08-.52,2.6-1.26,5.1-2.13,7.35-.12.32-.18.69-.44.94.66-2.1,1.39-4.27,1.96-6.41.1-.38.17-.76.28-1.13.11-.4.14-.77.22-1.19.05-.26.23-.51.22-.64-.18.03-.36.08-.55.03Zm21.51-9.07c-.06,1.6-1.69,1.87-3.4,1.91,1.37.58,3,.89,4.73,1.11-.15,1.55-2.66,1.32-3.9.8,1.08,1.26,2.52,2.41,3.87,3.48-.34.34-1.06.35-1.47.25-.46-.12-.9-.51-1.3-.86-.54-.47-.98-.82-1.35-1.35-.18-.26-.52-.64-.97-.39.1.22.65.02.72.31.1.46-.64.23-.8.55.28.16.89,0,.8.53-.18.21-.59.21-.91.28.1.35.84.28.77.89-.27.34-.86-.06-1.11.03.22.35,1.03.58.69,1.13-.44.09-.8-.27-1.11-.3-.1.25.37.48.55.8.11.19.21.53,0,.66-.67.07-.82-.52-1.22-.64-.06.14.1.32.19.5.16.29.39.68.17,1.13-.75.23-.86-.62-1.19-.99-.24.08-.04.35,0,.58.08.43.06.97-.14,1.24-.84.15-.87-.72-1.11-1.27-.27.19,0,.64,0,1.02,0,.31-.06.53-.22.72-.92.15-.92-.85-1.27-1.36-.13.76.34,1.17.69,1.55-.3,1.35-.09,3.05.17,4.31.04-1.33-.25-2.84-.06-4.23.61.02.89-.29.86-.91.21.29.83.53,1.16.28.36,1.76.4,3.82.75,5.56.13.67.16,1.38.5,1.91-.5-2.59-.83-5.6-1.11-8.51.15-.03.33.36.64.39.17.01.3-.07.41-.11.09,3.72.5,7.11,1.22,10.2-.69.09-1.07-.37-1.47-.66-1.4-1.94-2.1-4.57-1.93-8.07-.13.17-.14.42-.19.64-.24.93-.36,1.98-.42,3.21-.02.44-.04.88-.19,1.24-.12.09-.36.16-.55.08-.6-.7-.58-1.76-.69-2.9-.05-.49-.17-1.02-.19-1.55-.04-.96,0-1.96.11-2.79,3.22-.61,5.12-2.55,4.98-6.52.8.14.94-1.28,0-1.08.62-1.03-1.52-1.06-.94,0-.93-.03-.55,1.42.33,1.05.1.39.18.75.14,1.22-.21,2.6-1.92,4.27-4.64,4.31-.03-.1-.03-.23-.06-.33,2.83-.19,4.33-1.71,4.42-4.64-.01-.09,0-.16.11-.14-.85-.44-1.82-.76-1.69-2.13.01-.14.04-.26.11-.39-.3.03-.44.76-.25,1.11,0,.07-.05-.04-.11,0-.36-1.39.28-2.32,1.58-2.41.77-.05,1.69-.02,2.57-.06,1.04-.04,1.99-.25,2.71-.36Zm-.86.69c.08-.04.31-.16.14-.11-.77.31-1.92.52-2.93.41.06-.16.28-.16.36-.3-.34-.06-.8-.01-1.19-.03-.04,0-.2,0-.11.03h.22c.2.04.44.04.64.08-.1.15-.28.22-.39.36,1.25.03,2.47-.07,3.26-.44Zm-2.1,2.05s-.07.03,0,.03c1.02.37,2.32.87,3.7.61-1.4.05-2.57-.33-3.7-.64Zm3.04,4.2c-.99-.65-1.86-1.57-2.68-2.29.75.89,1.65,1.78,2.68,2.29Z"/>
      <path id="Rechter_Fang" data-name="Rechter Fang" class="cls-3" d="m53.6,33.57c.81,1.36,1.69,2.66,2.49,4.04.48.05.81,0,1.02-.3.14-.2.12-.53.25-.72.22-.33.92-.26,1.3-.08,0,.26-.55.3-.66.11-.14.03-.23.1-.36.14.03.14.14.18.08.33-.08.04-.17.07-.28.08-.03.26-.17.4-.3.55.63.45,1.23-.22,1.8-.22.47,0,.7.49,1.3.33,0,.09-.03.17-.08.22.09.25.4.28.47.55-.27.31-.57-.14-.64-.39-.31.04-.4-.13-.61-.19-.01.34-.49.35-.47-.03-.72.04-1.59.55-2.16.11,0,.21.27.28.44.39.17.1.4.21.55.33.09.07.15.19.25.25.15.09.37.07.44.25-.12.23.11.5,0,.64-.4.07-.32-.58-.77-.55-.1-.5-.75-.45-1-.8-.24-.02-.54,0-.61-.19-.21.04-.37.11-.58.14-.21.03-.45-.06-.64-.03-.29.05-.58.56-.88.19.14-.23.5-.24.58-.52.37-.02.71-.06,1.05-.11.19-.15-.05-.42-.19-.66-.67-1.08-1.61-2.15-2.27-3.15.02-.36.09-.68.47-.69Zm4.62,2.6s.1.08.19.08c.04-.1.26-.25.14-.33-.1.1-.32.06-.33.25Zm2.13,1.91s.04.03.05.06c.19-.06.39-.11.47-.28-.18-.2-.53-.07-.53.22Zm-6.03.17s.1-.07.08-.17c-.02,0-.03-.02-.03-.05-.37-.16-.38.21-.06.22Zm4.29,1.35c.12.04.26.06.41.06.04-.26-.45-.43-.41-.06Z"/>
      <path id="Linker_Fang" data-name="Linker Fang" class="cls-3" d="m46.91,34.62c-.61.96-1.61,1.98-2.41,2.96-.07.08-.31.35-.28.47.09.32.81.02,1.08.11.08.12.13.27.22.39.08.04.25,0,.25.14-.16.27-.57,0-.69-.11-.14.02-.28.04-.44.03-.22-.26-.76-.07-1.11-.05-.1.26-.31.41-.64.44-.21.37-.47.69-.97.78-.15.31-.09.95-.52.88.02-.26.28-.65-.06-.86.51-.52,1.24-.83,1.6-1.49-.39-.11-.94-.06-1.27-.22-.11.19-.41.34-.5.03-.27.04-.42.21-.69.25-.15.15-.16.43-.33.55-.65.09-.39-.46-.11-.58.04-.15-.1-.21-.03-.3.13-.1.22-.03.33-.06.34-.08.57-.43.88-.44.23-.01.59.15.86.22.27.07.53.21.86.14-.29-.17-.15-.77-.58-.8-.05-.08-.01-.25-.08-.3-.2-.03-.57.1-.72-.08-.15.03-.37.25-.5.06.04-.27.36-.27.5-.44.39.17.92.19,1.24.41.17.45.5,1.54,1.02.91.21-.25.38-.56.61-.86.58-.75,1.37-1.77,1.91-2.43,0-.02.01-.03.03-.03.11-.04.26.08.42.08.02.09.06.16.11.22Zm-5.61,1.71s.1-.08.08-.19c-.14-.06-.28-.11-.47-.11.05.18.19.27.39.3Zm4.56,1.71c-.03.13-.12.19-.28.19-.13-.18.14-.29.28-.19Zm-6,.05c.13.25-.19.32-.39.25.02-.2.18-.3.39-.25Zm1.46,1.85c0,.09.07.09.06.19-.15.07-.29.15-.44.22-.03-.29.13-.41.39-.42Z"/>
      <path id="Rechter_Kleestengel" data-name="Rechter Kleestengel" class="cls-3" d="m58.02,16.07c.12.24,0,.47-.08.66.97-.27.9,1.11,0,.86.27,3.77-1.5,5.97-4.84,6.3-.03-.15-.07-.28-.08-.44,1.35-.18,2.53-.55,3.37-1.36.99-.94,1.68-2.8,1.16-4.56-.37.17-1.04-.06-.8-.66.12-.1.27-.17.53-.14-.36-.47.21-1.06.75-.66Z"/>
      <path id="Linker_Kleestengel" data-name="Linker Kleestengel" class="cls-3" d="m41.88,17.5c-.41,3.46,1.41,5.8,4.76,5.89.04.13.03.3.03.47-1.61.06-2.96-.7-3.76-1.6-.79-.89-1.19-2.16-1.33-3.51-.04-.39-.02-.79,0-1.19-.72.32-1.03-.91-.14-.83-.02-.11-.15-.38-.06-.61.43-.47,1.16.19.66.64.99-.22.73,1.24-.17.75Z"/>
      <path id="Maulinnenraum" class="cls-4" d="m51.28,16.54c-.01.21-.19.25-.36.31.04-.18.08-.36.36-.31Zm-.25-.39c.1.04.23.05.33.08-.04-.42-.23-.68-.58-.77.1.21.23.4.25.69Z"/>
      <path id="Schnabel" class="cls-3" d="m49.01,17.03c.71-.34,2.07.38,2.43-.36.12-.24.07-.63,0-.8-.23-.62-1.41-.98-2.05-.52-.46-.44-1.65-.41-1.77.3-.28-.65.28-1.12.86-1.19.13-.13.22-.56.52-.33.13.79,1.1.71,1.83,1,.41.16.95.56,1.02.94.08.42-.19.84-.42,1.02-.61.48-1.81.17-2.43-.06Z"/>
      <path id="Zunge" class="cls-4" d="m51.17,16.34c-1.05-.1-2.44-.06-3.37.19.77-.52,2.37-.49,3.37-.19Z"/>
      <path id="Gefieder" class="cls-1" d="m59.05,19.14c-.04.12-.33.1-.44.05.02-.18.34-.1.44-.05Zm-.58.94c.18-.02.42.04.55-.03-.16-.02-.48-.2-.55.03Zm-.17.97c.21.03.38.22.61.14-.14-.15-.42-.17-.61-.28v.14Zm-.39.91c.27.06.42.22.69.28-.17-.2-.45-.29-.69-.41v.14Zm-.55.88c.24.1.4.43.66.41-.2-.24-.39-.48-.66-.64-.07.07,0,.14,0,.22Zm-.28,1.47c-.14-.34-.24-.72-.53-.91.12.35.25.71.53.91Zm-1.3.8c-.02-.33-.14-.8-.33-1.05,0,.35.18.76.33,1.05Zm-1.38.42c-.02-.38-.14-.67-.19-1.02h-.14c.07.38.1.8.33,1.02Zm-13.44-6.11c-.1-.09-.43.06-.44-.11.14-.02.44-.08.44.11Zm-.39.91c.2-.02.45,0,.55-.11-.16-.15-.46.01-.55.11Zm.14,1.08c.26-.06.61-.03.66-.3-.21.11-.54.1-.66.3Zm.36.99c.27.02.61-.12.69-.39-.27.09-.48.24-.69.39Zm.64,1.05c.27-.05.64-.38.64-.69-.27.17-.44.44-.64.69Zm.97.99c.18-.03.21-.28.28-.41.08-.17.17-.34.22-.5-.04,0-.04-.04-.08-.03-.16.29-.31.59-.41.94Zm1.35.77c.09-.34.28-.71.28-1.05h-.08c-.07.3-.24.8-.19,1.05Zm1.41.36c.15-.28.23-.62.22-1.05h-.08c-.07.31-.18.72-.14,1.05Zm4.51,6.33c.07.42.12.97.06,1.44-.14-.37-.14-1-.06-1.44Zm-.03,4.67c-.17-1.39-.3-2.81-.5-4.17-.05,1.04.09,1.96.25,2.99.12.8.2,1.64.25,2.46.09,1.55,0,3.16.08,4.73,0,.18.02.36.11.55-.31-3.74.3-7.35.5-10.75-.13,1.5-.17,3.1-.69,4.2Zm1.74-17.39c.07,0-.03.41.08.47.05,0,.09-.13.11-.06-.02.14-.1.23-.11.39-.23-.13-.09-.53-.08-.8Zm-.64,2.27c.01-.23.19-.44.17-.61-.08.04-.08.16-.17.19-.08-.09.02-.35-.06-.44-.1.21-.22.74.06.86Zm-1.38,2.16c.03-.17.12-.27.08-.5-.14-.03.03.25-.11.22-.31-.26-.07-1.12-.17-1.46-.03.57-.24,1.46.19,1.74Zm-.44-.75c-.02-.18-.21-.13-.3-.22-.18-.16-.14-.39-.19-.69-.09.46,0,.94.5.91Zm1.19.5s.02-.03.05-.03c.02-.1.05-.23,0-.33-.12-.04,0,.14-.08.14-.25-.13-.24-.52-.33-.8.03.43-.02.94.36,1.02Zm-.58,2.74c.45-.05.5-.99.5-1.49-.13.33-.11,1.38-.55,1.35-.41-.02-.42-.99-.53-1.35.03.58.06,1.55.58,1.49Zm.94.75c.07.55-.16,1.35.08,1.83.42.08.61-.45.75-.75.16-.35.28-.68.33-.97.02.75-.34,1.36-.69,1.82-.31.18-.53-.06-.64-.25-.23.27-.31.76-.72.77-.47.02-.57-.59-.75-.99-.2.2-.1.57-.47.58-.58.01-.79-1.31-.94-1.77.15.27.23.57.39.91.1.22.3.72.55.72.48-.01.31-1.35.3-1.83.15.86.3,1.72.83,2.21.8-.29.77-1.41.97-2.29Zm-.17,2.57c.16.37-.26,1.15.19,1.35.53-.15.54-.83.75-1.3,0,.68-.3,1.69-1.08,1.41-.1.17-.19.34-.33.47-.18.03-.25,0-.44,0-.14-.15-.25-.33-.33-.53-.53.62-.98-.55-1.05-1.13.19.36.26,1.19.72,1.13.47-.06.1-.88.17-1.36.13.51.18,1.75.8,1.69.51-.05.44-1.32.61-1.74Zm-.06-7.85c-.02.49.02,1.14.36,1.35.16.06.14-.15.22-.08.07.09-.03.2-.08.25-.54-.12-.56-.89-.5-1.52Zm-2.76,2.68c.15.43.25,1.12.44,1.49.04.08.18.29.3.28.28-.03.37-1,.39-1.36,0-.11,0-.24,0-.36.2.61.17,1.6.55,2.02.15.16.33.2.52.05.47-.33.58-1.29.66-2.05.09.37-.06,1.37.28,1.66.57-.18.59-.9.69-1.55.12.34.01.91.25,1.13.45-.22.51-.83.64-1.38.06.29-.16,1.65-.61,1.58-.19-.03-.14-.33-.3-.44-.08.57-.71,1.34-.99.44-.3.31-.3.93-.97.88-.36-.26-.48-.76-.69-1.16-.11.21-.19.46-.28.69-.48.11-.56-.39-.69-.72-.16.04-.18.22-.3.3-.52-.21-.48-.98-.53-1.66.13.57.11,1.29.55,1.55.27-.28.09-.98.08-1.41Zm1.52,3.4c.22.31.24.81.52,1.05.37-.14.39-.64.53-1.02,0,.47-.09,1.22-.63,1.13-.2-.33-.32-.73-.42-1.16Zm1.11,1.99c-.02-.14.08.03,0,.03-.04.45-.12,1.09-.47,1.13-.39.05-.43-.67-.53-1.05.17.29.19.73.5.88.27-.22.35-.65.5-1Z"/>
      <path id="Auge" class="cls-2" d="m50.28,14.38c.09.03.09.13.19.14.13-.03.18-.13.33-.14.13.26-.59.35-.53,0Z"/>
    </g>
  </g>
</svg>