<?xml version="1.0" encoding="UTF-8"?>
<svg id="Ebene_2" data-name="Ebene 2" xmlns="http://www.w3.org/2000/svg" viewBox="0 0 100 60">
  <defs>
    <style>
      .cls-1 {
        fill: #010101;
      }

      .cls-2 {
        fill: #fff;
      }

      .cls-3 {
        fill: #e3382a;
      }
    </style>
  </defs>
  <g id="Ebene_1-2" data-name="Ebene 1">
    <g id="be-flag-coa">
      <rect class="cls-3" width="100" height="60"/>
      <rect class="cls-2" y="12" width="100" height="36"/>
      <path class="cls-3" d="m45.43,17.33c-.46-.22-1.29-.09-2.06-.21-1.54-.25-1.73-.68-1.73-1,0-.34-.31-.35-.31,0,0,2.14,3.23,1.05,4.14,1.6m-10.51-1.12c0-.58-.39-.95-.73-.98.21.24.25.58.28.92-.07-.48-.42-.79-.72-.81.16.17.26.53.27.87-.05-.26-.3-.66-.71-.7.19.2.25.57.29.91-.06-.29-.35-.62-.68-.64.14.12.26.53.28.86-.04-.13-.27-.45-.63-.49.19.17.27.59.3.92m1.44,7.85c-.1-.45-.49-.93-.94-.87.21.14.36.67.42,1-.14-.38-.49-.78-.9-.73.22.2.35.68.44,1.05-.22-.42-.49-.73-.9-.68.27.26.37.72.44,1.08-.13-.3-.44-.66-.85-.62.26.23.36.73.45,1.1-.16-.22-.41-.53-.8-.5.26.25.37.73.48,1.1m3.47,14.18c-.44-.26-1.04-.17-1.32.19.31-.06.77.12.95.26-.3-.19-.91-.07-1.15.26.28-.07.73.12.97.26-.31-.11-.8-.08-1.1.29.26-.06.67.08.95.24-.39-.09-.77.06-.99.32.34-.07.72.12.95.23-.44,0-.7.16-.86.35.28-.06.71.09,1.02.26m12.02.07c-.57-.07-1.04.27-1.18.67.16-.12.65-.2.97-.1-.44-.02-.89.34-.98.67.18-.15.76-.19.97-.1-.4.02-.79.32-.91.66.19-.12.72-.17,1.01-.1-.44.07-.75.38-.85.67.26-.17.61-.16,1.04-.13-.44.16-.59.35-.74.65.25-.16.68-.16,1.11-.13"/>
      <path class="cls-1" d="m44.16,13.9l-2.01.07c-.1,0-.17.06-.17.17,0,.72.15,1.19.67,1.57-.07.4-.02.61.4.95.04-.33.17-.48.38-.62.02,0,.03,0,.04.02-.02.15-.02.3,0,.4.08.23.49.24.59.07.1.24.3.25.47.25.17,0,.26-.12.31-.24.1.08.2.17.29.29.29.4.34.91.34,1.39l-.27.02v-.2c0-.28-.66-.33-.81-.09-.16-.18-.67-.15-.67.14v.09c-.12-.15-.21-.3-.28-.46-.21.13-.33.23-.3.7-.09,0-.18.02-.26.02,0,.54.25.69,2.19.65.05.54-.49.85-.9,1.1-1.05.6-2.16,1.26-2.77,2.36-.5.87-.63,1.91-.57,2.91l.58-.26.07.31c-1.04.49-2.93,1.5-4.17,2.07-.3.14-1.09.34-1.26.06-.57-.98-1.02-1.72-1.68-2.47-.34-.39-2.58,1.47-2.16,2.09.94,1.42,2.47,3.47,5.02,3.48,2.64.02,4.94-.95,5.44-1.1l.11.34c-.34.15-.63.26-.99.37.46,1.81,1,2.52,2.24,3.62l-.26.19c-.22-.13-.6-.55-.81-.75-2.64,1.25-3.63,2.5-4.26,3.79-.7,1.56-.57,3.33-.27,4.96.06.27-.24.4-.46.32-.61-.14-.95-.75-1.53-.97-.26-.12-.61-.25-.9-.2-.47.08-.97,2.45-.49,2.68.89.44,1.86.53,2.85,1.04.65.26,1.28.69,2.02.58.42-.04.84-.33.88-.77.37-1.6.89-3.29,2.11-4.44.58-.58,1.34-1.04,2.09-1.39-.3-1.14-.52-2.27-.49-3.46l.36-.02c.26,4.51,1.47,5.46,3.58,7.56.21.21.2.62-.12.74-.41.21-.9.21-1.37.24-.5.02-.12,2.81.62,2.78,1.3-.04,2.65-1.05,3.43-2.05.33-.41.72-.82,1.04-1.23.39-.5-.03-1.09-.15-1.55-.32-1.32-.47-5.1-.49-5.63h.46s.07-.95.07-.95c-1.37-1.7-1.15-4.37-1.72-6.09-.22-.7-.47-1.42-.47-2.16,0-1,1.14-2.89,1.11-4.57,0-.71-.4-1.63-.4-2.05,0-1.22.71-.95.69-3.49,0-.7-.09-1.22-.27-1.93,1.23-1.29-.46-2.58-1.43-1.78-.78-.21-.88-.41-2.41-.41-1.31,0-2.06.35-2.87.9m-2.37,7.56c-.86,1.06-1.35,1.6-1.32,4.17-8.16-4.66-5.77-5.33-7.56-8.11-.28-.44,1.54-1.45,2.12-1.02,1.16.86.73,2.47,1.7,3.2.95.72,2.66,1.05,5.06,1.75m4.98-5.98c-.12,0-.35-.07-.41-.16-.72-1.09-.9-.7-1-.32-.09.34-.49.35-.37-.11.29-1.11,1.07-.95,2.04.58m2.1-1.11c.2-.26.5-.52.83-.63.49-.16.68.23.3.36-.32.14-.59.34-.82.57m-6.69,1.12c.12.07.3.16.55.24-.14.12-.27.28-.31.46-.22-.16-.31-.44-.24-.7m1.32.44c0,.11-.02.21-.06.26-.08.13-.39.12-.45-.06-.02-.07-.02-.21,0-.33.16.04.34.07.5.12m.1.02c.22.07.44.14.63.26-.04.1-.12.2-.26.2-.13,0-.28,0-.36-.16-.04-.08-.02-.2,0-.3m-.93,2.18c-.02-.23,0-.43.18-.56.09.16.19.32.3.46v.06m.08,0v-.26c0-.27.58-.26.58,0v.21m.07,0v-.23c0-.27.67-.26.67,0v.18"/>
    </g>
  </g>
</svg>