<?xml version="1.0" encoding="UTF-8"?>
<svg id="Ebene_2" data-name="Ebene 2" xmlns="http://www.w3.org/2000/svg" viewBox="0 0 100 60">
  <defs>
    <style>
      .cls-1 {
        fill: #010101;
      }

      .cls-2 {
        fill: #fff;
      }

      .cls-3 {
        fill: #da171c;
      }
    </style>
  </defs>
  <g id="Ebene_1-2" data-name="Ebene 1">
    <g id="hh-flag-coa.svg.svg">
      <rect class="cls-3" width="100" height="60"/>
      <g>
        <g>
          <g>
            <g>
              <path class="cls-2" d="m51.41,12.12s.08-1.34-1.11-1.55v-1.45h.95v-.62h-.95v-.79h-.59v.79h-.95v.62h.95v1.45c-1.18.21-1.11,1.55-1.11,1.55"/>
              <path class="cls-1" d="m51.5,12.12h-.18c0-.06.06-1.28-1.03-1.47h-.08v-1.63h.95v-.44h-.95v-.79h-.41v.79h-.95v.44h.95v1.61h-.08c-1.09.21-1.03,1.42-1.03,1.47h-.18s-.06-1.36,1.11-1.62v-1.28h-.95v-.8h.95v-.79h.77v.79h.95v.8h-.95v1.28c1.17.27,1.11,1.62,1.11,1.63Z"/>
            </g>
            <g>
              <path class="cls-2" d="m46.64,15.08h6.7c0-1.82-1.69-3.28-3.35-3.28s-3.35,1.46-3.35,3.28h0Z"/>
              <path class="cls-1" d="m53.44,15.17h-6.88v-.09c0-1.93,1.82-3.37,3.44-3.37s3.44,1.44,3.44,3.37v.09Zm-6.7-.18h6.52c-.06-1.78-1.75-3.09-3.26-3.09s-3.2,1.32-3.26,3.09Z"/>
            </g>
            <g>
              <path class="cls-2" d="m53.48,16.69l.38-.13v-1.48h-7.7v1.48l.38.13h6.94Z"/>
              <path class="cls-1" d="m53.49,16.78h-6.99s-.44-.16-.44-.16v-1.64h7.88v1.64l-.46.16Zm-6.94-.18h6.91l.3-.1v-1.32h-7.52v1.32l.3.1Z"/>
            </g>
            <g>
              <path class="cls-2" d="m53.4,31.13v-14.44h-6.81v14.44"/>
              <polygon class="cls-1" points="53.49 31.13 53.31 31.13 53.31 16.78 46.68 16.78 46.68 31.13 46.5 31.13 46.5 16.6 53.49 16.6 53.49 31.13"/>
            </g>
          </g>
          <g>
            <path class="cls-2" d="m36.02,42.68c1.12-5.07.71-10.09.71-10.09h26.54s-.41,5.02.71,10.09c1.21,5.51,2.3,7.41,2.3,7.41v2.22h-32.57v-2.22s1.08-1.9,2.3-7.41h0Z"/>
            <path class="cls-1" d="m66.36,52.38h-32.72v-2.31s0-.02,0-.02c.01-.02,1.09-1.96,2.29-7.39h0c1.1-5,.72-10.02.71-10.07v-.08s26.7,0,26.7,0v.08c-.01.05-.4,5.07.71,10.07,1.2,5.42,2.28,7.37,2.29,7.39v.02s0,2.31,0,2.31Zm-32.57-.15h32.41v-2.12c-.11-.21-1.16-2.24-2.3-7.41-1.03-4.67-.77-9.36-.72-10.03h-26.38c.05.67.31,5.36-.72,10.03h0c-1.14,5.18-2.19,7.2-2.3,7.41v2.12Z"/>
          </g>
        </g>
        <g id="b">
          <g>
            <g>
              <path class="cls-2" d="m39.96,13.18h1.27v1.69h.82v-1.69h1.32v1.69h.87v-1.69h1.26v3.33l-.42.18h-6.9l-.51-.18v-3.33h1.33v1.69h.97v-1.69Z"/>
              <path class="cls-1" d="m45.1,16.78h-6.95s-.57-.21-.57-.21v-3.48h1.51v1.69h.79v-1.69s1.45,0,1.45,0v1.69h.64v-1.69h1.5v1.69h.69v-1.69h1.45v3.48l-.5.21Zm-6.9-.18h6.87l.35-.15v-3.18h-1.08v1.69h-1.05v-1.69h-1.14v1.69h-1v-1.69h-1.09v1.69s-1.15,0-1.15,0v-1.69h-1.15v3.17l.44.16Z"/>
            </g>
            <g>
              <path class="cls-2" d="m38.17,16.69h6.89v14.64h-6.89v-14.64Z"/>
              <path class="cls-1" d="m45.16,31.42h-7.07v-14.82h7.07v14.82Zm-6.89-.18h6.71v-14.46h-6.71v14.46Z"/>
            </g>
            <g>
              <path class="cls-2" d="m39.77,11.2l.63-1.08-.63-1.08h1.25l.63-1.08.63,1.08h1.25l-.63,1.08.63,1.08h-1.25l-.63,1.08-.63-1.08h-1.25Z"/>
              <path class="cls-1" d="m41.64,12.46l-.68-1.18h-1.36l.68-1.17-.68-1.17h1.36l.68-1.17.68,1.17h1.36l-.68,1.17.68,1.17h-1.36l-.68,1.18Zm-1.72-1.36h1.15l.57.99.57-.99h1.15l-.57-.99.57-.99h-1.15l-.57-.99-.57.99h-1.15l.57.99-.57.99Z"/>
            </g>
            <g>
              <path class="cls-2" d="m50.15,28.82h-1.22v1.98h-1.98v-1.98h-2.18v1.98h-1.82v-1.98h-2.11v1.98h-1.8v-1.98h-2.45v3.76l.58.14h12.97"/>
              <polygon class="cls-1" points="50.15 32.81 37.17 32.81 36.5 32.65 36.5 28.73 39.14 28.73 39.14 30.71 40.76 30.71 40.76 28.73 43.05 28.73 43.05 30.71 44.68 30.71 44.68 28.73 47.04 28.73 47.04 30.71 48.84 30.71 48.84 28.73 50.15 28.73 50.15 28.91 49.02 28.91 49.02 30.9 46.86 30.9 46.86 28.91 44.87 28.91 44.87 30.9 42.87 30.9 42.87 28.91 40.94 28.91 40.94 30.9 38.96 30.9 38.96 28.91 36.69 28.91 36.69 32.51 37.19 32.63 50.15 32.63 50.15 32.81"/>
            </g>
          </g>
          <rect class="cls-1" x="38.17" y="16.62" width="6.89" height=".3"/>
          <path class="cls-1" d="m45.09,52.31h-.38v-11.2c0-1.34,1.63-4.87,5.29-4.87v.38c-3.63,0-4.91,3.57-4.91,4.49v11.2Z"/>
          <path class="cls-1" d="m46.58,52.31h-.15v-10.6c0-.89.36-1.84.97-2.55.68-.79,1.6-1.23,2.6-1.23v.15c-1.65,0-3.42,1.46-3.42,3.63v10.6Z"/>
          <g id="a">
            <path class="cls-1" d="m47.56,49.45c0-.48.18-.48.32-.48s-.02.19-.02.46.15.5.02.5-.32-.04-.32-.48h0Zm-1.05-.02h.98"/>
            <path class="cls-1" d="m47.87,50.01c-.25,0-.38-.16-.39-.49h-.97v-.15h.97c.02-.43.21-.46.39-.46.05,0,.09.02.11.05.04.06.02.13,0,.22-.02.07-.05.16-.05.26s.02.19.04.28c.03.11.05.19,0,.25-.02.02-.05.05-.1.05Zm-.24-.55c0,.37.13.4.22.4,0-.03-.01-.08-.02-.11-.02-.09-.05-.2-.05-.31s.03-.23.05-.31c0-.02.01-.05.02-.07-.12,0-.22.03-.22.4Z"/>
          </g>
          <rect class="cls-1" x="33.76" y="49.94" width="11.08" height=".3"/>
          <g id="a-2" data-name="a">
            <path class="cls-1" d="m47.56,41.86c0-.48.18-.48.32-.48s-.02.19-.02.46.15.5.02.5-.32-.04-.32-.48h0Zm-1.05-.02h.98"/>
            <path class="cls-1" d="m47.87,42.42c-.25,0-.38-.16-.39-.49h-.97v-.15h.97c.02-.43.21-.46.39-.46.05,0,.09.02.11.05.04.06.02.13,0,.22-.02.07-.05.16-.05.26s.02.19.04.28c.03.11.05.19,0,.25-.02.02-.05.05-.1.05Zm-.24-.55c0,.37.13.4.22.4,0-.03-.01-.08-.02-.11-.02-.09-.05-.2-.05-.31s.03-.23.05-.31c0-.02.01-.05.02-.07-.12,0-.22.03-.22.4Z"/>
          </g>
        </g>
        <g id="b-2" data-name="b">
          <g>
            <g>
              <path class="cls-2" d="m60.04,13.18h-1.27v1.69h-.82v-1.69h-1.32v1.69h-.87v-1.69h-1.26v3.33l.42.18h6.9l.51-.18v-3.33h-1.33v1.69h-.97v-1.69Z"/>
              <path class="cls-1" d="m61.84,16.78h-6.95s-.48-.21-.48-.21v-3.48h1.44v1.69h.69v-1.69h1.5v1.69h.64v-1.69h1.45v1.69s.79,0,.79,0v-1.69h1.51v3.48l-.59.21Zm-6.9-.18h6.87l.44-.16v-3.17h-1.15v1.69h-1.15v-1.69s-1.09,0-1.09,0v1.69h-1v-1.69h-1.14v1.69h-1.05v-1.69h-1.08v3.18l.35.15Z"/>
            </g>
            <g>
              <path class="cls-2" d="m61.83,16.69h-6.89v14.64h6.89v-14.64Z"/>
              <path class="cls-1" d="m61.92,31.42h-7.07v-14.82h7.07v14.82Zm-6.89-.18h6.71v-14.46h-6.71v14.46Z"/>
            </g>
            <g>
              <path class="cls-2" d="m60.23,11.2l-.63-1.08.63-1.08h-1.25l-.63-1.08-.63,1.08h-1.25l.63,1.08-.63,1.08h1.25l.63,1.08.63-1.08h1.25Z"/>
              <path class="cls-1" d="m58.36,12.46l-.68-1.18h-1.36l.68-1.17-.68-1.17h1.36l.68-1.17.68,1.17h1.36l-.68,1.17.68,1.17h-1.36l-.68,1.18Zm-1.72-1.36h1.15l.57.99.57-.99h1.15l-.57-.99.57-.99h-1.15l-.57-.99-.57.99h-1.15l.57.99-.57.99Z"/>
            </g>
            <g>
              <path class="cls-2" d="m49.85,28.82h1.22v1.98h1.98v-1.98h2.18v1.98h1.82v-1.98h2.11v1.98h1.8v-1.98h2.45v3.76l-.58.14h-12.97"/>
              <polygon class="cls-1" points="62.83 32.81 49.85 32.81 49.85 32.63 62.81 32.63 63.32 32.51 63.32 28.91 61.04 28.91 61.04 30.9 59.06 30.9 59.06 28.91 57.13 28.91 57.13 30.9 55.13 30.9 55.13 28.91 53.14 28.91 53.14 30.9 50.98 30.9 50.98 28.91 49.85 28.91 49.85 28.73 51.16 28.73 51.16 30.71 52.96 30.71 52.96 28.73 55.32 28.73 55.32 30.71 56.95 30.71 56.95 28.73 59.24 28.73 59.24 30.71 60.86 30.71 60.86 28.73 63.5 28.73 63.5 32.65 62.83 32.81"/>
            </g>
          </g>
          <rect class="cls-1" x="54.94" y="16.62" width="6.89" height=".3"/>
          <path class="cls-1" d="m55.29,52.31h-.38v-11.2c0-.91-1.28-4.49-4.91-4.49v-.38c3.66,0,5.29,3.53,5.29,4.87v11.2Z"/>
          <path class="cls-1" d="m53.57,52.31h-.15v-10.6c0-2.17-1.77-3.63-3.42-3.63v-.15c.99,0,1.92.44,2.6,1.23.61.71.97,1.66.97,2.55v10.6Z"/>
          <g id="a-3" data-name="a">
            <path class="cls-1" d="m52.44,49.45c0-.48-.18-.48-.32-.48s.02.19.02.46-.15.5-.02.5.32-.04.32-.48h0Zm1.05-.02h-.98"/>
            <path class="cls-1" d="m52.13,50.01c-.06,0-.09-.03-.1-.05-.05-.06-.03-.14,0-.25.02-.08.04-.18.04-.28s-.03-.19-.05-.26c-.03-.09-.05-.16,0-.22.02-.03.06-.05.11-.05.18,0,.37.04.39.46h.97v.15h-.97c-.01.33-.14.49-.39.49Zm.02-.96s.01.05.02.07c.02.08.05.19.05.31s-.03.23-.05.31c0,.04-.02.08-.02.11.09,0,.22-.03.22-.4,0-.38-.11-.4-.22-.4Z"/>
          </g>
          <rect class="cls-1" x="55.16" y="49.94" width="11.08" height=".3"/>
          <g id="a-4" data-name="a">
            <path class="cls-1" d="m52.44,41.86c0-.48-.18-.48-.32-.48s.02.19.02.46-.15.5-.02.5.32-.04.32-.48h0Zm1.05-.02h-.98"/>
            <path class="cls-1" d="m52.13,42.42c-.06,0-.09-.03-.1-.05-.05-.06-.03-.14,0-.25.02-.08.04-.18.04-.28s-.03-.19-.05-.26c-.03-.09-.05-.16,0-.22.02-.03.06-.05.11-.05.18,0,.37.04.39.46h.97v.15h-.97c-.01.33-.14.49-.39.49Zm.02-.96s.01.05.02.07c.02.08.05.19.05.31s-.03.23-.05.31c0,.04-.02.08-.02.11.09,0,.22-.03.22-.4,0-.38-.11-.4-.22-.4Z"/>
          </g>
        </g>
        <g>
          <path class="cls-1" d="m36.67,32.59h26.66m-16.7-15.82h6.7"/>
          <path class="cls-1" d="m63.33,32.74h-26.66v-.3h26.66v.3Zm-10-15.82h-6.7v-.3h6.7v.3Z"/>
        </g>
        <rect class="cls-1" x="49.92" y="37.99" width=".15" height="14.31"/>
      </g>
    </g>
  </g>
</svg>