<?xml version="1.0" encoding="UTF-8"?>
<svg id="Ebene_2" data-name="Ebene 2" xmlns="http://www.w3.org/2000/svg" viewBox="0 0 100 60">
  <defs>
    <style>
      .cls-1 {
        fill: #010101;
      }

      .cls-2 {
        fill: #fff;
      }

      .cls-3 {
        fill: #ffce05;
      }

      .cls-4 {
        fill: #dd0c15;
      }
    </style>
  </defs>
  <g id="Ebene_1-2" data-name="Ebene 1">
    <g id="ni-flag-coa.svg.svg">
      <rect class="cls-3" width="100" height="60"/>
      <rect class="cls-4" width="100" height="40"/>
      <rect class="cls-1" width="100" height="20"/>
      <path class="cls-4" d="m46.69,52.62c-10.67,0-19.32-8.65-19.32-19.32V8.26h38.64v25.04c0,10.67-8.65,19.32-19.32,19.32"/>
      <path class="cls-1" d="m66.03,33.2c0,10.69-8.67,19.36-19.36,19.36s-19.36-8.67-19.36-19.36V8.11h38.73v25.08m-19.37,18.45c10.19,0,18.45-8.33,18.45-18.52V9.03H28.21v24.17c0,10.19,8.26,18.45,18.45,18.45h0Z"/>
      <path class="cls-1" d="m47.29,22.91c.36-.09.38-.76.29-1.1-.3-.55.5-1.03.14-1.66-.02-.39-.51-.62-.25-.99.18-.73-.14-1.51-.72-1.94,0-.65-.03-1.55-.78-1.8-.5-.06-.29-.55-.5-.86-.22-.28-.55-.36-.63-.74-.36-.65-1.36-.11-1.68-.76-.3-.56-.3-1.23-.47-1.81-.62-.16-.8.61-.93,1.04-.31-.2.4-.85-.44-.57.18-.74-.6-.44-.75-.03-.03.53-.65.24-.97.48-.43.19-.44.85-.15,1.14-.38.25-1.19.11-1.2.77-.5.41-1.01.75-1.5,1.19-.47.05-.72.49-1.07.76-.25.52.16,1.04-.01,1.59-.1.85,1.1.39,1.19.91.19.56.88.23,1.29.33.62-.07.54-1.13,1.25-.86.39.15.78-.12,1.11-.13.46.58-.04,1.38-.42,1.88-.64.71-1.41,1.49-1.41,2.53-.26.41-.79.63-.94,1.14-.21.23,0,1.16-.5.68-.59-.3-1.3-.38-1.69-.98-.54-.15-1.16-.15-1.72-.14-.47.1-.64.57-.81.94-.56.63-1.1,1.43-1.84,1.91-.27.31-.8.46-.81.94-.3.57.11,1.22-.04,1.85-.06.56-.07,1.21.61,1.35.34.27.77.77,1.21.54.31-.8.69-1.71.41-2.57-.27-.19-.39-.49-.72-.59-.13-.43.39-.79.58-.26.78-.13.93-1.1,1.29-1.7.19-.73,1.26-.76,1.55-.1.38.54.87,1.12,1.27,1.59-.72,0-1.39-.29-2.02-.58-.52-.15-.8.31-.98.69-.52.27-.77.93-.46,1.45.11,1.13.15,2.29-.13,3.39-.23.6.3,1,.28,1.56.05.52.52.81.54,1.32.22.47.86.41,1.28.65.58.25,1.1-.1.88-.72-.03-.66.04-1.56-.53-2-.44-.11-1.26-.09-.94-.81.41-.17.83-.29.55-.84-.29-.73-.67-1.49-.45-2.32.25-.57,1.1-.21,1.36.2.88.93,1.88,1.9,3.21,2.12.66.03,1.19.86,1.88.51.15-.49.62-.4,1.01-.19.75.31,1.41.83,2.22,1,1.31.45,2.73.36,4.07.11.69-.07,1.36.33,1.65.94.4.55,1.11.33,1.67.44.36.68,1.2.56,1.85.64.94.49,1.31,1.58,1.71,2.5.5,1.09.46,2.47-.34,3.39-.22.5-1.05.45-1,1.12-.13.58-.77,1.12-.68,1.79.65.25,1.45.09,2.12-.07.71-.12,1.49-.65,1.29-1.47-.32-.41-.11-.87.25-1.17.14-.36.34-.63.75-.58.54.19.3-.67.27-.98-.08-.55-.51-.96-.65-1.51-.11-.36-.41-1.43.18-.82.69.7,1.29,1.52,1.43,2.54.26.84.07,1.71-.15,2.52-.23.45-.54.88-1.01,1.08-.15.33-.26.66-.49.97-.14.47-.66.93-.41,1.41,1.05.19,2.27.02,3.09-.69.36-.59-.28-1.4.34-1.88.2-.39.55-.57.98-.62.57-.12.36-.95.26-1.36-.39-.79-.83-1.57-.94-2.47-.22-.57-.44-1.2-.33-1.81-.26-.85-1.39-.85-1.82-1.56-.35-.53-.7-1.07-1.18-1.5.03-.71.29-1.47,0-2.2-.26-.69.03-1.48-.27-2.18-.06-.36-.26-.68-.34-1.01.76.08,1.54-.33,1.82-1.04.49-.47,1.09.35.67.8-.28.46-.78.86-.74,1.48-.13.99.47,1.83,1.17,2.42.36.44.18,1.26-.44.98,0,.66.85.35,1.16.11.28-.54.42-.9.34.01-.04.33-.81.73-.07.62.53-.14.65-.76.77-1.19-.08.77.38.31.39-.15.13-.08.1.99-.09,1.32-.22.47-1.09.88-1.39.31-.42.5.6.82,1.01.6,1-.26,1.64-1.31,1.67-2.3-.03-.45-.3-.83-.47-1.22.48.33,1.17.26,1.37-.33.23-.8-.53.25-.85-.31-.54-.8.35-1.57.27-2.41.21-.75-.23-1.46-.66-2.02.24-.93.21-2.07-.6-2.7-.4-.48-1.1-.43-1.66-.5-.46-1-1.88-.93-2.76-.52-1.17.46-1.81,2.15-.98,3.16.53.26.87,1.09.24,1.43-.57.46-1.34-.07-1.84-.38-1.02-.84-2.38-1.31-3.73-1.19-1.43.16-2.89-.18-4.14-.83-.39-.22-.24-.39.01-.66.06-.21.22-.33.3-.51h0Z"/>
      <g>
        <path class="cls-2" d="m47.22,23c-.38-.32,0-.73-.15-1.11-.47-.48-.54-.44-.14.1-.31.18-.71-.46-.86-.62.11.55.79.69.82,1.3-.06.6-.26.71-.28.06-.05-.5-.73-.52-.73-1.05-.16.3.27.64.51.83.21.3.17,1.05-.3.98.31-.47,0-.9-.39-1.15-.33-.43-.08.5.02.89-.26-.53,0,.98.35.5,1.17.99,2.78,1.46,4.3,1.41.96.03,1.96-.06,2.87.34,1.11.34,1.88,1.37,3.08,1.44.65,0,1.23-.68.89-1.3-.13-.55-.86-.76-.88-1.37-.17-.8.3-1.65,1-2.02.63-.41,1.58-.49,2.26-.15.37.11.32.69.74.64.68-.04,1.37.2,1.71.82.5.64.15,1.49.23,2.22.33.5.72,1.02.63,1.68-.01.59-.2,1.19-.46,1.69,0-.68.37-1.37.05-2.02.25.88-.45,1.74-.09,2.6.1.39.39.75.73.85-.84.04-1.44-.9-1.22-1.7.02-.65.31-1.47-.26-1.97.03.41.2,1.06.07,1.57-.27.81-.2,1.76.36,2.41.56.84.44,2.24-.45,2.78.04-.25.3-.64.26-.99.32-.93-.44-1.67-.93-2.32-.57-.75.12-1.67-.19-2.45.02.28.04.74-.09,1.09-.24.76.1,1.5.57,2.06.37.99.02.62-.32.12-.35-.59-1.07-1-1.05-1.77-.16.43.19,1.01.55,1.32.37.5.73,1.19.42,1.81-.17-.55-.29-1.31-.9-1.61-.47-.41-.83-.97-.8-1.63-.19.49.16,1.16.5,1.58.31.35.66,1.09.24,1.44.04-.63-.37-1.09-.82-1.46-.58-.58-.68-1.53-.46-2.29.45-.46,1.07-1.14.57-1.8-.13-.23-.91-.22-.37-.43.37-.31,1.01.84.85.27-.25-.6-1.21-.68-1.45-.04-.19.93-1.32,1.4-2.16.99-.65.04.4.54.35.93.29.74.38,1.57.27,2.37.28.76.39,1.64.03,2.38.42.3.83.76,1.09,1.25.3.52.66,1.04,1.26,1.26.28.22.75.43.73.83-.01.87.36,1.72.6,2.56.16.87.94,1.54.75,2.49-.28.32-.95-.08-.94.35-.1.5-.64.79-.78,1.27-.84-.12.67.54.08.57-.41-.31-1.12-.26-1.5-.3.52.27,1.41.05,1.63.74-.62.67-1.66.78-2.53.74-.35-.22.15-.66.23-.95.14-.38.52-.62.49-1.05.6-.23.92-.87,1.25-1.38.13.54.28.07.76-.06,0-.24-.88-.12-.71-.59.27-.73-.04-1.53-.17-2.27-.15-.67-.49-1.23-.91-1.74-.42-.63-1.11-.94-1.81-1.15-.87-.23-1.68-.67-2.25-1.32-.37-.31-.74-.63-1.25-.71-.68-.09-1.1-.66-1.29-1.28-.41-.74-1.35-1.04-2.14-1.08-.39.07.61.1.84.24.48.16,1.08.47,1.18,1-.4.1-.98.13-1.18-.35-.44-.41.57-.3-.47-.42-1.48.23-2.99.69-4.5.35-1.1-.14-2.1-.66-3.05-1.18-.66-.1-.53-.48.06-.24.39.23.4.13.14-.25-.2-.25.21-1.34.13-.53.03,1.45.28.1.25-.55-.54.15-.82.64-1.18,1.01-.43.09-.55.52-.75.84-.69.02-1.11-.7-1.82-.65-.96-.3-1.8-.84-2.5-1.57-.48-.53-1.15-1.35-1.96-.93-.33.3-.51.9-.39,1.3.15-.75.13.42.24.66.03.44.62.86.32,1.27-.7.07-.66,1.04-.2,1.38-.08.52.69-.27.95.25.26.66.34,1.46.17,2.14-.5-.01-1.03-.24-1.49-.37-.4-.12-.03-.53-.36-.72-.35-.41-.32-.99-.42-1.5.51.23.57-1.07.19-.23-.45.48-.41-.42-.28-.75.22-1.06.14-2.18.06-3.24-.27-.49.01-.96.42-1.22.2-.37.59-.81,1.04-.46.84.49,1.82.4,2.73.67.62.23,1.18.57,1.59,1.07.1-.22-.94-.91-.16-.69.33.13.61.59,1.01.44-.27-.18-.66-.32-.95-.55-.52-.09-.66-.39-.39-.87.33-.67-.04-1.46.36-2.12.18-.56.72-.87,1.18-1.16.32-.39.81-.51,1.26-.7-.49-.04-1.14.29-1.5.72-.71.19-1.14.92-1.3,1.61-.04.58.07,1.17-.28,1.68-.06.38-.12.88-.56.48-.38-.32-.15-1.02.01-1.45.32-.74-.16-1.6.28-2.33.31-.62.41-.32.22.21-.14.24.14,1.17.17.59-.22-.82.58-1.41.57-2.2.08-.98.95-1.55,1.47-2.28.33-.5.61-1.13.47-1.76.21.12.88-.12.81-.1-.56.49-.11.39.2-.08.15-.41.73-.52.75-1.01.25-1.04-.03-1.29-.16-.24-.07.8-1.09,1.25-1.78.85-.55,0-1.04.46-1.62.23-.1-.59-.27.32-.61.37-.24,1.03-.59.09-1.05.54-.7.03.42-.17.44-.56.45-.28.51-.69-.16-.52-.47.13-.73.79-1.31.54-.5.12-.82-.52-.46-.85.01-.39-.35-.94.15-1.17.19-.4.62-.39.94-.59.31-.64,1.18-.71,1.52-1.3.04-.61.88-.3,1.18-.72.35-.4.76-.06,1.17-.09.07-.25-.64-.21-.75-.58-.54.16-1.02.09-.38-.39.43-.18.93.09,1.22.33.03-.89.53-.49.7.09-.09.38-.1.85.17,1.16,0-.28-.17-.71,0-1.08.19-.43.07-1.04.52-1.31.17.4.19.99.4,1.44.17.42.4,1.14-.17,1.36-.29.1.6.16.49.31.26.24.2.63.18.95.13-.49.05-1.31.33-.41.2.24-.23,1.16.14.63-.12-.83.13-.7.38-.1.16.55.4,1.14.23,1.71.36-.22.02-1.02-.07-1.41-.1-.6.33.1.32.34.11.3.03-.52.28.23.34.87.59,1.77.6,2.71.09,1.05-.23,2.08-.62,3.05.15,0,.45-.93.26-.17-.04.13-.31.82-.14.54.62-1.39.78-2.98.52-4.48-.24-1.21-.7-2.36-1.46-3.32-.19-.38-.54-.63-.84-.89-.18-.52.64-.2,1.01-.19.57.06.45.66-.1.44-.59-.11.34.25.55.14.35.03.86.46.5.79-.54-.48-.24.04.07.29.3.14.84.12.89.54-.49-.16-1.17-.07-.32.02.41.04.74.74.15.38-.43-.15-1.02-.14-.23.02.33.02.94.66.33.68-.42-.21-.71-.39-.16.03.39.2.98.3,1.05.83-.3.07-1.32-.59-.79-.12.44.15,1.06.31,1.01.91.14.65-.37.74-.25.02-.1-.51-.71-.36-1-.67.21.41,1.05.37.85,1-.14.59-.98-.77-.45.11.39.25.9.34,1.1.82.39.26-.31,1.47-.19.98.25-.46-.07-1.13-.59-1.18.22.19.64.51.48.82-.28-.29-.76-.27-.85-.73-.2-.13.22.69.58.67.55.64-.68.55-.64-.06-.25-.13.17.65.45.64.71.17.78,1.05.55,1.61-.03.09.18.12,0,.2h0Z"/>
        <path class="cls-2" d="m51.07,32.96c.11,0,.22.04.31.1.05.04.07.1.1.16.03.05.03.1,0,.15-.01.04-.04.08-.09.09-.05.02-.1.03-.16.03-.13,0-.26,0-.4,0-.06-.01-.13,0-.19-.02-.07-.03-.15-.05-.23-.08-.03-.01-.06-.04-.09-.06-.02-.05-.01-.11.02-.16.03-.06.09-.09.15-.12.04-.02.09-.03.14-.02.08,0,.16-.01.24-.05.05-.02.11-.04.16-.03h0Z"/>
        <path class="cls-2" d="m40.96,11.61s.07,0,.09.02c.04.06.03.13.03.2.02.08,0,.17-.05.24-.03.05-.06.11-.1.16-.04.02-.08,0-.12,0-.06-.02-.09-.08-.09-.14,0-.07-.01-.14.02-.21.02-.04.03-.08.05-.11.02-.02.04-.04.06-.06.02-.02.03-.05.06-.07"/>
        <path class="cls-2" d="m37.87,17.81c-.02.08-.08.14-.13.2-.04.05-.1.09-.14.14-.04.06-.1.11-.16.14-.07.04-.15.06-.23.07-.05,0-.1,0-.14-.03-.02-.01-.03-.03-.05-.04-.01-.04.03-.06.07-.06.05,0,.11,0,.16,0,.04,0,.08-.02.13-.02.03,0,.07,0,.09-.04.03-.04.06-.08.09-.13.07-.05.09-.14.17-.18.05-.03.1-.04.16-.04"/>
        <path class="cls-2" d="m30.82,26.47c.09-.04.18-.1.25-.18.16-.13.3-.28.48-.37.12-.12.26-.22.38-.35.22-.19.41-.41.59-.64.17-.21.35-.41.51-.62.07-.11.19-.2.25-.32.05-.15.16-.26.19-.41.08-.12.16-.27.3-.32.15-.05.31-.09.46-.02.25.08.5.08.74.02.17-.03.39-.07.52.09.1.04.09.17.18.22.1.14.2.29.38.32.27.12.56.18.82.33.22.12.51.16.67.38.14.08.11.28.13.42,0,.2,0,.41-.09.59-.17.04-.14.22-.23.34-.25.05.12-.33-.18-.22-.15.17-.35.32-.59.31-.01.19.22.19.25.37.05.11.13.21.23.27.1.05.29.04.28.19-.08.08-.3.02-.38-.08-.17-.15-.36-.29-.52-.45-.07-.09-.11-.21-.21-.28-.19-.17-.37-.36-.49-.58-.04-.1-.14-.16-.18-.27-.06-.09-.12-.17-.17-.26-.16-.18-.37-.29-.6-.36-.15-.06-.31-.08-.46-.09-.25,0-.45.16-.65.28-.14.18-.24.39-.33.6-.12.3-.25.6-.41.89-.08.08-.16.16-.21.27-.09.15-.24.19-.34.04-.12-.09-.28-.08-.42-.07-.11.09-.25.18-.31.32-.14.25-.19.57-.08.83.1.11.32-.07.4.11.06.1.19.13.24.23.18.25.16.58.1.87,0,.28-.1.55-.16.82-.07.15-.1.33-.18.47-.09.16-.27.03-.39-.02-.12-.08-.25-.13-.36-.23-.09-.04-.16-.11-.24-.18-.09-.01-.28-.15-.13-.23.13-.04.24-.13.32-.23.12-.2.19-.45.29-.67.02-.12.12-.19.16-.3.07-.1.16-.19.28-.26-.1-.17-.33.14-.44.26-.12.24-.22.49-.31.74-.07.11-.19.18-.27.27-.03.25-.43.23-.31-.01.22-.09-.02-.34,0-.5.04-.29.05-.58.05-.87,0-.2-.03-.41-.13-.59-.02-.13-.03-.28.08-.37.05-.15.05-.34.19-.45,0-.04.04-.05.06-.07"/>
        <path class="cls-2" d="m56.35,39.36c-.09,0-.18.04-.27,0-.11-.03-.17-.14-.28-.18-.11-.11-.12-.3-.05-.43.01-.18,0-.35,0-.54-.05-.27-.12-.53-.17-.8-.08-.21-.17-.42-.21-.64-.09-.19-.14-.4-.23-.6-.03-.09-.2-.24-.06-.3.13,0,.29-.12.38,0,.07.03.14.09.2.14.11.06.2.16.25.28.06.08.09.2.21.18.17.03.13.25.2.38.03.16.13.04.09-.07-.04-.17-.14-.35-.09-.53.08-.19.3-.08.29.11.09.29.15.6.19.9.08.22.11.47.21.68.07.11.09.26.2.35.1.12.14.28.25.4.07.2.11.42.15.64,0,.13-.08.22-.16.32-.15.04-.28.16-.44.09-.14.04-.24-.24-.34-.03-.1.17.02.38-.09.55-.08.08-.08.21-.17.29-.02.11-.15.15-.18.27-.04.13-.09.26-.12.4-.05.1-.33-.05-.27.11.12.04.26.07.32.2.16.18.01.37-.17.22-.33-.12-.69-.15-1.03-.11-.12.04-.57-.13-.4.04.29.13.6-.01.89.05.14,0,.29,0,.4.1.15.06.28.16.37.29.04.1.09.22-.02.3-.13.1-.23.25-.39.29-.19.09-.4.15-.6.21-.25.08-.52.11-.78.15-.2.02-.4.05-.6.03-.12-.04-.43.08-.36-.15.02-.28.16-.54.31-.78.07-.11.14-.23.19-.36.05-.1.02-.23.12-.31.05-.15-.02-.37.15-.46.16-.03.28-.15.43-.22.07-.06.14-.1.21-.16.14-.09.17-.26.27-.39.11-.2.24-.39.35-.59.05-.08.09-.15.16-.22.16-.17.13.12.11.24.14.04.2-.06.3-.12.12-.04.27-.11.28-.25"/>
        <path class="cls-2" d="m45.74,22.54s.05.04.07.06c.03.02.05.04.08.06.03.03.05.05.08.08.01.01.02.03.03.04.01.02.02.04.02.06,0,.03.02.05.03.07.02.04.02.09,0,.14,0,.03-.01.05-.02.08,0,.01-.01.02-.01,0-.02-.1-.06-.19-.1-.28-.05-.11-.12-.21-.18-.32h0Z"/>
      </g>
      <g>
        <path class="cls-1" d="m42.37,12.34c-.08,0-.1.09-.11.15-.03.17.02.35-.03.52,0,.07-.04.12-.06.18-.01.07-.04.15-.05.22-.01.07,0,.14.03.2,0,.04.03.08.06.1.02.02.04.03.06.05.08.02.08-.08.06-.13,0-.07-.03-.13-.02-.2,0-.07.1-.09.12-.02.05.07.06.17.03.26-.03.04-.06.08-.08.13-.04.06.02.17.1.12.06-.05.11-.1.14-.17.04-.08.06-.17.03-.25-.01-.06-.03-.12-.05-.18-.01-.06-.06-.11-.08-.17-.04-.04-.05-.08-.07-.13-.02-.05-.04-.1-.05-.16-.03-.06-.03-.12-.04-.19,0-.07,0-.14,0-.21.01-.04.02-.08,0-.12h0Z"/>
        <path class="cls-1" d="m39.97,13.98c-.07.02-.14.02-.21.05-.06,0-.12.01-.18.04-.08.02-.16.06-.23.1-.08.05-.12.14-.15.23-.03.07.07.11.09.04.02-.06.05-.11.09-.16.03-.04.07-.08.12-.11.05-.02.1-.05.15-.04.07,0,.14-.01.2-.04.06-.02.13-.02.2-.01.06.01.13,0,.19.04.08.02.14.07.19.13.05.03.1.09.11.15-.01.06.07.13.1.05.04-.07.02-.16-.05-.2-.05-.03-.09-.06-.12-.1-.05-.02-.09-.07-.15-.09-.06-.02-.12,0-.17-.04-.06,0-.13,0-.19-.01h0s0,0,0,0Z"/>
        <path class="cls-1" d="m41.37,14.03s-.08.05-.09.1c-.03.07-.04.14-.06.2,0,.03-.02.06-.03.09-.04.02-.03.06-.05.09-.02.02-.03.06-.06.08-.03.03-.06.07-.1.08-.03.02-.06.04-.08.07-.01.04,0,.09.05.08.05,0,.09-.03.13-.05.03,0,.05-.03.08-.05.04-.02.06-.05.08-.08.02-.02.04-.05.05-.08.01-.02.02-.04.03-.07,0-.02,0-.06.02-.09,0-.03.01-.06,0-.1,0-.08.02-.17.05-.24,0-.02-.01-.04-.03-.04h0Z"/>
        <path class="cls-1" d="m39.72,14.26c-.06.02-.13.03-.19.06-.07.03-.13.09-.17.15-.05.03-.06.09-.09.14-.03.05-.07.09-.1.14-.05.06.04.14.09.09.05-.04.11-.06.15-.11.04-.04.06-.1.09-.15.03-.04.07-.09.12-.12.05-.02.13-.03.16.03.02.07-.03.13-.08.17-.07.03-.07.11,0,.14.05.05.12.05.19.04.07-.02.1-.1.17-.1.04-.01.06.03.09.05.03.03.07.06.1.09.08,0,.15.04.22.06.06,0,.14-.02.18-.07.04-.06-.04-.09-.09-.07-.04,0-.1.02-.14,0-.05-.02-.1-.05-.15-.07-.05-.07-.1-.14-.13-.22-.04-.06-.09-.11-.15-.15-.08-.05-.18-.07-.28-.07h0Z"/>
        <path class="cls-1" d="m39.49,14.89s-.01.05,0,.07c.02.05.07.07.11.09.04.01.08.03.12.03.05,0,.1-.01.15-.02.03,0,.05-.02.08-.02.03,0,.07-.03.08-.06,0-.02,0-.03-.01-.05-.04,0-.09.01-.12.04-.02.01-.04.02-.07.02-.03,0-.07.01-.1,0-.03,0-.07-.02-.1-.02-.01-.01-.04-.01-.04-.04-.01-.02-.03-.03-.06-.04-.02,0-.03,0-.05,0h0Z"/>
        <path class="cls-1" d="m38.39,15.08c-.07.05-.15.08-.22.11-.08.08-.18.13-.27.19-.1.06-.19.13-.26.22-.08.07-.15.13-.19.23-.07.11-.04.24-.06.36-.02.16-.08.32-.21.42-.09.09-.21.12-.3.21-.06.02-.12.16-.01.14.15-.07.29-.16.43-.25.06-.05.08-.13.15-.18.05-.07.08-.15.1-.23.01-.11-.03-.22-.03-.33.01-.1.08-.19.15-.26.12-.13.27-.22.41-.32.08-.05.15-.12.22-.17.05-.01.21-.1.1-.13h-.01s0,0,0,0h0Z"/>
        <path class="cls-1" d="m36.95,15.9c-.06,0-.12.04-.18.04-.03.04-.09.05-.13.08-.03.05-.08.09-.12.14-.05.04-.1.08-.15.12-.06.03-.09.09-.11.15-.01.05-.01.11.02.14.04.02.07-.03.1-.06.03-.04.07-.08.12-.06.05.02.08.06.13.06.06.03-.03.09-.05.12-.02.05-.07.07-.09.11-.04.04-.09.11-.04.16.06.01.08-.07.12-.1.04-.06.1-.1.15-.14.05-.02.1-.05.14-.09.04-.03.09-.05.13-.08.04-.03.07-.07.11-.1.03-.05.06-.11.08-.16,0-.06,0-.13-.03-.18-.04-.07-.1-.13-.18-.14h0s0,0,0,0h0Z"/>
        <path class="cls-1" d="m40.2,16.11s-.07.09-.07.17c0,.09.03.16.07.28s.08.28.05.41c-.04.14-.16.24-.3.32-.14.07-.3.12-.34.16-.03.04.06.09.16.07.11-.01.22-.07.34-.17.12-.1.25-.22.3-.37.05-.15.02-.32-.02-.5-.04-.17-.11-.33-.16-.36,0,0-.01,0-.02,0h0Z"/>
        <path class="cls-1" d="m41.95,16.16s-.05,0-.07.02c-.05.05-.03.15-.03.24,0,.09-.03.15-.08.25-.06.1-.14.22-.12.24.02.01.15-.07.25-.22.09-.15.17-.34.15-.45-.01-.06-.06-.09-.1-.09h0Z"/>
        <path class="cls-1" d="m42.32,16.17s-.06.04-.08.1c-.04.09-.06.23-.08.36-.02.14-.06.28-.12.35-.06.07-.15.07-.22.09-.08.02-.14.04-.16.09-.02.04.02.13.1.14.08,0,.22-.06.33-.17.11-.12.18-.3.23-.48.04-.19.06-.37.04-.43,0-.03-.02-.04-.04-.03h0Z"/>
        <path class="cls-1" d="m44.7,17.6s-.05.02-.06.06c-.04.07-.05.19-.08.3-.03.11-.09.21-.17.36-.07.14-.17.32-.18.38-.02.06.05,0,.11-.06.06-.07.12-.16.17-.23.04-.07.09-.13.13-.18.04-.06.07-.11.11-.23.03-.11.06-.28.04-.35,0-.04-.03-.06-.06-.05Z"/>
        <path class="cls-1" d="m41.98,18.24s-.07.03-.11.05c-.08.05-.14.11-.2.17-.06.07-.12.13-.22.22-.1.09-.24.22-.26.28-.02.06.08.05.17.02.09-.04.17-.13.25-.2.09-.09.18-.17.26-.27.09-.1.17-.21.16-.25,0-.02-.02-.03-.06-.02h0Z"/>
        <path class="cls-1" d="m44.83,18.31s-.05.13-.09.25c-.04.13-.11.28-.18.45-.07.17-.16.37-.14.39.02.01.16-.16.27-.34.12-.18.21-.37.22-.52.02-.15-.05-.24-.09-.24h0Z"/>
        <path class="cls-1" d="m41.72,18.92s-.1.07-.19.14c-.11.08-.24.19-.25.24,0,.05.12.05.23,0,.12-.04.2-.13.24-.22.04-.08.02-.16-.01-.17,0,0,0,0-.01,0h0Z"/>
        <path class="cls-1" d="m44.96,19.16s-.06.02-.09.06c-.06.08-.1.22-.15.35-.06.14-.12.26-.16.35-.04.1-.07.17-.03.19.03.02.11,0,.16-.06.06-.06.08-.16.13-.32.06-.16.16-.39.17-.5,0-.05,0-.08-.03-.08h0Z"/>
        <path class="cls-1" d="m45.09,19.83s-.07.02-.1.05c-.04.06-.04.17-.06.26-.02.09-.06.17-.16.33-.09.15-.23.39-.25.5-.02.11.07.08.15,0,.07-.07.12-.18.17-.29.05-.11.11-.22.17-.36.06-.15.14-.34.13-.43,0-.05-.03-.07-.06-.07h0Z"/>
        <path class="cls-1" d="m40.4,21.41c-.06,0-.21.05-.35.12-.14.08-.26.19-.28.26-.02.07.04.1.13.07.09-.02.19-.11.31-.21.11-.1.23-.2.2-.23,0,0,0,0-.02,0h0Z"/>
        <path class="cls-1" d="m40.54,21.69s-.08,0-.14.02c-.11.04-.21.11-.33.2-.11.08-.22.17-.31.25-.09.09-.16.16-.22.25h0c-.06.1-.11.22-.15.32-.04.1-.08.17-.05.2.02.02.11,0,.17-.06.04-.06.06-.15.09-.22.03-.08.07-.15.15-.23.07-.08.18-.18.34-.31.17-.13.4-.3.47-.37.03-.04.02-.06-.01-.07h0Z"/>
        <path class="cls-1" d="m58.58,22.53s-.08.02-.09.05c-.03.05,0,.13.11.17.11.05.3.07.43.09.14.01.2.03.25.04.04,0,.07,0,.09,0-.2-.15-.43-.27-.59-.32-.08-.02-.14-.03-.19-.02h0Z"/>
        <path class="cls-1" d="m58.35,22.99c-.15,0-.28.01-.34.06-.06.05-.03.14.02.17.06.02.14-.02.24-.05.1-.02.22-.02.32,0,.1.01.18.05.27.08.09.02.18.04.26.09.07.04.13.11.16.1.02-.01.02-.11-.01-.17-.04-.07-.12-.11-.19-.16-.09-.04-.17-.08-.29-.1-.12-.02-.28-.01-.43-.01h0Z"/>
        <path class="cls-1" d="m60.23,23.12s-.02,0-.02.01c-.02.02,0,.07.06.11.06.05.17.09.27.14.09.05.17.11.27.18.09.07.2.14.24.13.03-.01,0-.1-.06-.16-.05-.06-.12-.1-.17-.15-.06-.04-.12-.09-.2-.14-.07-.04-.18-.07-.26-.09-.06-.02-.11-.04-.13-.03h0Z"/>
        <path class="cls-1" d="m60.15,23.51c-.1,0-.13.06-.1.1.02.05.14.07.23.1.09.02.17.07.27.14.09.08.21.19.3.22.08.02.14-.02.11-.09-.02-.07-.11-.16-.27-.25-.15-.1-.36-.21-.49-.23-.02,0-.03,0-.05,0h0Z"/>
        <path class="cls-1" d="m59.87,23.81c-.1,0-.11.08-.07.11.04.04.15.04.22.07.09.03.16.08.23.13.09.06.18.13.27.15.09.02.18,0,.18-.04,0-.04-.08-.09-.16-.15-.07-.06-.14-.12-.27-.17-.12-.06-.31-.11-.41-.11h0Z"/>
        <path class="cls-1" d="m40.34,23.83s-.05,0-.07,0c-.09.02-.17.06-.24.1-.08.05-.14.11-.23.2-.09.09-.2.22-.28.36-.09.14-.17.3-.16.37,0,.07.07.05.12,0,.05-.05.06-.13.09-.2s.06-.12.17-.22c.11-.1.28-.24.43-.35.15-.11.29-.18.3-.22,0-.03-.05-.05-.11-.05h0Z"/>
        <path class="cls-1" d="m45.36,24.05c-.05,0-.09.05-.1.11-.01.08.03.19.08.33.05.14.09.32.14.44.04.11.09.18.11.23.02-.25.02-.5,0-.69-.04-.22-.11-.36-.17-.4-.02-.01-.04-.02-.05-.02h0Z"/>
        <path class="cls-1" d="m45.59,25.16s-.01.1-.02.15h0s.05-.07.02-.13c0,0,0-.01-.01-.02h0Z"/>
        <path class="cls-1" d="m45.91,24.28s-.03,0-.05.01c-.05.03-.02.1.02.22.02.11.06.27.06.43-.01.15-.05.3-.05.4.01.11.08.15.12.12.04-.02.04-.12.06-.2.01-.08.03-.16.04-.32.02-.16.03-.4-.01-.53-.04-.09-.12-.13-.18-.12h0Z"/>
        <path class="cls-1" d="m46.42,24.62s-.05.01-.06.03c-.03.05,0,.17,0,.32,0,.16-.02.34.02.41.04.06.12-.02.17-.1.05-.07.05-.17.05-.28,0-.11,0-.23-.05-.31-.03-.05-.08-.07-.12-.07h0Z"/>
        <path class="cls-1" d="m40.04,24.64s-.04,0-.06,0c-.09.02-.19.09-.28.17s-.19.15-.29.28c-.1.13-.19.31-.21.4-.01.09.05.08.1.03.05-.04.07-.12.14-.2.06-.09.14-.19.24-.27.1-.09.2-.15.3-.2.09-.06.17-.11.17-.15,0-.03-.04-.05-.1-.05h0Z"/>
        <path class="cls-1" d="m46.86,24.88s-.08.05-.1.12c-.02.09-.03.22-.01.32,0,.1.02.18.06.16.02,0,.07-.11.09-.24.02-.12.02-.29,0-.34,0-.01-.02-.02-.03-.02h0Z"/>
        <path class="cls-1" d="m43.94,25.36s-.06.02-.1.05c-.04.04-.09.11-.16.28-.08.17-.19.46-.34.71-.16.25-.37.47-.53.63-.16.16-.28.26-.3.31,0,.05.09.05.18,0,.11-.05.21-.14.35-.28.14-.14.32-.32.47-.54.15-.21.27-.46.34-.63.07-.17.1-.26.11-.35.01-.08.02-.16,0-.17,0,0-.02,0-.02-.01h0Z"/>
        <path class="cls-1" d="m43.94,26.28s-.05.04-.08.09c-.04.07-.09.15-.14.25-.05.09-.1.19-.18.28-.07.09-.17.19-.3.31-.12.12-.27.25-.42.37-.15.13-.33.25-.42.32-.09.07-.11.09-.11.12.31-.13.61-.3.84-.46.23-.18.4-.36.55-.54.14-.17.27-.35.31-.49.04-.14,0-.23-.02-.25,0,0-.02,0-.02,0h0Z"/>
        <path class="cls-1" d="m43.91,27.09s-.13.07-.19.16c-.06.09-.09.2-.14.3-.06.11-.13.2-.19.27-.06.07-.12.14-.2.2-.09.08-.19.16-.19.21,0,.05.11.05.21,0,.1-.05.18-.14.26-.24.07-.1.15-.2.23-.29.07-.1.15-.2.2-.32.05-.12.07-.25.03-.28,0,0,0,0-.01,0h0Z"/>
        <path class="cls-1" d="m34.34,27.18s-.13.14-.22.27c-.09.14-.16.26-.12.33.04.07.19.06.33,0,.14-.07.25-.2.26-.24.02-.05-.08-.01-.15-.01-.06,0-.11-.04-.11-.12,0-.08.03-.22,0-.22h0Z"/>
        <path class="cls-1" d="m55.16,27.85s0,0-.01,0c-.04.01-.04.1,0,.19.04.08.11.17.18.26.07.09.16.18.22.34.06.17.11.41.13.61.02.2.01.36.01.48,0,.14,0,.24.03.28s.09.05.12.01.06-.11.07-.19c.01-.09,0-.18,0-.31,0-.14,0-.3-.08-.55-.07-.24-.21-.56-.31-.74-.11-.19-.17-.24-.23-.29-.06-.05-.11-.1-.14-.1h0Z"/>
        <path class="cls-1" d="m42.85,28.33s-.07,0-.11.03c-.08.04-.16.13-.15.18.01.04.1.02.18-.02.08-.04.15-.11.14-.15,0-.02-.03-.03-.06-.03h0Z"/>
        <path class="cls-1" d="m54.94,29.19s-.08.02-.1.05c-.05.06-.05.15-.03.3,0,.14.02.33,0,.44-.02.11-.08.15-.12.23-.05.07-.09.19-.07.23.03.04.12.02.17-.04.05-.06.07-.14.11-.28.04-.14.11-.32.14-.49.03-.17.04-.32,0-.39-.02-.04-.06-.05-.09-.05h0Z"/>
        <path class="cls-1" d="m37.6,29.4c-.12.04.09.17.12.22.13.07.21.19.34.27.12.04.22.11.32.18.15.06.31.06.43.18.11.05.23,0,.35.04.19.04.39.03.56.12.13.05.22.16.33.23.09.09.24.13.37.13.13.03.28,0,.35-.12.09-.09.15-.2.21-.32.07-.13.22-.21.36-.27.11-.02.24-.25.05-.17-.09.07-.2.11-.3.17-.12.06-.22.14-.3.23-.1.14-.24.27-.41.29-.16-.02-.31-.08-.4-.21-.11-.11-.26-.21-.42-.17-.23.01-.46-.02-.67-.09-.12-.05-.25-.07-.37-.12-.13-.03-.21-.12-.33-.17-.13-.1-.25-.21-.38-.3-.06-.04-.11-.11-.19-.12h0Z"/>
        <path class="cls-1" d="m43.13,29.63s-.07.08-.1.16c-.04.09-.06.19-.07.37-.02.18-.03.45.01.59.04.14.14.13.18.09.04-.05.04-.15.03-.32,0-.17,0-.41,0-.59,0-.17,0-.29-.03-.3,0,0,0,0-.01,0h0Z"/>
        <path class="cls-1" d="m55.22,29.79s-.06.06-.08.14c-.02.09-.05.18-.07.28-.02.09-.04.18-.1.31-.06.12-.15.29-.22.4-.08.12-.14.19-.12.21.01.02.1-.01.16-.06.07-.06.11-.13.16-.2.05-.08.09-.16.16-.27.07-.13.16-.3.19-.45.02-.16-.01-.3-.05-.34,0,0,0,0-.01,0h0Z"/>
        <path class="cls-1" d="m43.61,29.8s-.13.11-.16.28c-.05.19-.05.44,0,.6h0c.04.17.12.25.18.27.06,0,.09-.07.09-.14s-.03-.13-.05-.2c-.02-.07-.03-.17-.02-.33,0-.17.03-.42-.02-.47,0,0-.01-.01-.02-.01h0Z"/>
        <path class="cls-1" d="m44.09,29.95s-.07.04-.1.07c-.04.04-.06.08-.07.13-.02.04-.02.1-.02.23s0,.3.05.42c.03.12.09.17.14.15.04,0,.09-.07.1-.14,0-.07-.03-.14-.06-.23-.03-.09-.07-.19-.06-.32,0-.12.05-.25.05-.29,0-.01-.01-.02-.02-.02h0Z"/>
        <path class="cls-1" d="m44.52,30.34s-.05.05-.06.12c0,.09,0,.2.03.31.04.1.08.19.12.19.04,0,.08-.08.08-.15s-.04-.15-.08-.24c-.03-.09-.06-.2-.09-.23,0,0,0,0-.01,0h0Z"/>
        <path class="cls-1" d="m55.48,30.49s-.09.02-.12.05c-.04.04-.05.11-.07.19,0,.07-.01.16.02.18.03.03.09-.02.13-.07.04-.06.07-.11.08-.17.01-.07.02-.14-.01-.16,0,0-.02,0-.03-.01h0Z"/>
        <path class="cls-1" d="m55.91,30.5s-.06.07-.05.14c0,.07.04.16.07.26.04.11.07.24.06.45,0,.21-.04.5-.11.69-.07.19-.16.29-.25.4-.08.11-.16.22-.15.28,0,.05.09.05.16,0,.06-.05.11-.14.19-.31.09-.16.23-.38.3-.66.07-.28.06-.6.01-.83-.05-.23-.16-.38-.22-.41,0,0-.01,0-.02,0h0Z"/>
        <path class="cls-1" d="m55.24,31.09s-.07.03-.1.07c-.06.06-.08.15-.14.23-.06.08-.14.16-.15.21,0,.06.07.07.12.05.06-.03.09-.1.16-.22.06-.11.14-.27.14-.32,0-.02,0-.03-.02-.03h0Z"/>
        <path class="cls-1" d="m55.66,31.21c-.15.24-.33.47-.48.66-.15.18-.29.3-.33.39-.04.09.01.14.07.12.06-.01.12-.09.19-.17.07-.08.15-.15.22-.26.07-.11.14-.25.19-.36s.1-.2.11-.26c.03-.06.03-.08.02-.1Z"/>
        <path class="cls-1" d="m54.73,31.74c-.06,0-.12.08-.1.13.02.04.12.04.16,0,.03-.05,0-.13-.05-.13h0Z"/>
        <path class="cls-1" d="m56.19,32.19s-.01,0-.02.01c-.04.03-.04.14-.07.23-.02.09-.06.18-.14.3-.08.12-.2.28-.24.39-.03.1.02.16.1.07.09-.09.22-.3.32-.48.09-.19.15-.32.14-.42,0-.08-.06-.11-.11-.1h0Z"/>
        <path class="cls-1" d="m54.39,32.65c-.22,0-.58.18-.82.2-.56.06-1.06-.22-1.52-.19-.06,0-.1.08-.09.11,0,.02.06.03.12.05.06,0,.15.06.25.09.37.11.72.22,1.11.22.25,0,.92-.18,1.06-.41.03-.05-.05-.06-.1-.06h0Z"/>
        <path class="cls-1" d="m34.86,33.08c-.07.08-.1.18-.15.27-.03.08-.06.17-.05.26-.01.09-.02.17-.02.26,0,.07-.01.15-.02.22-.02.07-.03.15-.08.21-.07.11-.16.21-.25.29-.05.03-.08.18.01.13.06-.05.11-.1.16-.15.05-.05.11-.1.17-.15.05-.11.11-.22.13-.34,0-.12.03-.24.04-.36,0-.06,0-.13.01-.19.03-.1.04-.21.1-.31.01-.05.07-.12,0-.15-.01,0-.03,0-.05,0h0Z"/>
        <path class="cls-1" d="m54.7,33.09c-.06-.01-.14.04-.23.08-.09.05-.19.09-.31.11-.12.02-.27.02-.38,0-.12-.02-.2-.06-.25-.04-.05.02-.06.09-.06.12,0,.04.01.04.07.06.06.01.18.04.27.05.09.01.15.01.31-.02.17-.04.43-.12.55-.19.11-.08.09-.16.02-.17Z"/>
        <path class="cls-1" d="m56.65,33.55c-.08,0-.14.05-.12.11.02.07.2.19.33.31.14.11.25.2.28.2.04,0,.02-.09-.02-.16-.04-.07-.09-.14-.15-.22-.06-.08-.14-.19-.24-.23-.02,0-.05,0-.08,0h0Z"/>
        <path class="cls-1" d="m31.17,27.01h.04s.03.07.01.1c-.02.05-.08.08-.11.12-.05.06-.1.13-.17.17-.08.05-.17.07-.26.06-.04,0-.07-.06-.05-.09.02-.03.06-.04.1-.03.03,0,.06,0,.09,0,.05-.01.09-.03.13-.06.03-.03.05-.06.09-.09.03-.03.05-.06.08-.09.02-.03.03-.05.05-.08"/>
        <path class="cls-1" d="m34.05,23.75c-.19.06-.3.19-.31.26s.08.06.19.02c.11-.02.24-.07.43-.06.2.02.48.1.63.11.15,0,.18-.07.2-.19.02-.11.03-.25-.04-.28-.07-.03-.25.06-.45.08-.2.03-.46,0-.64.05h0Z"/>
        <path class="cls-1" d="m36.59,25.06c.07-.02.14-.06.22-.12.07-.05.16-.12.15-.15-.01-.02-.12-.02-.2,0-.09.03-.15.09-.22.14-.06.06-.13.11-.12.13.01.02.1.02.18,0h0Z"/>
        <path class="cls-1" d="m36.71,25.44c.07-.01.16-.06.26-.11.1-.05.2-.09.22-.14.02-.05-.06-.11-.12-.09-.08,0-.16.08-.25.14-.09.06-.19.11-.23.12t-.02.04s.07.05.14.04h0Z"/>
      </g>
      <path class="cls-2" d="m36.75,16.48s.05-.05.06-.08c.01-.02.01-.05.03-.06.02,0,.02-.03.03-.04,0-.02.01-.05.02-.07,0-.02.01-.05.01-.07,0-.02.01-.04.03-.06.01-.02.04-.02.06-.01.04.02.05.07.05.11,0,.03,0,.06-.02.09-.02.01-.04.02-.05.05-.05.06-.1.12-.18.14-.02,0-.04,0-.06,0"/>
    </g>
  </g>
</svg>