<?xml version="1.0" encoding="UTF-8"?>
<svg id="Ebene_2" data-name="Ebene 2" xmlns="http://www.w3.org/2000/svg" viewBox="0 0 100 60">
  <defs>
    <style>
      .cls-1 {
        fill: #010101;
      }

      .cls-2 {
        fill: #fff;
      }

      .cls-3 {
        fill: #ffce05;
      }

      .cls-4 {
        fill: #dd0c15;
      }
    </style>
  </defs>
  <g id="Ebene_1-2" data-name="Ebene 1">
    <g id="rp-flag-coa.svg.svg">
      <rect id="black_stripe" data-name="black stripe" class="cls-1" width="100" height="60"/>
      <rect id="red_stripe" data-name="red stripe" class="cls-4" y="20" width="100" height="40"/>
      <rect id="gold_stripe" data-name="gold stripe" class="cls-3" y="40" width="100" height="20"/>
      <g id="g3642">
        <path id="path3644" class="cls-1" d="m14.18,2.8c.14.15.28.33.36.5.23-.04.48.04.59.24.06.13-.12.04-.16.1-.11.04-.23.11-.26.23-.03.11.02.18.11.24.07.04.15,0,.22-.02.14-.08.21-.21.26-.35.12-.01.23.09.28.19.05.11.06.26,0,.37.01.06.11.1.14.16.1.14.3.29.18.47-.1.18-.3.33-.44.48,0,.13.07.26-.01.38-.11-.05-.23-.1-.34-.06-.08.04-.14.11-.15.19.01.1.04.19.13.25.16.12.45.11.63.01.1-.06.16-.16.18-.27,0-.06-.06-.1-.11-.14h-.18c.04-.16.18-.29.33-.31.06-.03.15,0,.23-.02.08-.23.19-.45.37-.63.14.19.25.42.29.65.03.04.08.01.11.04.09.02.17.11.19.21.01.11-.15.04-.2.11-.1.08-.1.21-.06.3.06.18.24.23.4.24.21,0,.4-.08.55-.26l.05-.13c-.02-.08-.06-.16-.14-.2-.14-.07-.28.02-.42.03-.03-.13.04-.23.12-.33-.12-.21-.26-.4-.28-.64.14-.14.32-.21.5-.26l.03-.03c.01-.16.1-.29.2-.41.08.08.18.16.3.13.07,0,.12-.07.16-.12.02-.08.04-.15,0-.22-.09-.09-.23-.11-.35-.08v-.02c.06-.18.24-.3.44-.31.08-.03.16.06.21-.05.13-.22.33-.38.54-.49.25.12.38.38.43.62.15.07.31.21.32.4v.12c-.11,0-.26-.06-.32.07-.04.05-.01.11,0,.17.04.04.09.05.13.06.09,0,.17-.08.21-.16.07-.04.11.07.16.1.04.08.04.18.03.26.18.14.38.33.4.57-.07.18-.25.32-.4.43-.02.13,0,.28-.13.35-.11-.04-.23-.1-.33,0-.1.06-.09.18-.06.27.14.25.46.24.72.21.12-.03.25-.11.29-.24v-.15c-.04-.09-.11-.14-.19-.18,0-.11.11-.21.18-.26.07-.07.19-.02.26-.11.1-.15.2-.3.37-.38.06-.01.08.03.13.05.21.18.28.43.31.69.1.08.18.21.14.35-.1.02-.22,0-.28.12-.04.13,0,.26.08.35.23.22.61.3.91.16.09-.06.18-.16.21-.26,0-.11-.08-.2-.17-.25l-.23-.08c-.06,0-.11.04-.17.02-.04-.13.09-.21.13-.33-.15-.1-.3-.25-.34-.43.11-.26.38-.4.64-.44.13-.16.25-.42.49-.42.05.1-.03.23.09.3.04.03.11.02.16,0,.05-.03.11-.08.11-.14,0-.13-.07-.24-.19-.3-.04-.02-.13-.03-.12-.09.09-.18.31-.23.49-.21l.22.04c.19-.17.33-.42.58-.47.21.13.29.38.33.6.11.05.22.16.24.28-.02.06-.08.13-.13.19-.23.34-.27.74-.26,1.16-.06.41-.4.7-.74.94-.16.14-.27.33-.26.55l.3.32c0,.1-.11.14-.16.22-.08.04-.11.13-.17.18.01.28.4.07.47.35.02.07.05.13.01.21-.05.13-.16.23-.3.27l-.03.04c0,.3-.01.64.01.92,0,1.13.02,2.34,0,3.47l.02.15c-.03.99.04,1.93,0,2.91l.02.06c0,.53-.01,1.12.01,1.64-.03.67.02,1.33,0,2-.01.89-.18,1.69-.4,2.52-.68,2.43-2.53,4.63-4.81,5.83-1.07.55-2.23.94-3.45,1.08h-.02c-.27.01-.51.08-.78.06l-.04.02c-.28-.01-.56.01-.86-.02-.55,0-1.06-.11-1.57-.21-2-.44-3.88-1.47-5.28-3.06-1.28-1.46-2.07-3.2-2.33-5.1-.08-.42-.09-.91-.09-1.38-.03-.72.01-1.45-.01-2.2.01-.04.01-.1-.01-.13.02-1.17-.02-2.28,0-3.4-.03-.15,0-.33-.01-.5.01-.92-.02-1.81,0-2.68-.03-.11-.01-.25-.02-.38,0-.46.03-.96,0-1.46-.16-.06-.32-.18-.32-.36,0-.1.06-.19.12-.25.1-.06.3-.04.27-.22l-.03-.1c-.11-.1-.21-.2-.3-.31.09-.12.24-.22.32-.35-.01-.13-.1-.25-.19-.36-.37-.19-.78-.51-.82-.96-.06-.18,0-.36.02-.52.01-.33.09-.7-.14-1-.06-.03-.12-.07-.2-.06,0-.09.05-.19.12-.27.06-.07.18-.01.21-.11.06-.17.15-.34.3-.46.2.06.35.23.48.41.07.03.11-.06.18-.06.18-.02.35.04.45.21,0,.02.03.04.02.06-.04.01-.09,0-.13,0-.12.03-.2.13-.26.23,0,.09-.02.18.04.25.04.06.11.09.16.11.14.03.24-.05.33-.13.09-.1.1-.26.06-.38.1-.03.21.04.31.08.13.07.2.21.22.33.11.08.24.1.35.16.13.08.28.2.28.36-.06.18-.16.33-.3.47.08.15.09.35-.02.49-.14-.06-.3-.16-.45-.05-.09.06-.11.16-.12.25.01.11.08.2.16.28.21.16.52.09.74,0,.12-.06.18-.2.18-.33,0-.11-.11-.2-.19-.26h-.09c.01-.18.17-.33.34-.39l.1-.03c.04-.22.07-.45.26-.59.23.07.4.29.48.51.13-.01.28.03.35.16.01.05.04.11.02.16-.07,0-.13.03-.16.11-.02.09.01.2.07.28.16.15.38.15.58.12.18-.07.4-.14.46-.35,0-.08-.06-.11-.12-.16-.15-.1-.38-.05-.52.01-.04-.05-.02-.15-.02-.22.01-.06.05-.11.03-.16-.23-.09-.45-.3-.55-.54.09-.18.25-.33.42-.43.02-.07-.02-.2.04-.27.03-.03.05-.09.11-.07.04.06.12.12.19.16.1.01.18-.02.23-.11.04-.06,0-.13-.01-.18-.09-.1-.22-.16-.35-.17-.04-.08.03-.18.08-.26.11-.11.27-.17.43-.12.07-.04.07-.13.11-.21.09-.21.2-.44.4-.58.21.08.36.3.51.46.08-.04.18-.06.27-.04.11.03.19.13.21.25-.04.04-.08-.01-.13,0-.08.03-.18.09-.18.18,0,.09.06.15.11.21.07.05.13,0,.2-.03.04-.09.13-.05.2-.02.13.08.23.23.26.38.16.06.34.09.45.25.14.19-.03.42-.13.59-.05.05-.12.11-.05.18.04.07.02.16,0,.23-.13.02-.3,0-.38.13-.07.08-.07.19-.07.29.01.1.11.16.19.22.16.06.38.04.52-.06.1-.09.23-.21.16-.38-.04-.09-.15-.18-.26-.18-.05-.03,0-.08,0-.12.08-.12.21-.15.33-.15.03-.05.03-.11.05-.16.06-.16.16-.28.26-.41h.05c.15.16.24.36.32.54.17,0,.33.02.43.16-.02.08-.1.13-.13.21-.06.11-.04.26.01.38.1.18.29.23.49.22.21-.04.47-.13.52-.37.06-.09,0-.17-.02-.26-.09-.11-.23-.21-.38-.18-.08.01-.18.06-.26.12-.04-.15.04-.26.09-.38v-.04c-.2-.11-.38-.25-.5-.46.02-.16.14-.29.28-.38l.17-.1c.04-.19.08-.38.23-.52h.04c.02.14.12.28.27.34.11,0,.19-.04.24-.13.01-.06.03-.16,0-.21-.1-.15-.27-.22-.45-.19,0-.11.11-.16.18-.23.13-.09.3-.09.45-.06.04-.05.09-.11.09-.18.1-.16.23-.35.4-.49.13-.16.26.02.37.09h0Z"/>
        <path id="path3646" class="cls-3" d="m13.95,2.84c.22.19.36.42.47.66.13-.04.24-.11.38-.06.05,0,.11.01.15.06-.05.03-.12.05-.18.08-.12.07-.27.19-.29.35.02.14.09.27.21.34.08.06.19.06.28.04.2-.06.3-.26.4-.41.05.01.07.08.09.12,0,.13-.04.24-.12.33.03.07.13.06.17.13.09.09.2.18.24.31-.07.25-.35.35-.55.45.06.1.14.21.14.31h-.01c-.16-.02-.3.03-.43.08-.17.14-.26.34-.26.54.01.21.15.38.35.45.14.06.3.02.47.02.26-.06.55-.18.65-.47.04-.16,0-.3-.09-.43l-.13-.09c.07-.09.2-.12.31-.09.04.01.07.02.11.03.06-.07.04-.17.09-.24.04-.1.08-.21.15-.3h.03c.09.16.15.34.17.52.04.04.08-.03.13,0,.06.01.13.02.14.09-.2.03-.35.26-.4.44-.04.21.06.38.21.49.28.19.7.16.99-.02.18-.13.34-.31.32-.55-.04-.17-.16-.37-.35-.4h-.25s.05-.1.11-.11c.01-.05.08-.05.11-.1-.15-.13-.28-.3-.37-.49.02-.1.16-.11.24-.17l.29-.07c.01-.06-.03-.13-.02-.21.03-.05.04-.11.08-.16.09.06.21.11.33.09.11-.01.21-.07.26-.17.09-.11.06-.25,0-.36-.06-.11-.16-.14-.26-.18.05-.06.14-.06.21-.05.06,0,.12.1.18.03.11-.2.28-.4.47-.53h.03c.14.16.2.36.2.58.13.05.33.06.4.22-.09.03-.24.01-.33.1-.05.09-.11.16-.08.28.03.09.08.16.17.21.14.09.28,0,.4-.08-.01-.01.01-.02.02-.04.05.02.03.11.02.15l-.08.08c.16.11.39.28.44.5-.13.17-.32.26-.49.35.07.09.16.14.15.26l-.02.08c-.12-.06-.34-.06-.45.02-.19.13-.28.37-.26.57.01.21.24.39.43.45.31.09.69.04.91-.2.18-.17.29-.42.2-.66-.02-.1-.1-.18-.19-.23-.01-.07.09-.11.14-.13.08-.04.18.06.23-.03.07-.13.13-.25.27-.35.04,0,.08.05.09.08.13.17.11.4.09.6.08.02.18.02.23.09,0,.06-.08.03-.11.05-.18.05-.31.21-.32.39-.01.17.07.38.23.49.07.06.16.1.22.15.16.03.31.13.51.11.1.05.19-.02.29-.02.18-.05.35-.17.44-.35.03-.15.03-.32-.06-.45-.11-.14-.27-.22-.42-.26-.04,0-.08.02-.1-.02.04-.12.16-.18.27-.23.02-.03-.02-.06-.04-.06-.16-.04-.3-.16-.39-.29,0-.09.1-.12.16-.18.14-.08.29-.13.44-.17.05-.12.11-.28.25-.3.01.07.04.14.11.19.08.05.2.08.29.03.05-.04.11-.03.15-.1h-.01c.11-.03.1-.15.12-.23.03-.16-.1-.25-.2-.34l-.07-.02.05-.05c.17-.03.31.04.45.11.15-.16.25-.36.45-.48.08-.03.07.07.1.11.09.15.03.34.05.51.05.01.09-.06.15-.06.06,0,.13,0,.14.06-.16.2-.35.41-.39.67-.08.23-.03.49-.09.73-.04.5-.57.67-.81,1.06-.09.11-.09.25-.11.38-.11.11-.25.22-.33.35.03.05.06.11.11.13.07.11.28.19.22.33-.11-.04-.26-.01-.36-.08-.54-.08-1.09-.2-1.63-.27-.51-.09-.99-.14-1.5-.21h-.02c-.46-.06-.87-.11-1.33-.16-.28,0-.53-.03-.8-.06-.49-.04-.86-.04-1.35-.06-.12-.03-.28,0-.4-.02-.55-.04-1.08,0-1.65-.03-.06.01-.16.02-.22,0-.35.03-.72,0-1.08.01-.16.03-.33,0-.5.02-.14.02-.29-.02-.42.03-.48,0-.92.04-1.38.08-.22,0-.45.04-.65.05-.09.02-.22.02-.32.04-.49.07-1.02.08-1.52.18-.23.01-.45.07-.69.1-.49.07-.98.15-1.46.24-.6.09-1.17.23-1.77.35-.03-.04,0-.11.01-.15l.33-.36v-.03s-.34-.33-.34-.33c-.09-.33-.41-.55-.69-.7-.3-.19-.39-.54-.41-.85.02-.09.02-.2.04-.3.06-.2.01-.41.04-.6-.03-.11-.04-.23-.1-.32-.05-.08-.12-.17-.19-.24.02-.05.09-.04.13-.07.04-.01.06.04.1,0,0-.17.03-.33.13-.45.22.08.33.3.45.46.13-.06.27-.18.43-.11-.08.07-.21.12-.26.23-.03.11-.09.28,0,.4.08.16.26.21.41.19.19-.01.36-.15.43-.33,0-.05.03-.09.04-.13.14.05.19.21.22.35.25.05.52.11.67.33-.04.16-.19.33-.37.35h-.17c0,.1.13.14.15.23.02.06.07.12.04.2-.21,0-.4.05-.55.23-.16.18-.18.44-.09.65.18.33.6.35.94.3.29-.06.57-.24.7-.52.05-.19,0-.39-.14-.52-.08-.09-.19-.11-.28-.15,0-.05.06-.11.11-.13.09-.02.23-.04.31.02.04,0,.01-.06.01-.08,0-.07-.04-.13-.02-.2,0-.09.04-.2.09-.28.12.06.17.18.24.29.03.08.06.18.09.26.04,0,.04-.06.09-.08.04-.04.11-.06.17-.04.04,0,.06.04.08.06-.13.07-.21.22-.23.36-.04.24.09.45.28.57.25.17.6.13.86.02.22-.08.4-.29.43-.53.02-.12,0-.24-.08-.33-.14-.21-.38-.18-.6-.18-.02-.08.06-.13.12-.16.02,0,.04-.02.05-.04-.08-.06-.2-.06-.3-.11-.16-.08-.3-.21-.39-.38,0-.1.1-.14.16-.21.08-.07.19-.1.3-.11v-.03c0-.07-.09-.14-.04-.22.13.07.33.18.48.04.11-.09.14-.23.11-.36-.1-.15-.23-.22-.38-.28,0-.06.06-.11.11-.13.11-.03.25-.03.33.04h.02c.07-.28.16-.55.34-.76.14.06.22.21.31.33l.12.21c.06,0,.06-.08.1-.11.06-.07.16-.13.26-.09,0,0,.03.02.02.04-.19.06-.32.24-.33.45,0,.08.08.16.15.21.15.06.29,0,.4-.11.16.09.23.25.23.43.11.01.23-.05.33,0,.09.04.19.08.23.17-.01.19-.16.35-.34.41l-.18.06c.06.06.14.11.18.2v.02c-.26.06-.51.28-.56.53-.04.02,0,.06-.02.09-.05.21.06.38.21.51.25.22.67.18.94.02.17-.12.35-.27.36-.5.04-.16-.05-.3-.14-.4-.04-.04-.1-.06-.15-.11.05-.09.18-.06.26-.06.04-.15.06-.31.17-.44.13.11.17.3.21.45.11-.03.29-.06.39.03-.14.15-.32.35-.25.57.02.18.16.32.3.42.37.13.87.09,1.16-.18.02-.06.09-.09.11-.16.11-.19.11-.39,0-.58-.12-.18-.31-.33-.56-.3-.04,0-.06.03-.1,0-.02-.04.04-.09.06-.14.02-.04.07-.03.08-.07-.05-.06-.16-.05-.23-.09-.13-.08-.29-.18-.36-.33.04-.21.27-.3.44-.35,0-.05,0-.12,0-.18.02-.06.02-.12.06-.17.05.01.08.09.13.13.14.09.34.18.5.06.09-.07.18-.16.18-.29,0-.24-.23-.4-.41-.48.11-.08.29-.07.41,0,.08-.06.07-.18.13-.26.09-.16.19-.33.35-.45h.03,0Z"/>
        <path id="path3648" class="cls-1" d="m14.04,3.88c.13.5-.05,1.01.04,1.51h.02c.19-.32.47-.66.86-.71.06-.03.11,0,.16.01.01.04-.04.06-.06.1-.39.03-.76.34-.9.69-.05.14-.12.29-.08.45-.01.04-.06.04-.1.03-.05-.06.02-.1,0-.17-.02-.3-.21-.58-.49-.73-.2-.11-.45-.14-.64-.27,0-.03-.04-.05,0-.08.16,0,.33.06.49.13.24.09.45.28.61.48.01-.09.03-.16,0-.25-.01-.21.04-.42.04-.65,0-.22,0-.49,0-.67.06.02.06.09.08.13h0Z"/>
        <path id="path3650" class="cls-1" d="m19.05,4.11c-.01.5-.15.96-.22,1.46h0c.21-.19.43-.4.7-.46.08.03.16-.06.22.01-.1.15-.31.08-.45.17l-.2.14c-.07,0-.06.09-.13.13-.04.04-.1.09-.12.16-.08.08-.16.2-.13.3-.04.09.03.23-.07.27-.16-.02-.01-.18-.04-.28.07-.18-.06-.32-.11-.47-.12-.21-.33-.35-.52-.48-.03,0-.05-.01-.06-.04.06-.09.16-.01.23.01.22.15.4.35.5.59.06-.03.04-.13.06-.2.02-.13.06-.25.06-.4.04-.05.01-.14.03-.19,0-.09.03-.18.04-.27.04-.17.1-.33.15-.5.03-.01.01.03.04.04h0Z"/>
        <path id="path3652" class="cls-1" d="m8.96,4.54c.06.31.15.6.18.92.03.05.01.12.05.17.06-.06.06-.14.11-.2.14-.28.41-.48.7-.57.04.04.01.08,0,.13-.11.11-.28.11-.39.21-.31.29-.39.71-.35,1.12.02.03-.03.06-.06.07-.03,0-.06-.03-.07-.06,0-.21-.06-.43-.22-.59-.22-.28-.57-.35-.89-.42-.07-.02-.08-.09-.09-.15.06-.01.11.04.17.06.37,0,.69.15.92.43.03-.04.02-.11,0-.15-.04-.47-.23-.86-.18-1.3.02-.01.04.01.06.03.03.1.06.21.06.31h0Z"/>
        <path id="path3654" class="cls-1" d="m3.65,4.9c.28.27.16.71.16,1.06.04.13.09.26.2.35.16-.25.28-.57.58-.69.13-.04.3-.1.44-.04.02.02,0,.06-.02.08-.06.07-.16.04-.24.07-.28.07-.52.32-.61.58-.06.13.08.19.13.28.09.14.2.29.2.46-.04.02-.07,0-.11,0h-.03c-.05-.42-.56-.57-.65-.97-.05-.33.06-.69-.08-.99,0-.07-.06-.14,0-.2h.02Z"/>
        <path id="path3656" class="cls-1" d="m24.31,4.98c-.3.35-.14.8-.34,1.19-.14.35-.54.53-.72.86,0,.06-.06.06-.09.09-.08-.06,0-.16,0-.22.04-.15.22-.23.29-.37.06-.3-.07-.62-.35-.79-.05-.06-.09-.12-.09-.19.01-.03,0-.06.03-.08.19.22.46.4.52.71.04.08,0,.16.03.25.07,0,.1-.09.15-.13.27-.35.15-.84.35-1.22.06-.05.12-.14.21-.1Z"/>
        <path id="path3658" class="cls-3" d="m14.83,6.05s-.05.02-.05,0c0-.04.02-.07.03-.1.01.02.04.07.02.11Z"/>
        <path id="path3660" class="cls-3" d="m13.18,6.13v.03s-.04-.01-.06-.03l.04-.12s.03.09.02.12Z"/>
        <path id="path3662" class="cls-3" d="m18,6.03s.01.05-.01.06c-.03-.02,0-.06.01-.06Z"/>
        <path id="path3664" class="cls-3" d="m15.93,6.24s-.03,0-.03-.02l.09-.11s-.02.1-.06.13Z"/>
        <path id="path3666" class="cls-3" d="m9.89,6.21s.07.11.08.16l-.07.06c-.06-.07-.09-.17-.05-.27h.02s.02.03.02.05Z"/>
        <path id="path3668" class="cls-3" d="m15.02,6.29s-.02.1-.06.11c-.07-.02-.14-.09-.14-.17.02-.03.05-.04.09-.06.04.02.09.08.12.11Z"/>
        <path id="path3670" class="cls-3" d="m17.94,6.23s-.03.07-.06.08c-.02,0-.03-.01-.04-.03.02-.03.03-.07.07-.08.01,0,.04.01.04.04Z"/>
        <path id="path3672" class="cls-3" d="m19.46,6.36l-.05.04s0-.11,0-.16c.01.04.07.07.05.12Z"/>
        <path id="path3674" class="cls-3" d="m11.92,6.31s-.01.04-.04.05c-.03-.03-.07-.08-.04-.11.03,0,.04.04.08.06Z"/>
        <path id="path3676" class="cls-3" d="m16.78,6.31h0s-.04-.04-.03-.06c.03,0,.02.04.04.06Z"/>
        <path id="path3678" class="cls-3" d="m13.1,6.3s-.04.06-.08.08c-.02,0-.04-.01-.05-.04.01-.03.04-.06.08-.09.02,0,.04.03.05.05Z"/>
        <path id="path3680" class="cls-3" d="m15.81,6.35s-.03.03-.04.06c-.04.04-.07-.01-.09-.04,0-.05.06-.06.09-.06.03,0,.03.03.04.05Z"/>
        <path id="path3682" class="cls-3" d="m10.91,6.47s-.04-.02-.04-.03c.03-.05.06-.09.11-.12.03.06-.04.11-.07.16Z"/>
        <path id="path3684" class="cls-3" d="m15.29,6.49c-.06.01-.14,0-.17-.04.01-.04,0-.11.05-.13l.11.03v.13Z"/>
        <path id="path3686" class="cls-3" d="m15.56,6.41c.02.07-.04.07-.08.09-.06,0-.02-.08-.04-.11.02-.02.13-.05.12.02h0Z"/>
        <path id="path3688" class="cls-3" d="m17.73,6.44s-.04.04-.07.03c-.01-.02-.05-.05-.02-.08.04-.05.16,0,.09.05h0Z"/>
        <path id="path3690" class="cls-1" d="m16.39,6.48c.06.06,0,.14-.01.21-.04.05-.09.06-.15.07-.06,0-.11-.03-.15-.06-.06-.05-.04-.12-.03-.19.02-.06.08-.09.13-.11.08,0,.17,0,.2.09h0Z"/>
        <path id="path3692" class="cls-3" d="m12.1,6.46s-.01.05-.04.06c-.03-.01-.08-.01-.09-.06,0-.02.02-.06.04-.06.05,0,.06.04.09.06Z"/>
        <path id="path3694" class="cls-1" d="m11.52,6.52c0,.05.03.13-.02.18-.04.05-.1.07-.16.08-.06-.01-.15-.06-.18-.13-.02-.07.01-.12.04-.18.04-.04.1-.06.16-.08.07.01.14.06.17.13Z"/>
        <path id="path3696" class="cls-3" d="m16.98,6.43s0,.07-.04.07c-.03,0-.06-.01-.07-.04-.01-.07.09-.08.11-.03Z"/>
        <path id="path3698" class="cls-3" d="m12.91,6.46s-.06.05-.09.06l-.04-.05s.11-.09.13,0Z"/>
        <path id="path3700" class="cls-1" d="m14.22,6.65c.06.08.2.12.19.24-.14.13-.28.28-.43.4l-.05-.02-.39-.4.02-.05.4-.4c.1.06.15.16.25.22Z"/>
        <path id="path3702" class="cls-3" d="m17.53,6.49c.01.06-.06.03-.09.06-.05,0-.04-.04-.04-.07,0-.04.04-.03.06-.05.04,0,.06.03.06.06Z"/>
        <path id="path3704" class="cls-3" d="m19.68,6.53c.01.05-.03.08-.04.11-.07.02-.11-.06-.15-.11,0-.04.05-.06.06-.09.05.01.08.05.13.08h0Z"/>
        <path id="path3706" class="cls-3" d="m17.25,6.48v.09s-.14.04-.15-.03c0-.03-.01-.07.02-.09.04.02.1-.01.13.04h0Z"/>
        <path id="path3708" class="cls-3" d="m10.17,6.54s0,.11-.05.13c-.05-.01-.1-.04-.13-.08-.01-.06.05-.07.08-.11.04,0,.08.04.1.07Z"/>
        <path id="path3710" class="cls-3" d="m20.59,6.49s-.07.09-.11.08v-.02s.07-.05.09-.09c0,0,.02.01.02.03Z"/>
        <path id="path3712" class="cls-3" d="m10.77,6.52c0,.08-.09.08-.14.11-.03-.02-.05-.06-.04-.09.06,0,.13-.12.18-.01Z"/>
        <path id="path3714" class="cls-3" d="m12.35,6.52v.07s-.11,0-.16-.02c0-.03,0-.06.03-.09.04.01.1.01.13.04Z"/>
        <path id="path3716" class="cls-3" d="m12.69,6.54c0,.07-.09.04-.13.06-.02,0-.06,0-.06-.03-.01-.06.03-.06.06-.07.04,0,.11-.03.13.04Z"/>
        <path id="path3718" class="cls-3" d="m16.3,6.57s-.04.07-.07.07c-.04,0-.06-.04-.07-.06,0-.03,0-.08.05-.08.04,0,.1.01.09.07h0Z"/>
        <path id="path3720" class="cls-3" d="m11.41,6.57c.02.06-.02.08-.06.09-.04,0-.06-.04-.08-.06,0-.04.02-.07.06-.08.04,0,.06.03.08.05Z"/>
        <path id="path3722" class="cls-3" d="m10.46,6.56c0,.05.06.14-.04.14-.05,0-.11.02-.15-.03-.01-.05.01-.09.04-.13,0,0,.15.01.15.01Z"/>
        <path id="path3724" class="cls-1" d="m18.93,7.03c0,.07-.09.09-.13.13l-.37.26c-.15-.14-.25-.33-.38-.5.08-.08.18-.16.28-.22l.23-.16h.04s.33.49.33.49h0Z"/>
        <path id="path3726" class="cls-3" d="m19.94,6.64s.01.11-.06.11c-.04-.04-.12,0-.11-.07.01-.03.02-.06.05-.09.03.01.08,0,.11.04Z"/>
        <path id="path3728" class="cls-3" d="m20.36,6.64s-.02.05-.05.06c-.04,0-.01-.05-.04-.06,0-.04.09-.06.09,0Z"/>
        <path id="path3730" class="cls-3" d="m6.33,6.69s-.04-.02-.04-.04v-.04s.04.04.04.07Z"/>
        <path id="path3732" class="cls-3" d="m8.4,6.63s0,.07-.04.09c-.01,0-.04,0-.03-.02,0-.02.05-.08.07-.07Z"/>
        <path id="path3734" class="cls-3" d="m20.16,6.69c.01.06-.05.03-.08.05h-.03s-.01-.09.01-.11c.04,0,.11,0,.09.06Z"/>
        <path id="path3736" class="cls-4" d="m14.21,6.87c-.06.08-.14.14-.21.21-.08-.03-.15-.11-.2-.18h-.04s0-.06,0-.06l.2-.2c.09.06.18.13.23.23Z"/>
        <path id="path3738" class="cls-3" d="m21.49,6.74s-.04-.04-.04-.07v-.02s.07.06.04.09Z"/>
        <path id="path3740" class="cls-3" d="m7.24,6.8s-.04,0-.04,0l-.05-.11s.09.07.09.12Z"/>
        <path id="path3742" class="cls-1" d="m9.09,6.77c.15.12.3.24.44.35-.11.17-.23.32-.36.47h-.06l-.42-.33s-.02-.06-.01-.09c.12-.16.24-.28.36-.42,0,0,.06.01.06.01Z"/>
        <path id="path3744" class="cls-4" d="m18.61,6.84c.02.08.16.15.09.22-.09.03-.15.12-.23.13-.06-.08-.13-.15-.17-.25l.02-.03c.09-.01.21-.27.29-.06h0Z"/>
        <path id="path3746" class="cls-3" d="m8.22,6.81c-.01.06-.09.07-.14.11-.05.01-.04-.04-.06-.06.02-.06.11-.05.16-.09.04-.02.03.03.04.04Z"/>
        <path id="path3748" class="cls-1" d="m15.25,6.83s.01.09.01.12c-.21.01-.43.02-.62,0-.05-.03,0-.08,0-.11h.04c.2-.01.39,0,.58,0Z"/>
        <path id="path3750" class="cls-3" d="m6.36,6.86s0,.09-.05.11c-.03-.01-.06-.03-.08-.06.03-.04.04-.09.06-.11.02.01.06.01.06.05Z"/>
        <path id="path3752" class="cls-3" d="m7.55,6.94c-.06.03-.12,0-.17-.02-.04-.02-.02-.07-.01-.1.06.04.21,0,.18.12Z"/>
        <path id="path3754" class="cls-1" d="m12.98,6.87c0,.16-.2.06-.27.1h-.35s-.04-.07-.02-.11c.17-.06.34,0,.51-.04.05,0,.13-.01.13.05Z"/>
        <path id="path3756" class="cls-1" d="m15.95,6.96c0,.08,0,.17-.09.21l-.11.04c-.07-.02-.13-.04-.17-.12-.03-.04,0-.1,0-.15.04-.07.11-.11.2-.1.06.02.13.06.15.13Z"/>
        <path id="path3758" class="cls-3" d="m21.69,6.87s0,.04-.01.05c-.04.01-.06-.02-.09-.04v-.06s.06.04.11.04Z"/>
        <path id="path3760" class="cls-1" d="m11.91,6.88c.04.05.11.11.06.18-.01.07-.07.09-.11.13-.08.02-.16,0-.21-.06-.04-.06-.04-.15-.02-.21.03-.06.09-.08.14-.1.05,0,.1.02.14.05Z"/>
        <path id="path3762" class="cls-1" d="m21.05,6.98c.01.08,0,.14-.06.2-.05.04-.11.06-.18.04-.06-.02-.11-.07-.14-.13-.02-.1.03-.18.11-.21.05-.03.11-.02.16,0,.03.02.08.06.11.11h0Z"/>
        <path id="path3764" class="cls-3" d="m7.88,6.88c.01.06,0,.09-.06.1-.05,0-.12.03-.13-.03,0-.04-.01-.09.04-.09.06.02.13-.05.15.01Z"/>
        <path id="path3766" class="cls-1" d="m16.78,6.98s.01.13-.01.18c-.04.06-.1.07-.16.09-.04-.01-.09-.01-.13-.06-.04-.06-.06-.11-.05-.18.04-.06.09-.12.16-.13.08-.01.15.04.19.11h0Z"/>
        <path id="path3768" class="cls-3" d="m22.72,6.88s-.03.07-.06.09c-.06-.04.04-.06.06-.09Z"/>
        <path id="path3770" class="cls-3" d="m5,7.06l-.05.04c-.04-.06-.06-.13-.04-.21.06.04.1.1.09.17Z"/>
        <path id="path3772" class="cls-1" d="m11.11,6.97c.04.06.04.13.01.19-.04.06-.1.09-.16.11-.05-.02-.11-.03-.14-.06-.06-.06-.04-.11-.04-.18.01-.06.08-.09.12-.12.09,0,.16,0,.21.07Z"/>
        <path id="path3774" class="cls-1" d="m17.7,6.96s.01.08.01.11c-.08.04-.2.01-.29.01l-.33-.03s-.03-.06-.02-.1c0-.02.04-.01.05-.03.2,0,.4.02.58.04Z"/>
        <path id="path3776" class="cls-1" d="m6.96,7.07c.02.05,0,.11-.02.16-.04.06-.11.07-.17.09-.07,0-.14-.05-.17-.12-.04-.06,0-.14.03-.19.04-.04.09-.06.14-.07.09,0,.15.06.19.13Z"/>
        <path id="path3778" class="cls-1" d="m10.44,7s0,.06-.02.08c-.19.02-.39.04-.57.05-.06,0-.04-.06-.06-.1.03-.08.13-.01.18-.06.11,0,.23-.02.33-.04.04,0,.14-.02.13.06Z"/>
        <path id="path3780" class="cls-3" d="m15.83,7s-.03.07-.07.07c-.04,0-.06-.03-.07-.06.01-.03.01-.07.06-.07.05-.01.08.03.08.06Z"/>
        <path id="path3782" class="cls-3" d="m21.95,7c0,.06-.05.05-.08.04-.02-.02-.06-.03-.06-.06.03-.05.11,0,.14.03h0Z"/>
        <path id="path3784" class="cls-3" d="m11.86,7.01s-.03.09-.07.07c-.04,0-.07-.01-.07-.05,0-.03,0-.07.04-.08.05,0,.07.03.09.06Z"/>
        <path id="path3786" class="cls-4" d="m9.16,7.01s.12.08.16.14c-.01.06-.1.09-.1.13-.03.04-.06.08-.1.11-.1-.05-.18-.12-.26-.19.04-.09.14-.16.19-.25.05-.01.06.05.1.06Z"/>
        <path id="path3788" class="cls-3" d="m20.92,7s-.01.08-.06.09c-.04,0-.09-.03-.08-.08,0-.03.03-.04.05-.06.04,0,.06.01.09.04Z"/>
        <path id="path3790" class="cls-3" d="m16.68,7.03s-.03.06-.06.08c-.03.01-.07,0-.08-.04-.01-.05.01-.09.06-.1.04,0,.06.03.08.06Z"/>
        <path id="path3792" class="cls-3" d="m22.5,7.03s-.04.03-.07.05c-.02,0-.04-.01-.06-.03,0-.05.08-.04.11-.06v.04Z"/>
        <path id="path3794" class="cls-3" d="m11.03,7.05s-.02.08-.06.09c-.04.01-.07-.01-.08-.04,0-.04,0-.07.04-.09.03,0,.09,0,.1.04Z"/>
        <path id="path3796" class="cls-1" d="m12.99,7.05s0,.07-.01.1c-.22,0-.4.04-.63.01-.02-.03-.01-.07,0-.11.14-.06.35,0,.51-.04.05,0,.11,0,.13.04Z"/>
        <path id="path3798" class="cls-1" d="m15.26,7.03s.02.08,0,.11c-.19,0-.43.02-.62-.01-.02-.02-.01-.07,0-.1h.01c.21-.01.43-.03.61,0h0Z"/>
        <path id="path3800" class="cls-3" d="m6.21,7.08s-.04.05-.06.08c-.06,0-.04-.06-.08-.08-.01-.03.01-.06.04-.07.04.01.08.04.09.07Z"/>
        <path id="path3802" class="cls-3" d="m22.25,7.09s-.12.03-.14-.02c0-.01-.01-.04.01-.05.04.03.15-.02.13.07Z"/>
        <path id="path3804" class="cls-3" d="m6.85,7.13s-.03.06-.06.08c-.05,0-.07-.04-.09-.07,0-.03.02-.06.05-.06.04,0,.09,0,.1.06Z"/>
        <path id="path3806" class="cls-1" d="m19.81,7.18s.01.08,0,.11c-.23.01-.42-.04-.62-.09.01-.04-.02-.1.03-.11.2.02.4.06.59.1Z"/>
        <path id="path3808" class="cls-3" d="m5.22,7.18s-.01.16-.11.11c-.04-.02-.08-.06-.04-.11l.05-.07s.1.02.1.07Z"/>
        <path id="path3810" class="cls-3" d="m6.01,7.22s-.07.05-.11.06c-.02-.04-.06-.08-.06-.14.04-.03.13-.09.14.01l.03.06Z"/>
        <path id="path3812" class="cls-1" d="m17.6,7.14s.1,0,.1.05v.08c-.21.03-.43,0-.63-.04,0-.03-.03-.11.02-.12.17-.01.34.02.51.03Z"/>
        <path id="path3814" class="cls-1" d="m10.46,7.14s.01.09,0,.13c-.19.04-.4.04-.6.06-.05-.04-.01-.08-.01-.12.14-.05.31-.04.47-.06h.15Z"/>
        <path id="path3816" class="cls-3" d="m5.77,7.31s-.09.04-.14.04c-.03-.05-.03-.11-.02-.16.11-.08.16.04.16.12Z"/>
        <path id="path3818" class="cls-3" d="m5.48,7.29s-.04.08-.09.06c-.03-.01-.07-.01-.09-.05.03-.04,0-.11.06-.13.06.03.17.01.13.11Z"/>
        <path id="path3820" class="cls-1" d="m8.4,7.28c-.01.07-.1.06-.15.08-.12.02-.24.03-.35.06-.06-.02-.13.04-.15-.05,0-.04,0-.09.04-.09.05-.02.12,0,.17-.04.11,0,.23-.02.34-.05.06-.01.09.04.1.08Z"/>
        <path id="path3822" class="cls-1" d="m20.51,7.34c0,.07.02.16-.04.21-.06.04-.14.05-.21.03-.09-.02-.1-.12-.11-.2.01-.08.09-.13.16-.16.09,0,.18.03.21.11Z"/>
        <path id="path3824" class="cls-1" d="m19.79,7.37s.02.11-.03.13c-.21,0-.38-.09-.59-.1-.06-.03,0-.07,0-.11.08-.04.16,0,.24,0,.13,0,.24.07.38.07Z"/>
        <path id="path3826" class="cls-1" d="m7.4,7.36c.04.06.07.12.05.19-.03.06-.09.12-.17.13-.06.01-.1-.02-.15-.04-.04-.06-.06-.12-.04-.19.02-.06.08-.13.14-.13.07-.01.12.02.17.05Z"/>
        <path id="path3828" class="cls-3" d="m20.41,7.4s0,.08-.04.08c-.06,0-.1-.01-.11-.06,0-.04.04-.06.08-.08.04,0,.06.04.07.06Z"/>
        <path id="path3830" class="cls-1" d="m21.36,7.44c.03.06.04.13.02.21-.03.07-.11.09-.18.1-.06,0-.13-.04-.16-.1-.06-.07,0-.13.01-.2.04-.05.09-.06.14-.08.06,0,.11.04.16.07h0Z"/>
        <path id="path3832" class="cls-1" d="m8.42,7.42c0,.05,0,.12-.07.11-.18.02-.36.06-.54.06-.02-.02-.03-.06-.01-.09.06-.08.16-.02.24-.06l.25-.03s.11-.04.13,0Z"/>
        <path id="path3834" class="cls-3" d="m7.34,7.47s-.01.1-.06.1c-.04.01-.06-.02-.09-.04,0-.05.02-.06.05-.09.04,0,.07,0,.09.04Z"/>
        <path id="path3836" class="cls-1" d="m6.59,7.54c.04.06.06.12.04.18-.01.04-.04.09-.08.11-.04-.03-.03.03-.07.02-.09.03-.16-.04-.2-.11-.02-.06-.01-.14.03-.2.09-.06.19-.07.28,0Z"/>
        <path id="path3838" class="cls-3" d="m21.28,7.56s-.03.07-.07.08c-.04,0-.08-.04-.09-.08,0-.04.03-.04.05-.05.06-.01.09.01.11.05Z"/>
        <path id="path3840" class="cls-1" d="m22.33,7.56c.12.04.26.04.35.11l-.03.1c-.14-.03-.3-.06-.44-.08-.05-.06-.18.01-.18-.1.04-.15.19-.02.29-.03Z"/>
        <path id="path3842" class="cls-3" d="m14.98,7.57c.45.03.84.01,1.28.03.2,0,.4.04.6.04.31.03.66.03.99.06h.04c.26.04.51.03.74.08.31,0,.6.07.89.09,1.27.15,2.58.35,3.83.6.03.03.09,0,.13.03.14.02.27.06.4.11.04.05.06.1.04.16-.05.1-.15.13-.25.11-.99-.23-2.06-.4-3.09-.54-.48-.06-.96-.13-1.45-.18-.45-.05-.91-.09-1.36-.12-.28-.01-.55-.04-.84-.06-.49-.03-.99-.04-1.47-.06-.72-.02-1.47-.01-2.19,0-.22.03-.38,0-.6.03-.35,0-.69.01-1.02.04-.09.04-.19,0-.28.03-.3.03-.61.01-.91.07-.98.06-1.91.18-2.86.32-.1.04-.22.02-.31.06l-.2.02c-.14.05-.31.03-.45.09-.5.07-1.01.17-1.52.27-.11.05-.21.03-.31.07-.22.04-.44.09-.66.13-.06,0-.12-.02-.14-.07-.04-.04-.02-.09,0-.13.08-.14.25-.1.37-.16.89-.19,1.77-.37,2.66-.51.23-.02.46-.07.68-.1.83-.13,1.68-.25,2.5-.29.37-.05.74-.08,1.11-.11.17.01.37-.04.54-.02.1-.02.22.01.31-.03.96-.04,1.84-.06,2.81-.04h0Z"/>
        <path id="path3844" class="cls-3" d="m6.52,7.66s-.01.07-.04.09c-.04,0-.08,0-.09-.05-.02-.05.03-.06.06-.09.04,0,.06.02.08.05Z"/>
        <path id="path3846" class="cls-4" d="m23.75,7.83c-.06.09-.14.16-.22.23-.08-.07-.16-.11-.22-.21,0-.09.12-.15.18-.22.11.01.18.13.26.2Z"/>
        <path id="path3848" class="cls-1" d="m5.83,7.71s0,.07-.03.09c-.2.01-.39.12-.59.09-.02-.04-.02-.06-.02-.11.19-.06.41-.09.6-.11,0,0,.04.04.04.04Z"/>
        <path id="path3850" class="cls-1" d="m22.63,7.83s.01.07,0,.1c-.12.01-.25-.01-.36-.06-.09-.01-.17-.03-.25-.05,0-.04-.01-.08.01-.11.18,0,.37.07.55.09,0,0,.05.03.05.03Z"/>
        <path id="path3852" class="cls-4" d="m4.5,8c-.06.08-.15.16-.23.22h-.04s-.18-.2-.18-.2c.03-.09.14-.16.21-.24.08.06.18.13.23.22Z"/>
        <path id="path3854" class="cls-1" d="m5.86,7.89s.02.11-.04.11c-.18.03-.38.07-.56.08,0-.04-.05-.06-.03-.11.14-.06.3-.06.44-.1.06,0,.15-.06.19.01Z"/>
        <path id="path3856" class="cls-4" d="m14.66,8.09c.28.04.61,0,.9.01.4.01.77.03,1.16.05.28,0,.5.04.77.05.33.01.66.06.99.09.89.06,1.78.19,2.66.31.11.02.22.05.34.06.61.1,1.21.2,1.81.33h-.02s.04.04.04.04c.01.26-.03.52.01.78h0c.02.45,0,.93,0,1.38v.04c.01.4,0,.82,0,1.22v.03c0,.5.04,1.03,0,1.52.06.01,0,.05.03.08v1.44s.01.04,0,.06c0,.89.04,1.84.01,2.72-.02.02.02.04,0,.06.01.55-.01,1.04.01,1.58-.03.17,0,.43-.04.6,0,.4-.06.77-.14,1.17-.03.22-.1.44-.16.64,0-.01-.02,0-.03,0,0,.02.03,0,.03.01,0,.07-.05.14-.04.2-.02.04-.04.09-.04.14-.07.22-.14.45-.23.64-.34-.19-.66-.5-.96-.71-.15-.12-.24-.24-.39-.35-.01-.04-.07-.06-.08-.09-.07-.08-.2-.19-.31-.29-.06-.06-.08-.11-.17-.16-.22-.2-.44-.44-.63-.63h0s-.05-.05-.04-.08c-.1-.04-.13-.1-.22-.18-.09-.12-.2-.21-.3-.31h0c-.08-.07-.16-.19-.27-.29-.06-.07-.11-.14-.16-.21-.07,0-.08-.09-.16-.13-.06-.07-.06-.12-.15-.18,0-.06-.08-.05-.07-.11-.04-.03-.09-.07-.1-.12-.06,0-.04-.08-.09-.08-.04-.07-.1-.12-.13-.19-.03-.04-.09-.09-.11-.13l-.14-.19h0c-.09-.08-.18-.2-.23-.33-.24-.3-.38-.52-.57-.79v-.04s-.05-.05-.06-.06c-.16-.21-.32-.48-.45-.69-.04-.09-.11-.16-.15-.26-.07-.06-.08-.19-.16-.26-.05-.11-.13-.23-.18-.34-.06-.14-.15-.28-.21-.44-.11-.17-.14-.26-.22-.44-.18-.38-.36-.77-.52-1.21-.06-.04-.05-.1-.07-.14-.09-.18-.12-.38-.21-.55,0-.04-.06-.11-.06-.16-.06-.14-.09-.32-.16-.43-.16-.47-.3-.96-.45-1.45-.01-.09-.04-.15-.05-.24-.04-.03,0-.09-.04-.1-.05-.24-.1-.48-.15-.76-.04-.16-.04-.29-.09-.47h.02c-.07-.12-.05-.27-.08-.41-.06-.35-.1-.72-.16-1.11v-.09s.17-.02.17-.02c.14,0,.27.02.41,0h0Z"/>
        <path id="path3858" class="cls-2" d="m13.9,8.12c0,.91-.13,1.69-.28,2.55-.08.23-.08.5-.18.74-.14.52-.27,1.02-.48,1.51h-.04c-.79.05-1.66,0-2.44.04h-.45s-.03-.11-.03-.11c.02-.84-.03-1.58-.02-2.45,0-.68-.03-1.4-.01-2.11.27-.06.56-.07.84-.09.18,0,.35-.04.53-.03h.04c.46,0,.87-.08,1.33-.06.39-.05.76-.02,1.17-.03,0,0,.02.03.02.03Z"/>
        <path id="path3860" class="cls-4" d="m9.78,8.36c.04.37,0,.74.03,1.08,0,.3,0,.7,0,1-.04.03.01.04,0,.08.03.68.02,1.35.03,2.05h-.01s.02.03.02.03v.51l.04.03c1.01.03,1.99-.04,2.98,0,.01.07-.04.17-.07.23-.05.17-.15.33-.2.5-.18.41-.37.86-.55,1.22,0,.07-.03.09-.07.16l-.07.05c-.48,0-.98-.02-1.44.02-.18,0-.4,0-.59,0l-.02.03c-.01.8.03,1.52,0,2.3h-.01s.02.03.02.03c0,.4,0,.77-.01,1.12-.24.32-.43.61-.69.92-.11.12-.19.25-.32.35,0,.06-.07.07-.09.11-.26.27-.48.57-.77.87-.07.06-.13.11-.18.2l-.17.16c-.01-.41-.04-.72-.01-1.08-.01-.09-.01-.17,0-.26,0-.21,0-.44,0-.63,0,0,0,0,.01,0h0s-.03-.02-.03-.02c0-.26-.02-.5,0-.77,0-.32,0-.66-.01-.96,0-.13,0-.27,0-.41-.02-.31.01-.64-.03-1,0-.17,0-.27.02-.44-.02-.18,0-.3-.03-.48l-.04-.03h-2.11c-.07.01-.16.04-.22.01-.16,0-.38.01-.54-.01-.02-.11.02-.29-.02-.42,0-.41,0-.89,0-1.3,0-.14-.01-.28,0-.42l.04-.03h2.75s.13.02.14-.06c0-.32,0-.6,0-.93-.03-.06,0-.11-.01-.18,0-.13.01-.33,0-.47,0-.09,0-.2,0-.28.02-.06,0-.14,0-.23,0-.6.01-1.21,0-1.81-.03-.16-.01-.4,0-.58.06-.06.16-.04.26-.06.46-.09,1.03-.16,1.53-.22.16,0,.28-.05.45-.04v.04Z"/>
        <path id="path3862" class="cls-2" d="m7.33,8.64c.02.38,0,.8.01,1.16v2.57s0,.58,0,.58l-.04.03h-1.25s-.09-.03-.13.02c-.03-.04-.05.01-.08,0h-1.25s-.02-.03-.02-.03c-.02-.34.02-.71-.02-1.06.05-.06-.02-.11,0-.17,0-.51.02-1.16,0-1.67v-.94c.81-.18,1.6-.34,2.43-.46h.03c.1-.01.2-.06.3-.04Z"/>
        <path id="path3864" class="cls-2" d="m23.6,9.05c-.01,1.08.01,2.05.01,3.14v1.71s-.01.08.02.13c-.04,1.19.01,2.3.01,3.47,0,.65,0,1.37,0,2.01.03.08.02.18,0,.26.03.41-.03.72-.04,1.12-.02.21-.06.42-.09.63-.06.23-.07.42-.14.66-.57,2.52-2.28,4.81-4.6,6.11-1.23.69-2.56,1.12-4.01,1.25-.18.02-.37.02-.55.04-.4.02-.74-.02-1.13-.04-.11-.02-.25-.03-.38-.04-.06-.01-.14-.01-.19-.04-1.71-.25-3.28-.93-4.63-2-1.53-1.22-2.62-2.91-3.18-4.71-.16-.57-.3-1.19-.34-1.79v-.04s-.03-.37-.03-.37c-.06-.62,0-1.2-.02-1.8l-.02-.11c0-1.45,0-2.81-.01-4.22v-.73c-.02-.48,0-.96-.02-1.46v-.03c0-.98-.04-2,0-3.01.02-.02.05-.02.08-.02l.02.03c0,.45-.01.93,0,1.37v1.6s0,.06,0,.06c-.01,1.16.03,2.15.02,3.3-.02,1.03.04,1.98,0,2.97l.02.05v1.81s.01.14.01.14c0,.23.03.45.04.7v.03c.13,1.16.52,2.26,1.06,3.28.63,1.19,1.58,2.29,2.71,3.11.17.11.35.27.53.35.16.12.34.2.5.31.52.28,1.06.51,1.61.7.87.27,1.8.48,2.74.48l.11.02c.18,0,.38,0,.55-.02.33-.01.65-.01.96-.09,1-.11,1.94-.42,2.84-.83,1.8-.86,3.5-2.4,4.4-4.21.56-1.09.9-2.25,1.03-3.48.01-.08-.02-.18.03-.23v-.33c.02-.33.02-.69,0-1.03v-1.16s-.03-.09-.01-.14c0-1.15,0-2.28-.02-3.42,0-.27.01-.59-.01-.84v-1.38s0-1.22,0-1.22v-.04c0-.54,0-1.16-.02-1.71v-.33s.07-.01.11,0h0Z"/>
        <path id="path3866" class="cls-1" d="m21.66,10.54c.72.49,1.21,1.29,1.4,2.06.04.19.07.37.08.59.04.1,0,.13.02.23,0,.08,0,.18-.03.25,0,.06.02.14-.01.19,0,.09-.04.21-.05.31-.08.4-.23.74-.44,1.09,0,.02-.03.05-.04.07-.79,1.23-2.2,1.86-3.7,1.62-.86-.15-1.72-.64-2.25-1.35-.23-.29-.43-.64-.53-1-.06-.07-.06-.17-.09-.26-.04-.21-.1-.4-.11-.62.02-.16-.05-.28,0-.46-.01-.15.02-.28.04-.43.03-.16.09-.35.13-.52v-.02s.06-.12.08-.19c.26-.6.72-1.23,1.3-1.6.53-.4,1.2-.57,1.86-.64.89-.04,1.64.2,2.32.67h0Z"/>
        <path id="path3868" class="cls-2" d="m20.79,10.28c.94.33,1.75,1.21,2.03,2.16.05.2.11.38.13.58.04.26.03.55,0,.81-.06.13-.03.29-.08.41-.22.82-.72,1.59-1.49,2.03-.21.16-.47.27-.72.36-.5.17-1.1.23-1.64.14-.8-.13-1.57-.5-2.09-1.14-.57-.65-.83-1.43-.83-2.31.03-.13.03-.26.06-.4.17-1.25,1.17-2.38,2.39-2.72.4-.11.84-.17,1.25-.13.11-.01.19.04.3.04.24.04.48.09.7.18h0Z"/>
        <path id="path3870" class="cls-1" d="m19.68,10.27c.04.06.06.14.02.21-.05.08-.16.1-.24.06-.06-.02-.07-.09-.1-.13,0-.08.06-.17.14-.2.07-.01.12.03.18.06Z"/>
        <path id="path3872" class="cls-2" d="m19.61,10.35s-.03.08-.06.11c-.05.01-.08-.04-.09-.07,0-.04.04-.08.07-.09.03.02.06.02.08.05h0Z"/>
        <path id="path3874" class="cls-1" d="m21.01,11.12c.96.6,1.45,1.72,1.25,2.84-.14.75-.65,1.45-1.31,1.83-.36.2-.74.35-1.18.37-.13.04-.29.01-.44.02-.1-.03-.2-.03-.31-.05-.96-.16-1.87-.94-2.13-1.89-.11-.31-.14-.69-.11-1.05.08-.82.55-1.6,1.28-2.06.6-.38,1.39-.54,2.13-.35.3.06.57.19.84.34h0Z"/>
        <path id="path3876" class="cls-2" d="m19.73,10.9c.06.18.1.41.11.6-.01.24,0,.55-.07.79-.05.02-.1,0-.14,0-.11,0-.23,0-.33.01l-.04-.04c-.06-.27-.06-.58-.06-.85.03-.15.05-.33.09-.48.01-.03.04-.03.07-.03h.36Z"/>
        <path id="path3878" class="cls-4" d="m21.07,11.4c.15.12.3.26.43.4v.04c-.29.11-.62.26-.88.44-.01-.01-.04,0-.05,0v.03c-.14.04-.23.33-.38.14,0,0,.01,0,.01,0-.01-.01-.04,0-.06-.02-.04-.07-.2-.05-.16-.15,0-.15.06-.23.04-.39.04-.32-.04-.67-.06-.96.4.06.77.24,1.1.46Z"/>
        <path id="path3880" class="cls-4" d="m19.05,11.28c-.05.35-.04.64.03,1v.08l-.3.18c-.13-.09-.26-.19-.4-.29-.27-.16-.53-.28-.82-.38.04-.09.16-.18.23-.26.04-.06.13-.07.15-.13.34-.27.72-.46,1.15-.52.01.11-.04.23-.03.33h0Z"/>
        <path id="path3882" class="cls-1" d="m23.26,11.2s-.02,0-.03,0c0-.01.01,0,.03,0Z"/>
        <path id="path3884" class="cls-1" d="m16.63,11.21s-.02,0-.03.01h0s.03-.01.03-.01Z"/>
        <path id="path3886" class="cls-1" d="m16.94,11.85s.04.14.02.19c-.03.04-.06.07-.11.09-.08.01-.13-.01-.18-.05-.04-.06-.06-.13-.03-.2.02-.06.07-.08.12-.1.07,0,.13,0,.18.06h0Z"/>
        <path id="path3888" class="cls-1" d="m22.38,11.85c.05.06.07.15.03.21-.04.05-.09.09-.16.09s-.12-.05-.15-.1c-.02-.06,0-.15.04-.21.07-.06.19-.06.26,0h0Z"/>
        <path id="path3890" class="cls-2" d="m16.88,11.96s-.03.07-.07.08c-.03,0-.06-.02-.07-.05,0-.05,0-.11.07-.11.04,0,.06.03.07.07Z"/>
        <path id="path3892" class="cls-2" d="m22.31,11.96s-.01.09-.07.08c-.04,0-.07-.04-.06-.08,0-.05.04-.05.07-.07.03,0,.06.03.06.06Z"/>
        <path id="path3894" class="cls-2" d="m21.9,12.44c-.04.11-.16.15-.23.23-.31.21-.64.38-.99.45-.06-.14-.11-.29-.22-.41,0-.05.05-.1.1-.12.31-.28.7-.45,1.09-.58.13.11.18.28.26.43h0Z"/>
        <path id="path3896" class="cls-2" d="m18.63,12.68c-.09.12-.16.25-.22.39-.06.04-.11,0-.16-.01-.38-.15-.75-.33-1.06-.63.04-.15.11-.28.21-.4.45.11.87.32,1.23.65Z"/>
        <polygon id="polygon3898" class="cls-1" points="20.53 12.3 20.53 12.29 20.55 12.29 20.53 12.3"/>
        <path id="path3900" class="cls-2" d="m20.46,13.03c.06.18.14.41.08.63-.07.36-.39.69-.75.77-.41.1-.79-.04-1.07-.35-.23-.28-.26-.72-.11-1.05.13-.33.48-.53.82-.59.43,0,.85.18,1.03.59Z"/>
        <path id="path3902" class="cls-4" d="m18.12,13.21c.06.04.14.04.2.08.01.09.02.23,0,.33-.42.13-.85.37-1.18.65l-.04-.02c-.05-.18-.11-.38-.13-.56v-.21s.02-.02.02-.02c-.04,0,0-.06-.02-.08-.02-.13.04-.23.02-.32.06-.06.02-.18.07-.26.01-.06,0-.11.04-.15.3.22.65.44,1.01.56h0Z"/>
        <path id="path3904" class="cls-4" d="m21.98,12.69c.11.23.11.57.12.82l-.02.02c.05.04,0,.14,0,.19,0,.16-.06.32-.11.47-.06-.01-.11-.06-.16-.09-.32-.23-.7-.4-1.08-.51-.04-.03,0-.05-.02-.09.04-.04,0-.08,0-.11-.04-.09.08-.09.14-.11.27-.09.53-.21.77-.36.1-.06.22-.16.31-.23h.04,0Z"/>
        <path id="path3906" class="cls-1" d="m23.3,12.73s0,0-.01.01v-.02s.01,0,.01,0Z"/>
        <path id="path3908" class="cls-1" d="m19.83,13.13c.04.06.08.11.11.18.04.14.03.31-.07.42-.09.11-.21.18-.35.17-.11,0-.21-.05-.29-.11-.11-.12-.18-.29-.12-.46.05-.15.2-.28.36-.31.14,0,.26.04.36.11Z"/>
        <path id="path3910" class="cls-4" d="m19.78,13.34c.03.08.03.21-.04.28-.07.09-.19.11-.3.09-.1-.06-.16-.16-.16-.28.01-.05.04-.11.08-.14.04-.05.1-.08.16-.09.11-.01.21.06.27.15h0Z"/>
        <path id="path3912" class="cls-1" d="m23.19,13.77l-.03-.02s.02-.03.04-.02v.04s0,0,0,0Z"/>
        <path id="path3914" class="cls-2" d="m21.89,14.41v.03c-.04.14-.11.27-.2.38h-.06c-.42-.12-.86-.28-1.18-.61,0-.06.07-.08.09-.15.07-.08.08-.18.14-.27.45.09.86.32,1.21.62h0Z"/>
        <path id="path3916" class="cls-2" d="m18.39,13.82c.05.16.14.28.23.41-.33.33-.74.52-1.16.66h-.05c-.09-.12-.16-.26-.21-.4.33-.33.74-.56,1.17-.69h.03Z"/>
        <path id="path3918" class="cls-4" d="m20.33,14.37c.27.26.64.42.97.57l.22.06-.02.06c-.38.4-.89.77-1.46.84h-.03c.03-.06,0-.12.05-.15-.04-.12.02-.18,0-.3.03-.12,0-.26.01-.39,0-.06-.02-.1-.02-.16-.03-.11-.01-.23-.05-.33t.01-.05c.08-.03.1-.09.2-.11.03-.03.05-.08.11-.06h0Z"/>
        <path id="path3920" class="cls-4" d="m19.08,14.56c-.06.23-.06.43-.08.67-.01,0-.02,0-.04.01.06,0,.04.1.04.15,0,.06-.02.11.01.16-.01.12.03.25.02.35-.05.01-.06-.02-.11,0-.32-.08-.59-.19-.86-.38-.18-.13-.36-.26-.5-.44.09-.08.26-.11.38-.18.31-.11.56-.33.82-.52.1.06.2.15.31.18h0Z"/>
        <path id="path3922" class="cls-2" d="m19.83,14.63c.07.35.1.89-.02,1.28,0,.04-.04.05-.05.07-.17,0-.34.03-.49-.03-.1-.4-.1-.94,0-1.33.16-.04.3.05.45-.01.04,0,.1-.04.11.02h0Z"/>
        <path id="path3924" class="cls-1" d="m22.4,14.78c.04.06.04.14.04.21-.02.06-.09.08-.15.11-.07,0-.16-.02-.18-.11-.04-.06-.01-.13.01-.18.07-.09.19-.08.28-.03Z"/>
        <path id="path3926" class="cls-1" d="m16.94,14.8c.04.05.05.1.06.16-.03.07-.07.14-.15.16-.06.01-.12-.02-.16-.06-.06-.06-.07-.14-.03-.2.01-.05.06-.06.11-.09.06-.01.12.01.18.04h0Z"/>
        <path id="path3928" class="cls-2" d="m22.34,14.9s-.03.09-.06.09c-.04,0-.09-.04-.08-.07,0-.04.04-.06.06-.08.04,0,.07.03.08.06h0Z"/>
        <path id="path3930" class="cls-2" d="m16.88,14.94s-.01.07-.05.06c-.03,0-.06,0-.08-.04-.01-.04.01-.09.06-.09.05,0,.06.04.07.07Z"/>
        <path id="path3932" class="cls-2" d="m11.83,15.54c-.5.98-1.07,1.93-1.69,2.86-.04.01-.04.07-.08.07-.03-.72-.02-1.31-.03-2.01v-.95l.02-.02h.98s.01-.02.01-.02h.8s-.01.07-.01.07Z"/>
        <path id="path3934" class="cls-2" d="m7.38,15.56c-.01.87.04,1.84.02,2.74,0,.56,0,1.1,0,1.64l.02.06v1.68c-.66.67-1.36,1.25-2.06,1.83-.08,0-.08-.12-.12-.18-.17-.43-.3-.87-.4-1.32-.1-.47-.16-.98-.18-1.46l-.02-.04v-.88c-.02-.57,0-1.11,0-1.69-.03-.14,0-.29-.01-.44.02-.65-.02-1.29,0-1.93l.03-.03h2.18l.03-.02h.47l.05.04h0Z"/>
        <path id="path3936" class="cls-4" d="m15.04,16s.07.06.11.02l.1.03c-.03.11-.13.2-.06.31.06.07.1.19.21.14.07-.04.13-.09.2-.1,0,0,.02-.02,0-.03,0-.01,0-.03-.01-.05.06-.01,0-.11.08-.1.04.05.02.12.09.16h.17s-.06.07-.09.11c-.02,0-.05,0-.05.02h0c-.11.08-.26.2-.35.3-.12.03-.26-.04-.39-.06-.25-.06-.48-.06-.72-.08-.07,0-.17.01-.21-.03,0-.02-.03-.06-.02-.1-.05-.07-.02-.09-.04-.19.04-.04-.06-.06-.06-.09-.04-.01-.03-.07-.05-.09.11.04.2-.11.26-.09,0,.09,0,.18.1.23.02,0,.05.03.04.04.06.04.13.09.2.04.13-.04.18-.14.18-.24-.03-.04,0-.14-.04-.16.08-.06.16.06.23-.04.01-.03.04-.06.07-.06.01.03.03.08.04.11h0Z"/>
        <path id="path3938" class="cls-1" d="m19.68,16.4c.04.06.04.14.01.21-.04.08-.12.07-.19.08-.06-.03-.14-.07-.15-.16v-.11c.09-.09.24-.11.33-.02h0Z"/>
        <path id="path3940" class="cls-2" d="m19.61,16.49s-.01.1-.07.08c-.04,0-.06-.02-.07-.05,0-.04.03-.07.06-.08.04-.01.06.04.08.05Z"/>
        <path id="path3942" class="cls-1" d="m23.33,16.59s-.03,0-.02,0c0,0,.02,0,.02,0Z"/>
        <path id="path3944" class="cls-4" d="m12.1,17.75s0-.09,0-.13c-.02-.01-.03-.03-.01-.04-.01-.02.01-.03.01-.06.08-.05.16-.14.15-.21.04,0,.06.05.09.07.02.06-.01.1.01.16.05.04.11.05.11.11l-.11.15-.26-.05Z"/>
        <path id="path3946" class="cls-3" d="m12.35,17.8h0c.03.05.04.1.09.14.02.08,0,.17-.06.24-.21.14-.2.44-.15.67.04.11.09.24.21.28.04.16-.13.29-.24.38-.04,0-.06.03-.07.06,0,.02.03.04.05.04.2-.08.4-.26.4-.5.06,0,.06.1.12.11h.33c.18-.04.35-.22.55-.16.05,0,.06-.06.09-.07l.28-.04s.04-.1.04-.15c0-.06,0-.14-.07-.14-.13,0-.23,0-.32-.09.03-.08-.07-.18.05-.2.08-.03.09.05.14.07.15.03.26-.04.41,0-.08.12-.3-.01-.35.13.18.03.37,0,.53-.04.06-.04.1-.08.12-.15,0-.18-.05-.35-.2-.47h0c.13,0,.19.15.24.26.01.01.04.01.05.04.03.06-.09.14.02.15.12-.06.14-.17.16-.29,0-.1-.06-.18-.14-.23-.03-.01-.07-.04-.1-.01-.02.01-.02.03,0,.06,0,.03.05.03.05.06-.06,0-.1-.08-.15-.11-.16-.09-.35-.13-.52-.19-.1.02-.18-.02-.26-.04-.03-.07-.08-.18-.02-.24.04.01.11.09.17.04.02-.04.04-.08.03-.11-.03-.04-.07-.09-.14-.09-.06-.02-.09.04-.11.07-.03-.01-.05-.06-.03-.09.04-.06.11-.06.17-.08.11-.05.23-.03.31-.13.03-.06.06-.11.08-.16.31-.02.55.04.82.07.02.01.06.01.09.02.13.02.24.05.37.09,0,.11.13.21.05.33-.04.05-.12.11-.09.18.06.04.09-.03.15-.03.04-.06.1-.06.17-.05,0,.03,0,.07,0,.11-.04.09-.13.19-.12.29.09.04.11-.11.19-.13.03.01.05-.02.09-.02,0,.06.04.16-.04.19,0,.19-.06.45.06.61v.13c-.15.05-.18-.2-.33-.12-.05.14.12.24.03.38-.03.03-.05.09-.02.13.08.18.35.23.32.46.01.04,0,.11,0,.15-.09-.12-.19-.25-.34-.31-.07-.06-.04-.16-.11-.22-.1.02-.04.16-.05.23.06.2.3.28.35.5,0,.06.03.13-.01.18-.08-.04-.12-.11-.16-.18-.03-.05,0-.16-.09-.18-.07.06-.13.16-.11.28.06.13.06.29-.02.4-.02.01-.05.04-.07.04-.09-.15-.03-.38-.21-.47-.04,0-.05.04-.05.06.04.14.09.26.04.41-.1.11.01.27-.06.4-.01.09-.1.17-.18.2h-.15c.01-.05.06-.11.09-.17v-.17c-.09-.14-.21-.31-.12-.49.09-.14.26-.25.26-.42,0-.01-.02-.02-.03-.03-.11.03-.15.15-.21.22-.32.35-.43.79-.73,1.16-.09.11-.22.18-.36.13-.11-.09-.1-.23-.15-.34-.13-.04-.14.16-.24.22-.11.06-.2.14-.33.15-.11,0-.19-.06-.23-.16.02-.06-.03-.09-.05-.13.16-.08.3.16.46.04.1-.05.21-.11.25-.23.01-.04.01-.09,0-.12-.03-.03-.05,0-.07.02-.04.11-.16.23-.29.23-.15-.06-.35-.13-.48,0-.05.05-.09.13-.16.13,0-.09.08-.18.11-.25-.01-.02-.06,0-.08,0-.13.14-.28.26-.46.3.05-.21.15-.41.21-.61.09-.13.16-.33.33-.34.03,0,.03-.03.02-.06-.04-.03-.09-.03-.14-.02l-.09.06c-.3.35-.37.91-.86,1.08-.37.18-.84.08-1.14-.16-.04-.03-.05-.09-.05-.11.26.06.44.35.74.25.41-.04.7-.35.87-.7l.24-.52c-.06-.06-.13.04-.18.07-.23.2-.47.52-.82.4-.02-.01-.05-.04-.04-.07.15,0,.32-.02.45-.09.13-.1.28-.23.23-.42-.03-.04-.06-.06-.09-.01-.09.13-.24.29-.43.25-.05,0-.1-.01-.15-.03v-.02c.09-.03.17-.07.26-.11.04-.11.14-.18.18-.29-.13-.05-.21.15-.35.09.12-.07.21-.19.26-.31,0-.03-.01-.08-.05-.1-.11-.02-.14.11-.23.14-.03.03-.08.02-.12,0,.03-.04.02-.07.01-.11l-.09-.06c.06-.07.07-.19.17-.2.1,0,.19,0,.28.03.1-.04.08-.15.09-.25,0-.16.03-.33-.11-.42.04-.02.06-.07.05-.11,0-.01-.02-.02-.03-.03-.02-.01-.05-.01-.06,0-.03.04-.05.11,0,.13-.1-.03-.17.06-.25.09h0s-.06-.02-.07-.03c-.04-.05.05-.18-.07-.21h.02s-.01-.05-.03-.04h0s-.01.01-.02.01h-.01c.07-.07.24,0,.28-.14.04-.02.03-.03.06-.04.07.02.11.12.18.14.02,0,.04,0,.06,0,.09,0,.16-.06.2-.13.06-.1,0-.21-.04-.29.04,0,.09-.04.1-.08h.04c.01.19.14.2.24.23.06,0,.12-.03.18-.06.02-.02.04-.05.04-.08l.26.05h0Z"/>
        <path id="path3948" class="cls-4" d="m11.6,17.66s-.03-.06-.06-.06c-.06,0-.08.04-.11.08h.03s-.08,0-.12.03h0c-.06,0-.04,0-.09-.03l.02-.02s.04,0,.03,0c0-.01.01-.02,0-.04.01-.05.16-.1.14-.18,0,0,.03,0,.03-.03-.03-.03-.02-.06-.03-.09.04,0,.05.02.07.06.03.13.18-.03.21.08,0,.11-.07.1-.07.22l-.04-.02h0Z"/>
        <path id="path3950" class="cls-4" d="m9.34,21.65s-.03-.06-.05-.09c-.07-.06-.28.02-.27-.09.04,0,.02-.03.04-.04.04-.08.21-.06.2-.19v-.06s.09,0,.11.03c.02.04.04.11.1.12.06,0,.11-.06.14.03.02.09-.06.17-.05.25l-.21.04h0Z"/>
        <path id="path3952" class="cls-4" d="m8.87,22.17c-.07.07-.08.2-.21.18-.06-.03-.07-.07-.08-.12.01-.04-.02-.04.01-.07-.02-.08-.08-.16-.19-.17h0c.01-.06.09-.08.12-.08.06-.02.1.06.17.03.06-.06.08-.11.17-.12,0,.04.07.07.05.11,0,0-.03.25-.03.25Z"/>
        <path id="path3954" class="cls-4" d="m15.2,26.96s-.06-.04-.11-.03c-.03.04-.03.09-.08.1-.04-.01-.04.01-.07,0-.02-.03,0-.07,0-.09,0,0,.01-.11.06-.13.03-.04,0-.09-.02-.11-.06-.04-.13-.06-.16-.06h.02s0-.01,0-.01c.02-.03.08-.04.12-.01.03.01.08.04.12,0,.06-.05.04-.17.16-.16.05.03-.01.11,0,.16.01.11.14.13.23.16l-.28.18h0Z"/>
        <path id="path3956" class="cls-4" d="m15.31,27.44s-.08.06-.08.12c.04.08,0,.16-.01.24-.05.01-.12-.02-.18-.04-.06.03-.14.05-.21.08-.03-.02,0-.08.03-.11.06-.05.15-.06.12-.16-.04-.03-.05-.03-.07-.08.11-.05.25-.06.35-.16l.06.11h0Z"/>
        <path id="path3958" class="cls-3" d="m15.68,27.88l.03-.02c.01-.09.06-.28-.07-.36-.08-.06-.21-.08-.33-.06l-.06-.11c0-.08.08-.12.04-.2-.04-.05-.11-.1-.1-.17l.28-.18c.06,0,.17.03.23-.03.06-.06.11-.11.11-.2.07-.04.14-.07.13-.16,0-.31-.2-.55-.26-.84-.03-.02-.06,0-.08.02-.02-.07.08-.18-.04-.2-.07.06-.03.21-.16.23-.13.04-.26.07-.4.09.08-.21.35-.21.46-.41.11-.23.11-.55-.08-.74.08-.14.28-.1.33-.27.09-.15.04-.33.06-.49-.03-.05-.01-.13-.08-.16-.13-.02-.08.13-.16.18,0,.05-.06.06-.09.09-.04-.01-.03.04-.06.01-.07-.43-.21-.86-.54-1.18-.3-.2-.71-.25-.87-.64-.07-.06-.16-.04-.22,0-.14.13-.21.31-.37.43-.08-.04-.11-.21-.23-.16-.16.14-.16.35-.24.52-.02.07-.07.14-.14.17-.02-.07.03-.13.04-.2.06-.11.17-.28.06-.42-.05-.04-.12-.08-.17-.02-.16.15-.19.35-.33.52-.03-.01-.06-.05-.07-.08-.05-.12.09-.28-.06-.35-.18,0-.18.22-.26.34-.02.07-.06.13-.11.18-.03,0-.03-.03-.03-.05-.01-.11.19-.25,0-.33-.16.09-.4.14-.46.35-.04.09-.06.18-.13.25-.02-.09-.04-.23.02-.31,0-.02.01-.08-.03-.08-.17.06-.21.27-.4.29-.06-.1.03-.22,0-.33-.06-.08-.21.03-.23-.08-.02-.02-.05-.02-.07,0-.09.17-.16.38-.33.48-.06.06-.06-.06-.12-.03h0c.06-.1.12-.21.13-.32-.07,0-.13-.06-.2-.03-.02-.06-.03-.12-.06-.18-.17-.15-.43-.16-.64-.09-.05.03-.1.06-.09.11l-.18-.23c-.01-.11-.05-.25-.16-.29l.03-.25s0,0,0,0c.08.06.11.08.22.07.09-.04.16-.1.21-.18.02-.05.02-.11.01-.16l.21-.04s.02.07.07.1c.16.11.35.19.55.17.19-.08.4-.09.61-.09.41-.06.78-.23,1.19-.29.19-.07.35-.19.5-.35.05.03.08.09.13.12.11.02.21.11.33.05.13-.03.24-.11.33-.22.06.03.06.11.09.16.08.11.18.14.31.14.14,0,.25-.09.35-.2.06-.28.32-.45.38-.71.02-.03.04-.06.06-.08.06.11.18.24.1.38-.01.08-.14.16-.05.22.06.02.13.03.18.06.11-.02.19-.04.28-.09.11.23.38.28.55.47.6.51,1.01,1.23,1.28,1.94.16.05.34,0,.48-.06.16-.08.28-.21.3-.38-.06-.74-.43-1.37-.82-1.97-.24-.46-.35-1-.38-1.5-.08-.45.13-.82.01-1.23-.01-.11-.06-.25-.09-.37.11-.02.22.23.28.06.01-.18.09-.38.04-.58-.01-.16-.09-.28-.13-.43.12.04.17.17.22.28.11.28.17.6.09.91,0,.08-.03.18.04.24.12.03.16-.18.28-.17-.18.36-.33.67-.28,1.13-.02.08.01.17,0,.26,0,.26.09.48.2.69.04.01.07.03.11,0,.12-.16.1-.38.22-.54.03-.07.09-.14.16-.17.03.06,0,.15-.02.23-.09.19-.21.38-.18.6-.04.26-.03.57.22.73.03,0,.06.04.09.01.11-.11.04-.27.13-.38.09-.15.23-.27.26-.44.02-.04.08-.08.11-.11-.06.28-.21.52-.28.8-.07.23-.03.55-.04.78.04.08.07.18.16.23.03,0,.07,0,.06-.04.02-.13,0-.24.07-.36.11-.16.29-.23.41-.38h0c-.06.27-.32.45-.34.74-.04.16-.04.34,0,.5,0,.04.06.06.09.05.09-.02.15-.12.21-.19.12-.12.3-.14.41-.27.04.22-.23.31-.35.44-.2.16-.21.45-.44.6-.05.04-.1.1-.07.17.05.09.15.08.23.09.41-.12.66-.61,1.08-.72.17-.03.28.11.35.23.04.14-.05.21-.11.3-.02.01-.05.03-.07.03,0-.04,0-.06.01-.11.05-.07.14-.13.1-.23-.04-.06-.1-.09-.16-.11-.27.03-.45.35-.68.48-.19.14-.4.3-.65.31-.17.01-.19.2-.23.33-.11-.01-.18-.33-.3-.13-.01.15-.06.28-.09.41-.06-.03-.07-.09-.1-.14-.04-.08-.08-.19-.18-.2-.07,0-.13-.03-.19-.02-.08.01-.16.05-.19.13,0,.26.16.47.12.75-.05.18-.08.36-.13.55.01.06.04.13.08.18.13.13.28.01.43-.01.15-.06.26-.19.36-.31.23-.11.4.15.65.03.06-.02.11-.07.17-.07l.02.11c.06,0,.09.06.16.03,0,.14-.17.17-.27.21-.13-.04-.27-.11-.42-.06-.06,0-.12.02-.18.03-.07.11-.18.11-.26.21,0,.04.04.03.06.05.08.01.16.04.26.03,0,.07-.04.15-.08.21-.08.12-.23.08-.3.2,0,.03.04.04.07.04.18,0,.26-.23.44-.22.09-.01.2.02.27-.03,0,.12-.14.18-.23.23-.01.07.07.05.11.09-.12.13-.3-.02-.46.06-.05.02-.14,0-.14.09,0,.06.06.04.09.06.14-.02.25.09.39.12.01.03.06.07.04.1-.14-.09-.29-.04-.45-.06-.06,0-.09.06-.12.11.04.14.22.16.23.33.02.06.01.14,0,.2-.06.03-.12-.04-.14.04v.07c-.11,0-.16-.09-.19-.15-.04-.11-.12-.25-.25-.25-.1.11.03.2.03.31.08.11.22.21.17.36-.13-.04-.2-.2-.28-.3-.02-.01-.06-.02-.08,0-.08.11-.07.27-.15.37,0-.11-.04-.23-.15-.28-.08-.04-.17-.06-.27-.05-.01-.06,0-.13-.02-.18,0-.04-.01-.1-.06-.13-.08.03-.1.12-.11.19-.03.16-.08.33-.1.49-.04.06-.04.16-.13.19-.08.02-.2,0-.25.09l-.12-.06h0Z"/>
        <path id="path3960" class="cls-4" d="m15.8,27.95c-.02.09.11.12.09.23-.11.03-.22.03-.29.13-.02,0-.05-.01-.06-.01-.04-.08.11-.16,0-.21-.03,0-.06-.03-.07-.03.05-.09.16-.06.21-.16l.12.06Z"/>
        <path id="path3962" class="cls-4" d="m9.21,22.69c-.02.06.04.1,0,.15-.09.04-.12.04-.21,0-.06.01-.11.08-.15.1h0c.01.06-.03.06-.06.09-.03-.01,0-.05-.02-.08.03-.01,0-.01,0-.03.04-.04,0-.06.03-.1h0c0-.09-.09-.16.02-.21.1,0,.17-.08.2-.16l.18.23h0Z"/>
        <path id="path3964" class="cls-1" d="m14.63,17.14s.01.06,0,.08c-.05.07-.16,0-.2.09-.13,0-.03-.18-.18-.18-.01,0-.01-.02-.01-.04.13-.11.26.03.38.04h0Z"/>
        <path id="path3966" class="cls-4" d="m13.08,17.44c-.02.16.02.31.14.4.23.06.43.2.66.28.17,0,.34,0,.46.11-.2.11-.4-.06-.61-.06-.26-.06-.66-.08-.71-.43-.04-.15,0-.28.01-.41.04.03,0,.09.04.13Z"/>
        <path id="path3968" class="cls-3" d="m13.78,17.77s-.03.03-.05.05c-.03,0-.05-.04-.05-.06v-.04s.11,0,.1.05Z"/>
        <path id="path3970" class="cls-3" d="m14.03,17.79s-.03.06-.07.06c-.04.01-.08,0-.11-.04,0-.04-.01-.08.02-.09.05.03.12,0,.16.06h0Z"/>
        <path id="path3972" class="cls-1" d="m12.26,17.77s-.05.05-.09.04c-.04,0-.02-.04-.02-.06.03-.03.08-.01.11.02h0Z"/>
        <path id="path3974" class="cls-1" d="m14.94,18.04c0,.2-.04.39-.22.5h-.04c.12-.14.17-.33.16-.53-.04-.07-.06-.16-.12-.21,0-.02,0-.03.02-.04.12.03.19.16.2.29h0Z"/>
        <path id="path3976" class="cls-3" d="m14.2,17.86h0s-.05-.02-.08-.04c.02-.01.09,0,.08.04Z"/>
        <path id="path3978" class="cls-1" d="m16.71,18.59c-.02.27.03.51-.06.75,0,.02-.02.04-.04.04-.02-.04,0-.11.01-.16,0-.21,0-.43-.04-.63,0-.04,0-.08.03-.11.08-.02.08.07.11.11h0Z"/>
        <path id="path3980" class="cls-1" d="m12.08,18.53s-.04.06-.06.07c-.04,0-.08.01-.1-.03.02-.06.09-.03.11-.09.04-.01.05.02.05.05Z"/>
        <path id="path3982" class="cls-1" d="m11.7,18.91c-.05.09-.12.22-.24.23-.03-.06.05-.1.08-.15.14-.15.04-.32.12-.49.1.09.06.29.04.41Z"/>
        <path id="path3984" class="cls-1" d="m14.66,18.55c0,.05-.07.07-.12.09-.02,0-.04,0-.05-.02.03-.07.11-.06.17-.07h0Z"/>
        <path id="path3986" class="cls-1" d="m15.03,18.73c.12.18.09.45.01.64-.01.01-.03.04-.05.03-.06-.09.04-.17,0-.28.04-.02.02-.06.02-.09-.02-.1-.07-.18-.09-.28.03-.01,0-.08.05-.07l.04.05Z"/>
        <path id="path3988" class="cls-1" d="m12.07,18.73s-.03.07-.05.09c-.04,0-.08,0-.08-.05.02-.04.08-.06.13-.04Z"/>
        <path id="path3990" class="cls-1" d="m12.13,18.95c-.01.06-.07.06-.11.08h-.06c0-.08.07-.06.11-.11.03,0,.06,0,.07.04Z"/>
        <path id="path3992" class="cls-1" d="m14.83,19.29c-.06.18-.12.38-.29.51-.01-.21.21-.34.2-.55.04-.08.11-.01.09.04h0Z"/>
        <path id="path3994" class="cls-1" d="m12.25,19.26c0,.08-.1.08-.15.11-.02-.04,0-.06-.01-.09.02-.03.05-.04.07-.05.04,0,.08,0,.09.04Z"/>
        <path id="path3996" class="cls-1" d="m14.54,19.33c-.06.25-.32.46-.57.5,0,0-.01.02-.03.02.02.04.1.03.14,0,.06-.04.12-.06.18-.08-.03.25-.21.47-.43.6-.02,0-.04.02-.07,0,.03-.16.24-.18.25-.35-.21-.06-.41.04-.57.13-.02,0-.09,0-.08-.05.19-.06.22-.31.43-.35.22-.07.49-.09.61-.33l.11-.16s.02.04.03.07h0Z"/>
        <path id="path3998" class="cls-1" d="m14.2,19.3c-.07.12-.17.23-.26.33-.04.04-.09.04-.13.02-.01,0-.03-.04,0-.05.14-.07.22-.27.38-.32l.02.02Z"/>
        <path id="path4000" class="cls-1" d="m13.74,19.35c-.03.12-.19.13-.23.25-.04.01-.1.02-.11,0,.03-.11.18-.14.22-.25.03-.03.11-.04.13,0Z"/>
        <path id="path4002" class="cls-1" d="m12.74,19.34c0,.05-.02.11-.07.14-.03,0-.06-.01-.06-.04.01-.06.08-.11.13-.1Z"/>
        <path id="path4004" class="cls-1" d="m13.32,19.41c-.06.15-.21.26-.35.32-.04,0-.06,0-.08-.03.02-.08.11-.06.15-.13.08-.06.14-.22.27-.18v.02Z"/>
        <path id="path4006" class="cls-1" d="m12.41,19.77c-.06.08-.17.13-.28.11-.02-.01-.05,0-.05-.04.08-.06.21-.08.3-.09l.02.02h0Z"/>
        <path id="path4008" class="cls-1" d="m13.29,19.99c-.21.28-.61.2-.85.44-.03.05-.08.1-.13.1,0-.02,0-.06.01-.08.19-.21.44-.31.71-.37.09-.06.2-.09.24-.2.06,0,.03.08.02.11h0Z"/>
        <path id="path4010" class="cls-1" d="m17.07,20.89h.02c0-.13-.01-.27.08-.35.03.21.04.4-.02.59-.08-.03-.11-.13-.18-.21-.09-.14-.14-.29-.21-.45l.04-.05c.16.12.18.31.27.46h0Z"/>
        <path id="path4012" class="cls-1" d="m13.17,20.5c-.03.06-.13.04-.18.1,0-.01-.03,0-.04,0-.02-.06.02-.09.06-.12.05-.02.13-.03.16.03Z"/>
        <path id="path4014" class="cls-1" d="m14.46,20.6h0s-.01-.01-.01-.01h.01s0,0,0,.01Z"/>
        <path id="path4016" class="cls-1" d="m13.63,20.68c.02.06.01.16.1.18.13-.03.15-.18.25-.23.06.1-.01.21-.08.28-.07.07-.19.12-.29.08-.11-.05-.08-.18-.1-.27.02-.04,0-.13.07-.13,0,0,.04.08.04.08Z"/>
        <path id="path4018" class="cls-1" d="m17.77,21.22c-.04.26-.05.51-.13.76h-.02c-.06-.15-.15-.3-.16-.48.01-.04.07-.04.07,0,.05.04.04.1.08.15.08-.12.01-.33.14-.43h.03s0,0,0,0Z"/>
        <path id="path4020" class="cls-1" d="m20.6,21.41s-.01.01-.02.01c0-.01.01-.01.02-.01Z"/>
        <path id="path4022" class="cls-1" d="m9.5,21.66s-.07.01-.1,0c0-.03.02-.06.05-.08.04.02.09.03.05.09Z"/>
        <path id="path4024" class="cls-1" d="m13.18,21.6c0,.11.15.27,0,.35-.14-.08-.33-.03-.45.02-.19.08-.2.37-.41.41,0-.11.08-.21.15-.31.14-.06.17-.21.18-.33l.06-.05s.04.09.05.14c.13,0,.06-.19.17-.23.05.04.07.11.07.19.13-.02.05-.18.16-.22l.03.03h0Z"/>
        <path id="path4026" class="cls-1" d="m11.82,21.79s0,.03,0,.06c-.04.05-.13,0-.18.04-.16.1-.39.19-.57.1.13-.06.28-.07.41-.14.11-.02.23-.17.34-.05h0Z"/>
        <path id="path4028" class="cls-1" d="m14.63,21.92c-.11.16-.26.25-.43.3,0,0-.01-.01-.03-.02.05-.16.23-.15.33-.26l.14-.13s.01.08,0,.11h0Z"/>
        <path id="path4030" class="cls-1" d="m14.74,22.01c-.02.16-.2.18-.3.27-.01,0-.04.02-.05,0,.05-.16.21-.2.32-.29.01,0,.03.01.03.02Z"/>
        <path id="path4032" class="cls-1" d="m9.03,22.12s-.03.06-.05.04c-.04,0-.04-.01-.04-.04,0-.06.09-.05.09,0Z"/>
        <path id="path4034" class="cls-1" d="m21.41,22.11s0,0,0,.01v-.02s0,0,0,0Z"/>
        <path id="path4036" class="cls-1" d="m21.41,22.13s-.04.02-.05.02c-.01.01.04-.02.05-.02Z"/>
        <path id="path4038" class="cls-1" d="m14.8,22.17c-.03.1-.11.16-.19.21-.03,0-.05,0-.06-.02.04-.05.06-.12.13-.14,0-.04.05-.05.09-.06.01,0,.03,0,.04.01h0Z"/>
        <path id="path4040" class="cls-1" d="m9.73,22.25s.01.09-.02.11c-.11.06-.21-.07-.32-.06-.01-.02-.02-.07.01-.09.11-.09.21.04.33.03h0Z"/>
        <path id="path4042" class="cls-1" d="m10.53,22.27s.02.1-.02.11c-.06,0-.08-.06-.07-.1,0-.06.08-.06.09-.01Z"/>
        <path id="path4044" class="cls-1" d="m10.73,22.3s.01.06-.03.08c-.04,0-.07-.04-.08-.07,0-.03.02-.05.04-.06.04,0,.06.03.07.05h0Z"/>
        <path id="path4046" class="cls-1" d="m10.2,22.32s-.01.05-.04.06c-.04-.02-.05-.07-.03-.11.03-.07.11,0,.06.04Z"/>
        <path id="path4048" class="cls-1" d="m10.35,22.32s0,.06-.04.06c-.05,0-.03-.07-.04-.11.04-.06.07,0,.08.04Z"/>
        <path id="path4050" class="cls-1" d="m14.93,22.3c-.03.07-.11.15-.18.16-.01,0-.04,0-.04-.02.06-.06.13-.21.23-.14Z"/>
        <path id="path4052" class="cls-1" d="m9.18,22.33s-.03.1-.09.08c-.03,0-.05-.05-.05-.07,0-.02,0-.04.02-.05.05,0,.1,0,.11.04h0Z"/>
        <path id="path4054" class="cls-1" d="m15.05,22.4c0,.07-.06.11-.12.14-.03,0-.06,0-.08,0,.04-.07.09-.11.15-.16.02,0,.05,0,.06.03h0Z"/>
        <path id="path4056" class="cls-1" d="m17.97,22.59c0,.13.02.29-.07.37-.02-.1-.06-.21-.03-.31,0-.05-.01-.11.01-.14.04,0,.06.06.09.08Z"/>
        <path id="path4058" class="cls-1" d="m15.15,22.57c0,.07-.06.08-.11.13-.03,0-.06.03-.09,0-.03-.03.01-.06.02-.09.05-.03.13-.15.17-.04h0Z"/>
        <path id="path4060" class="cls-1" d="m15.25,22.73c-.02.06-.09.11-.14.11l-.04-.04c.05-.04.16-.21.19-.07Z"/>
        <path id="path4062" class="cls-1" d="m15.33,22.89s-.08.08-.12.04c-.03-.02,0-.04.01-.06.03-.02.14-.06.11.02Z"/>
        <path id="path4064" class="cls-1" d="m15.42,22.98s-.04.06-.07.07c-.03.01-.06-.01-.06-.04s.03-.05.05-.06c.03,0,.06,0,.08.02h0Z"/>
        <path id="path4066" class="cls-1" d="m17.74,23.07s0,.07-.04.07c-.04,0-.04-.03-.05-.05,0-.03.02-.05.04-.06.03,0,.04.03.06.04h0Z"/>
        <path id="path4068" class="cls-1" d="m15.49,23.11s-.02.08-.06.09c-.03,0-.06,0-.08-.04,0-.03.04-.04.07-.06.03,0,.05-.01.07,0h0Z"/>
        <path id="path4070" class="cls-1" d="m17.64,23.25s-.04.01-.06.01c-.04-.02-.01-.06-.02-.09.03-.06.11.03.08.08Z"/>
        <path id="path4072" class="cls-4" d="m11.08,25.54c-.08-.06-.24.01-.26-.08.01,0,.07-.04.09-.07,0-.04.04-.04.04-.07l-.04-.11s.01,0,.02-.01h0s.03,0,.04.02c0,0,.02.05.05.05.07-.03.14-.06.22-.06.06.04.06.09.07.15-.04.03,0,.09-.03.13,0,0-.21.05-.21.05Z"/>
        <path id="path4074" class="cls-3" d="m11.21,26.59c0-.11,0-.18-.08-.25-.07-.06-.16-.11-.26-.06l-.08-.28c.13.02.23-.09.28-.2.01-.08.1-.2,0-.27l.21-.05c.04.09.14.16.23.18,0,.1.11.04.16.06.11-.09.15-.23.28-.29.22-.12.52-.06.72-.21.08-.09-.01-.2-.05-.29-.06-.08-.14-.21-.07-.32.06-.15.25-.18.33-.33-.02-.09-.09-.17-.05-.28-.01-.04-.06-.06-.11-.06-.04.11-.14.04-.19.13-.12.03-.27.04-.38-.03-.04-.06-.1-.09-.09-.18.01-.04.04-.08.09-.08.01,0,.03,0,.04.01-.06.03-.02.08,0,.12.05.05.12,0,.18-.01.18-.12.4-.33.62-.17.06.03.14-.06.16.04.05.04.09-.03.12-.06.07-.15.22-.23.36-.27.16.03.35,0,.5.05.06-.01.13-.03.18-.02.04.09.02.21.08.3.05.04.1.1.16.09.03-.04-.04-.09-.04-.15,0-.1-.04-.18-.09-.26.02-.03.04-.07.08-.06h.01c-.03.16.08.28.19.36.03,0,.06.04.08,0-.03-.12-.14-.18-.13-.31,0-.06-.06-.14.04-.15h.03c0,.08,0,.21.1.27.04.03.08.07.13.04.03-.06-.04-.12-.06-.18,0-.08-.01-.16-.07-.22l.04-.04c.06.05.13.1.2.18.08.08.08.18.12.28.02.09.03.21.05.32-.06.12-.18.18-.32.21-.12.08-.24.19-.4.21-.14.11-.33.17-.44.33,0-.08.02-.18-.05-.24-.07,0-.06.06-.09.09-.06.25.02.48-.11.7,0,0-.01.05-.03.03-.11-.18,0-.42-.09-.61-.05.04-.03.13-.06.19-.04.3-.04.62,0,.91.02.05.06.08.1.11-.19.16-.3.4-.26.64,0,.11.02.28-.09.35-.08-.08-.09-.2-.07-.31,0-.06.1-.14,0-.16-.04.04-.08.1-.09.16-.07.15-.06.34-.22.44h-.05c-.03-.19-.02-.34.08-.5.01-.03.07-.04.05-.09-.01-.02-.04-.03-.07-.01-.08.18-.2.35-.26.55-.03.07-.07.16-.14.19-.07-.08-.04-.21,0-.3,0-.08.11-.17.02-.24-.16-.04-.18.14-.28.22-.04.04-.1.09-.17.08-.05-.13.18-.23,0-.33-.09-.03-.14.09-.22.13-.06-.03-.12-.08-.19-.06-.08.04-.18.05-.25.08-.08-.04-.1.06-.17.09l-.15-.21h0Z"/>
        <path id="path4076" class="cls-4" d="m11.36,26.81c-.02.07-.03.13,0,.2-.02.02,0,.05-.03.05l-.14-.07c-.15.01-.18.21-.29.23-.06-.04.03-.14.02-.21h0c.01-.06-.04-.14.02-.2h.12c.09-.04.15-.11.15-.21l.15.21h0Z"/>
        <path id="path4078" class="cls-4" d="m10.87,26.28c-.08.01-.18.07-.26.01-.1-.02.01-.14-.08-.15-.09-.02-.18.05-.26,0,.04-.07.21-.03.21-.13.02-.04.08-.12.14-.15.11-.02.09.12.17.14,0,0,.08.28.08.28Z"/>
        <path id="path4080" class="cls-1" d="m15.54,23.3c.01.07-.03.13-.06.16-.04-.04-.06-.11-.04-.18.01-.04.11-.03.11.01h0Z"/>
        <path id="path4082" class="cls-1" d="m17.55,23.34s-.04.04-.07.04c-.03,0-.05-.01-.05-.04,0-.04.04-.05.06-.06.03,0,.08.01.06.06h0Z"/>
        <path id="path4084" class="cls-1" d="m17.4,23.42s-.04.07-.07.06c-.02,0-.05-.03-.05-.05,0-.03.03-.05.04-.08.04,0,.09.02.08.06h0Z"/>
        <path id="path4086" class="cls-1" d="m17.19,23.49s-.01.09-.06.08c-.03,0-.04-.04-.04-.06,0-.02.02-.04.04-.06.03,0,.06.01.06.04Z"/>
        <path id="path4088" class="cls-1" d="m17.83,23.51c.01.06-.06.04-.08.03,0-.02-.02-.07.01-.09.04,0,.04.05.07.06h0Z"/>
        <path id="path4090" class="cls-1" d="m17.02,23.53s0,.06-.02.08c-.04,0-.07-.03-.08-.06,0-.02,0-.05.03-.06.03,0,.07,0,.07.04h0Z"/>
        <path id="path4092" class="cls-1" d="m16.83,23.57s0,.06-.03.07c-.04.01-.05-.04-.06-.06-.01-.07.09-.08.1-.01h0Z"/>
        <path id="path4094" class="cls-1" d="m15.93,23.57s0,.06-.03.06c-.04.02-.07,0-.11-.01-.03-.03,0-.07.02-.08.05,0,.08.02.12.04Z"/>
        <path id="path4096" class="cls-1" d="m17.67,23.61s-.01.04-.03.04c-.02,0-.04-.01-.06-.03,0-.01-.01-.05.01-.05.04-.01.06.01.07.04h0Z"/>
        <path id="path4098" class="cls-1" d="m13.81,23.68s-.01.05-.04.06c-.03,0-.07,0-.06-.04,0-.03-.01-.08.03-.07.04,0,.07.01.07.05Z"/>
        <path id="path4100" class="cls-1" d="m14.07,23.69s-.05.06-.08.08c-.04,0-.11,0-.1-.06,0-.04.01-.04.04-.05.05,0,.11,0,.14.03Z"/>
        <path id="path4102" class="cls-1" d="m13.66,23.73s-.04.04-.06.06c-.04,0-.04-.03-.06-.05,0-.04.02-.06.04-.08.05-.01.11.01.09.07h0Z"/>
        <path id="path4104" class="cls-1" d="m15.98,23.74s-.01.05-.03.06c-.04,0-.08,0-.11-.04,0-.02,0-.03.03-.05.04,0,.09,0,.11.04h0Z"/>
        <path id="path4106" class="cls-1" d="m16.68,23.86s-.02.03-.04.05c-.02,0-.05,0-.05-.02-.01-.04.01-.05.03-.06.02,0,.06,0,.06.03h0Z"/>
        <path id="path4108" class="cls-1" d="m13.22,23.95c0,.06-.07.07-.11.11-.06-.04-.13.06-.15-.03.02-.13.18-.05.23-.15.04,0,.02.04.03.07Z"/>
        <path id="path4110" class="cls-1" d="m16.02,23.93v.05c-.05.01-.09,0-.13-.04-.02-.02-.01-.06.02-.06.04,0,.08,0,.11.05h0Z"/>
        <path id="path4112" class="cls-1" d="m15.02,23.97s0,.07-.04.08c-.03,0-.04-.03-.04-.06.02-.02-.02-.08.03-.07.02,0,.06,0,.06.04h0Z"/>
        <path id="path4114" class="cls-1" d="m16.71,23.96s-.03.06-.05.06c-.03,0-.05.01-.06-.01-.02-.07.07-.07.11-.05Z"/>
        <path id="path4116" class="cls-1" d="m14.85,24.08s-.01.06-.05.05c-.03,0-.03-.03-.04-.04-.02-.09.1-.08.09,0h0Z"/>
        <path id="path4118" class="cls-1" d="m16.01,24.08c0,.05-.05.07-.08.09-.03,0-.03-.03-.05-.05.01-.04.01-.08.06-.09.03,0,.06.01.08.05Z"/>
        <path id="path4120" class="cls-1" d="m16.75,24.13c-.03.05-.08.07-.13.03-.01-.01-.03-.03-.02-.04.03-.04.08-.04.11-.02.01.01.03.02.04.04Z"/>
        <path id="path4122" class="cls-1" d="m14.67,24.14s-.02.06-.05.06c-.02,0-.06-.01-.05-.05,0-.03,0-.06.04-.06.04,0,.05.02.06.05h0Z"/>
        <path id="path4124" class="cls-1" d="m14.12,24.13c0,.05-.05.1-.09.11-.02-.06,0-.11.04-.15.02,0,.04.01.05.04Z"/>
        <path id="path4126" class="cls-1" d="m14.51,24.21s0,.05-.02.06c-.04,0-.06-.01-.08-.04-.02-.03.01-.05.03-.06.03,0,.07,0,.07.04h0Z"/>
        <path id="path4128" class="cls-1" d="m16.75,24.24c.01.06-.05.05-.08.06-.03,0-.04-.01-.06-.03,0-.03,0-.06.04-.06.04,0,.08,0,.1.03h0Z"/>
        <path id="path4130" class="cls-1" d="m14.36,24.3s-.04.04-.06.02c0-.03-.04-.05-.02-.08.03-.06.11,0,.08.06Z"/>
        <path id="path4132" class="cls-1" d="m13.14,24.3c.04.11-.1.15-.11.24-.04.02-.04-.03-.05-.04-.04-.1.06-.16.09-.24.04,0,.06.01.07.04h0Z"/>
        <path id="path4134" class="cls-1" d="m14.25,24.32s-.02.04-.04.05c-.03,0-.03-.03-.05-.04,0-.06.09-.08.09,0h0Z"/>
        <path id="path4136" class="cls-1" d="m15.9,24.33c-.06.05,0,.12-.06.17-.1.02-.02.13-.11.16-.04-.03-.13,0-.14-.07-.01-.08.1-.08.08-.16.03-.06.14-.04.11-.13.04-.04.11-.03.11.03Z"/>
        <path id="path4138" class="cls-1" d="m13.79,24.34c.02.08-.04.14-.09.18-.05-.01,0-.09-.04-.11.02-.04.07-.21.13-.08Z"/>
        <path id="path4140" class="cls-1" d="m16.77,24.4c-.04.06-.09.11-.16.11-.03,0-.07,0-.07-.03.03-.08.14-.09.22-.11v.02s0,0,0,0Z"/>
        <path id="path4142" class="cls-1" d="m13.14,24.67c0,.17-.19.09-.29.15-.03-.02,0-.06.01-.08.06-.04.16-.01.19-.11.04-.02.08,0,.08.04Z"/>
        <path id="path4144" class="cls-1" d="m16.75,24.66c-.03.09-.12.11-.21.11-.03-.01-.08-.04-.04-.08.07-.04.16-.03.23-.07.02,0,.04.01.02.04h0Z"/>
        <path id="path4146" class="cls-1" d="m15.76,24.88s-.04.04-.06.04c-.04.01-.08-.01-.11-.03-.01-.02-.04-.05-.02-.08.07-.06.16,0,.19.07Z"/>
        <path id="path4148" class="cls-1" d="m16.73,24.84c-.01.11-.14.11-.22.16-.02,0-.04,0-.05-.03.04-.13.18-.11.27-.13Z"/>
        <path id="path4150" class="cls-1" d="m13.01,24.96c0,.14-.05.26-.14.35-.02,0-.04.02-.07,0,0-.05.04-.08.06-.14.06-.09,0-.23.08-.3.04,0,.06.04.07.07Z"/>
        <path id="path4152" class="cls-1" d="m16.69,25.1c-.09.06-.16.16-.27.12-.02-.02-.02-.06,0-.07.09-.04.18-.06.27-.08v.03Z"/>
        <path id="path4154" class="cls-1" d="m16.7,25.27c-.06.08-.15.18-.26.17-.01-.02-.02-.04-.01-.07.07-.08.19-.06.27-.12h0s0,.01,0,.01Z"/>
        <path id="path4156" class="cls-1" d="m17.5,25.48c-.01.11-.13.19-.18.29.09.03.15-.05.24-.03-.03.1-.13.16-.23.17.06.04.16,0,.2.05-.04.11-.14.08-.21.1-.04,0-.05-.02-.08,0,0,.04.04.04.05.05.02,0,.05,0,.06,0-.03.11-.18.02-.18.15-.03.04-.07,0-.11-.01-.07.02-.16.04-.21.11.04.03.09.09.14.14,0,.04.01.09-.01.11-.08-.09-.22-.07-.26-.19,0-.05,0-.12.05-.16.15-.12.46-.15.43-.4-.08-.02-.2,0-.22-.11v-.02c.21.03.37-.1.5-.24h.02s0,0,0,0Z"/>
        <path id="path4158" class="cls-1" d="m12.86,25.51s-.02.06-.05.08c-.03,0-.08.01-.06-.04.01-.03.01-.07.06-.07.03,0,.05.01.06.03Z"/>
        <path id="path4160" class="cls-1" d="m12.3,25.58c-.1.17-.33.1-.44.26-.06.06-.09.11-.15.17h-.01c.04-.17.14-.34.31-.4.09.06.06-.06.14-.06.06,0,.11-.01.15.03Z"/>
        <path id="path4162" class="cls-1" d="m12.7,25.66s-.06.01-.09,0c-.01,0,0-.03,0-.04.03-.07.16-.04.1.04Z"/>
        <path id="path4164" class="cls-1" d="m12.57,25.66c0,.05-.04.08-.08.09h-.05s0-.08.02-.11c.03-.02.11-.04.11.02Z"/>
        <path id="path4166" class="cls-1" d="m16.14,25.72s0,.09-.05.08c-.04-.01-.09-.04-.05-.09.01-.05.09-.06.1,0Z"/>
        <path id="path4168" class="cls-1" d="m11.33,25.72s-.02.09-.06.11c-.03,0-.05-.01-.06-.04.02-.04.07-.14.12-.07h0Z"/>
        <path id="path4170" class="cls-1" d="m16.12,26s0,.07-.04.08c-.02,0-.06-.02-.06-.05,0-.03.01-.06.04-.06s.04.02.06.04Z"/>
        <path id="path4172" class="cls-1" d="m11.45,26.29c0,.06.04.15-.03.19-.03.02-.06.04-.11.04-.04-.09.08-.17,0-.26-.07-.09-.18-.09-.28-.13,0-.04.06-.05.11-.05.13-.01.26.08.31.2Z"/>
        <path id="path4174" class="cls-1" d="m16.14,26.25s-.02.04-.03.05c-.04,0-.07-.04-.06-.07.01-.07.09-.04.1.02Z"/>
        <path id="path4176" class="cls-1" d="m16.12,26.51c.01.06-.05.04-.08.04-.03,0-.04-.03-.05-.05,0-.03,0-.06.05-.06.04,0,.06.04.08.07Z"/>
        <path id="path4178" class="cls-1" d="m11.71,26.48c0,.07-.09.11-.14.14-.04,0-.09,0-.11-.04-.01-.07.06-.02.1-.06.04-.04.11-.11.16-.04h0Z"/>
        <path id="path4180" class="cls-1" d="m16.13,26.7s-.06.06-.08.09c-.05.02-.11.01-.15,0-.03-.01-.01-.05-.01-.07.06-.06.15-.02.23-.04v.02h.01Z"/>
        <path id="path4182" class="cls-1" d="m16.23,27.17s-.02.09-.08.07c-.02,0-.04-.02-.04-.04.01-.04.02-.08.06-.08.04,0,.04.04.05.06h0Z"/>
        <path id="path4184" class="cls-1" d="m16.14,27.34s-.02.04-.04.04c-.03,0-.07,0-.07-.04,0-.03.01-.06.04-.07.03,0,.06.03.07.06h0Z"/>
        <path id="path4186" class="cls-1" d="m16.08,27.51s-.01.04-.04.03c-.04,0-.11-.04-.08-.1.04-.07.12.02.11.07Z"/>
        <path id="path4188" class="cls-1" d="m16,27.65s-.03.05-.05.06c-.03,0-.06-.01-.06-.04-.01-.04.02-.06.04-.07.04,0,.08,0,.07.05h0Z"/>
        <path id="path4190" class="cls-1" d="m15.73,28.01s-.03.05-.06.04c-.02,0-.03-.01-.04-.04.01-.04.09-.06.1,0h0Z"/>
        <path id="path4192" class="cls-4" d="m11.27,18.18s.01-.02,0-.02c0-.01-.02-.02-.03-.02,0,0-.02-.01-.03-.02,0,0-.01-.02-.02-.03,0,0-.02-.01-.03-.02-.02-.02-.03-.03-.05-.05-.02-.01-.02-.01-.03,0-.01,0-.02.01-.03.02-.02.02-.04.04-.05.06-.02.02-.03.04-.06.04-.03,0-.06,0-.09.01-.03,0-.06,0-.09.02-.01,0-.04.02-.02.03.01,0,.04.01.04-.01.02.01,0,.02,0,.04.02.01.05.02.06.05,0,.01,0,.02,0,.04,0,.01,0,.03,0,.04,0,.03,0,.05,0,.08,0,.03.03.04.05.04.02,0,.02,0,.03,0,.01-.01.02-.02.03-.02.02,0,.04-.03.07-.04s.04-.03.07-.03c.01,0,.08.01.08-.01,0,0,0,0-.01-.01,0,0,0-.01-.01-.02,0-.01,0-.03,0-.05,0,0,0,0,.01-.01,0,0,0-.02.01-.02.01-.01.03,0,.04-.02.01-.01.02-.04.03-.05h0Z"/>
      </g>
    </g>
  </g>
</svg>