<?xml version="1.0" encoding="UTF-8"?>
<svg id="Ebene_2" data-name="Ebene 2" xmlns="http://www.w3.org/2000/svg" xmlns:xlink="http://www.w3.org/1999/xlink" viewBox="0 0 100 60">
  <defs>
    <style>
      .cls-1, .cls-2, .cls-3, .cls-4 {
        fill: none;
      }

      .cls-2 {
        stroke: #fff;
        stroke-width: .03px;
      }

      .cls-2, .cls-4 {
        stroke-miterlimit: 3.86;
      }

      .cls-3 {
        stroke-miterlimit: 2.66;
        stroke-width: .08px;
      }

      .cls-3, .cls-4 {
        stroke: #010101;
      }

      .cls-5 {
        clip-path: url(#clippath);
      }

      .cls-6, .cls-7 {
        fill: #010101;
      }

      .cls-8, .cls-9 {
        fill: #fff;
      }

      .cls-10 {
        fill: #ebbe06;
      }

      .cls-11 {
        fill: #fdd21a;
      }

      .cls-12 {
        fill: #e1071b;
      }

      .cls-13 {
        fill: #1e9738;
      }

      .cls-14 {
        clip-path: url(#clippath-1);
      }

      .cls-15 {
        clip-path: url(#clippath-4);
      }

      .cls-16 {
        clip-path: url(#clippath-3);
      }

      .cls-17 {
        clip-path: url(#clippath-2);
      }

      .cls-18 {
        clip-path: url(#clippath-7);
      }

      .cls-19 {
        clip-path: url(#clippath-8);
      }

      .cls-20 {
        clip-path: url(#clippath-6);
      }

      .cls-21 {
        clip-path: url(#clippath-5);
      }

      .cls-22 {
        clip-path: url(#clippath-9);
      }

      .cls-23 {
        clip-path: url(#clippath-60);
      }

      .cls-24 {
        clip-path: url(#clippath-69);
      }

      .cls-25 {
        clip-path: url(#clippath-20);
      }

      .cls-26 {
        clip-path: url(#clippath-21);
      }

      .cls-27 {
        clip-path: url(#clippath-24);
      }

      .cls-28 {
        clip-path: url(#clippath-23);
      }

      .cls-29 {
        clip-path: url(#clippath-22);
      }

      .cls-30 {
        clip-path: url(#clippath-25);
      }

      .cls-31 {
        clip-path: url(#clippath-44);
      }

      .cls-32 {
        clip-path: url(#clippath-45);
      }

      .cls-33 {
        clip-path: url(#clippath-40);
      }

      .cls-34 {
        clip-path: url(#clippath-42);
      }

      .cls-35 {
        clip-path: url(#clippath-41);
      }

      .cls-36 {
        clip-path: url(#clippath-47);
      }

      .cls-37 {
        clip-path: url(#clippath-43);
      }

      .cls-38 {
        clip-path: url(#clippath-46);
      }

      .cls-39 {
        clip-path: url(#clippath-48);
      }

      .cls-40 {
        clip-path: url(#clippath-49);
      }

      .cls-41 {
        clip-path: url(#clippath-84);
      }

      .cls-42 {
        clip-path: url(#clippath-88);
      }

      .cls-43 {
        clip-path: url(#clippath-86);
      }

      .cls-44 {
        clip-path: url(#clippath-81);
      }

      .cls-45 {
        clip-path: url(#clippath-83);
      }

      .cls-46 {
        clip-path: url(#clippath-85);
      }

      .cls-47 {
        clip-path: url(#clippath-80);
      }

      .cls-48 {
        clip-path: url(#clippath-87);
      }

      .cls-49 {
        clip-path: url(#clippath-82);
      }

      .cls-50 {
        clip-path: url(#clippath-98);
      }

      .cls-51 {
        clip-path: url(#clippath-89);
      }

      .cls-52 {
        clip-path: url(#clippath-27);
      }

      .cls-53 {
        clip-path: url(#clippath-28);
      }

      .cls-54 {
        clip-path: url(#clippath-26);
      }

      .cls-55 {
        clip-path: url(#clippath-29);
      }

      .cls-56 {
        clip-path: url(#clippath-34);
      }

      .cls-57 {
        clip-path: url(#clippath-35);
      }

      .cls-58 {
        clip-path: url(#clippath-36);
      }

      .cls-59 {
        clip-path: url(#clippath-37);
      }

      .cls-60 {
        clip-path: url(#clippath-39);
      }

      .cls-61 {
        clip-path: url(#clippath-33);
      }

      .cls-62 {
        clip-path: url(#clippath-32);
      }

      .cls-63 {
        clip-path: url(#clippath-30);
      }

      .cls-64 {
        clip-path: url(#clippath-38);
      }

      .cls-65 {
        clip-path: url(#clippath-31);
      }

      .cls-66 {
        clip-path: url(#clippath-95);
      }

      .cls-67 {
        clip-path: url(#clippath-99);
      }

      .cls-68 {
        clip-path: url(#clippath-93);
      }

      .cls-69 {
        clip-path: url(#clippath-94);
      }

      .cls-70 {
        clip-path: url(#clippath-91);
      }

      .cls-71 {
        clip-path: url(#clippath-96);
      }

      .cls-72 {
        clip-path: url(#clippath-90);
      }

      .cls-73 {
        clip-path: url(#clippath-92);
      }

      .cls-74 {
        clip-path: url(#clippath-97);
      }

      .cls-75 {
        clip-path: url(#clippath-53);
      }

      .cls-76 {
        clip-path: url(#clippath-54);
      }

      .cls-77 {
        clip-path: url(#clippath-50);
      }

      .cls-78 {
        clip-path: url(#clippath-51);
      }

      .cls-79 {
        clip-path: url(#clippath-52);
      }

      .cls-80 {
        clip-path: url(#clippath-55);
      }

      .cls-81 {
        clip-path: url(#clippath-56);
      }

      .cls-82 {
        clip-path: url(#clippath-57);
      }

      .cls-83 {
        clip-path: url(#clippath-58);
      }

      .cls-84 {
        clip-path: url(#clippath-79);
      }

      .cls-85 {
        clip-path: url(#clippath-61);
      }

      .cls-86 {
        clip-path: url(#clippath-64);
      }

      .cls-87 {
        clip-path: url(#clippath-62);
      }

      .cls-88 {
        clip-path: url(#clippath-68);
      }

      .cls-89 {
        clip-path: url(#clippath-67);
      }

      .cls-90 {
        clip-path: url(#clippath-73);
      }

      .cls-91 {
        clip-path: url(#clippath-59);
      }

      .cls-92 {
        clip-path: url(#clippath-65);
      }

      .cls-93 {
        clip-path: url(#clippath-63);
      }

      .cls-94 {
        clip-path: url(#clippath-66);
      }

      .cls-95 {
        clip-path: url(#clippath-70);
      }

      .cls-96 {
        clip-path: url(#clippath-75);
      }

      .cls-97 {
        clip-path: url(#clippath-72);
      }

      .cls-98 {
        clip-path: url(#clippath-78);
      }

      .cls-99 {
        clip-path: url(#clippath-71);
      }

      .cls-100 {
        clip-path: url(#clippath-77);
      }

      .cls-101 {
        clip-path: url(#clippath-74);
      }

      .cls-102 {
        clip-path: url(#clippath-76);
      }

      .cls-103 {
        clip-path: url(#clippath-14);
      }

      .cls-104 {
        clip-path: url(#clippath-13);
      }

      .cls-105 {
        clip-path: url(#clippath-12);
      }

      .cls-106 {
        clip-path: url(#clippath-10);
      }

      .cls-107 {
        clip-path: url(#clippath-15);
      }

      .cls-108 {
        clip-path: url(#clippath-17);
      }

      .cls-109 {
        clip-path: url(#clippath-16);
      }

      .cls-110 {
        clip-path: url(#clippath-19);
      }

      .cls-111 {
        clip-path: url(#clippath-11);
      }

      .cls-112 {
        clip-path: url(#clippath-18);
      }

      .cls-4 {
        stroke-width: .12px;
      }

      .cls-9, .cls-7 {
        fill-rule: evenodd;
      }

      .cls-113 {
        clip-path: url(#clippath-100);
      }

      .cls-114 {
        clip-path: url(#clippath-102);
      }

      .cls-115 {
        clip-path: url(#clippath-103);
      }

      .cls-116 {
        clip-path: url(#clippath-104);
      }

      .cls-117 {
        clip-path: url(#clippath-101);
      }
    </style>
    <clipPath id="clippath">
      <path class="cls-1" d="m50.01,44.99c-6.84,0-12.39-5.54-12.39-12.38V15h24.77v17.6c0,6.85-5.54,12.4-12.38,12.4"/>
    </clipPath>
    <clipPath id="clippath-1">
      <path class="cls-1" d="m50.01,44.99c-6.84,0-12.39-5.54-12.39-12.38h24.77c0,6.83-5.54,12.38-12.38,12.38"/>
    </clipPath>
    <clipPath id="clippath-2">
      <path class="cls-1" d="m50.01,44.99c-6.84,0-12.39-5.54-12.39-12.38h24.77c0,6.83-5.54,12.38-12.38,12.38"/>
    </clipPath>
    <clipPath id="clippath-3">
      <path class="cls-1" d="m50.01,44.99c-6.84,0-12.39-5.54-12.39-12.38h24.77c0,6.83-5.54,12.38-12.38,12.38"/>
    </clipPath>
    <clipPath id="clippath-4">
      <path class="cls-1" d="m50.01,44.99c-6.84,0-12.39-5.54-12.39-12.38h24.77c0,6.83-5.54,12.38-12.38,12.38"/>
    </clipPath>
    <clipPath id="clippath-5">
      <path class="cls-1" d="m50.01,44.99c-6.84,0-12.39-5.54-12.39-12.38h24.77c0,6.83-5.54,12.38-12.38,12.38"/>
    </clipPath>
    <clipPath id="clippath-6">
      <path class="cls-1" d="m50.01,44.99c-6.84,0-12.39-5.54-12.39-12.38h24.77c0,6.83-5.54,12.38-12.38,12.38"/>
    </clipPath>
    <clipPath id="clippath-7">
      <path class="cls-1" d="m50.01,44.99c-6.84,0-12.39-5.54-12.39-12.38h24.77c0,6.83-5.54,12.38-12.38,12.38"/>
    </clipPath>
    <clipPath id="clippath-8">
      <path class="cls-1" d="m50.01,44.99c-6.84,0-12.39-5.54-12.39-12.38h24.77c0,6.83-5.54,12.38-12.38,12.38"/>
    </clipPath>
    <clipPath id="clippath-9">
      <path class="cls-1" d="m50.01,44.99c-6.84,0-12.39-5.54-12.39-12.38h24.77c0,6.83-5.54,12.38-12.38,12.38"/>
    </clipPath>
    <clipPath id="clippath-10">
      <path class="cls-1" d="m50.01,44.99c-6.84,0-12.39-5.54-12.39-12.38h24.77c0,6.83-5.54,12.38-12.38,12.38"/>
    </clipPath>
    <clipPath id="clippath-11">
      <path class="cls-1" d="m50.01,44.99c-6.84,0-12.39-5.54-12.39-12.38h24.77c0,6.83-5.54,12.38-12.38,12.38"/>
    </clipPath>
    <clipPath id="clippath-12">
      <path class="cls-1" d="m50.01,44.99c-6.84,0-12.39-5.54-12.39-12.38h24.77c0,6.83-5.54,12.38-12.38,12.38"/>
    </clipPath>
    <clipPath id="clippath-13">
      <path class="cls-1" d="m50.01,44.99c-6.84,0-12.39-5.54-12.39-12.38h24.77c0,6.83-5.54,12.38-12.38,12.38"/>
    </clipPath>
    <clipPath id="clippath-14">
      <path class="cls-1" d="m50.01,44.99c-6.84,0-12.39-5.54-12.39-12.38h24.77c0,6.83-5.54,12.38-12.38,12.38"/>
    </clipPath>
    <clipPath id="clippath-15">
      <path class="cls-1" d="m50.01,44.99c-6.84,0-12.39-5.54-12.39-12.38h24.77c0,6.83-5.54,12.38-12.38,12.38"/>
    </clipPath>
    <clipPath id="clippath-16">
      <path class="cls-1" d="m50.01,44.99c-6.84,0-12.39-5.54-12.39-12.38h24.77c0,6.83-5.54,12.38-12.38,12.38"/>
    </clipPath>
    <clipPath id="clippath-17">
      <path class="cls-1" d="m50.01,44.99c-6.84,0-12.39-5.54-12.39-12.38h24.77c0,6.83-5.54,12.38-12.38,12.38"/>
    </clipPath>
    <clipPath id="clippath-18">
      <path class="cls-1" d="m50.01,44.99c-6.84,0-12.39-5.54-12.39-12.38h24.77c0,6.83-5.54,12.38-12.38,12.38"/>
    </clipPath>
    <clipPath id="clippath-19">
      <path class="cls-1" d="m50.01,44.99c-6.84,0-12.39-5.54-12.39-12.38h24.77c0,6.83-5.54,12.38-12.38,12.38"/>
    </clipPath>
    <clipPath id="clippath-20">
      <path class="cls-1" d="m50.01,44.99c-6.84,0-12.39-5.54-12.39-12.38h24.77c0,6.83-5.54,12.38-12.38,12.38"/>
    </clipPath>
    <clipPath id="clippath-21">
      <path class="cls-1" d="m50.01,44.99c-6.84,0-12.39-5.54-12.39-12.38h24.77c0,6.83-5.54,12.38-12.38,12.38"/>
    </clipPath>
    <clipPath id="clippath-22">
      <path class="cls-1" d="m50.01,44.99c-6.84,0-12.39-5.54-12.39-12.38h24.77c0,6.83-5.54,12.38-12.38,12.38"/>
    </clipPath>
    <clipPath id="clippath-23">
      <path class="cls-1" d="m50.01,44.99c-6.84,0-12.39-5.54-12.39-12.38h24.77c0,6.83-5.54,12.38-12.38,12.38"/>
    </clipPath>
    <clipPath id="clippath-24">
      <path class="cls-1" d="m50.01,44.99c-6.84,0-12.39-5.54-12.39-12.38h24.77c0,6.83-5.54,12.38-12.38,12.38"/>
    </clipPath>
    <clipPath id="clippath-25">
      <path class="cls-1" d="m50.01,44.99c-6.84,0-12.39-5.54-12.39-12.38h24.77c0,6.83-5.54,12.38-12.38,12.38"/>
    </clipPath>
    <clipPath id="clippath-26">
      <path class="cls-1" d="m50.01,44.99c-6.84,0-12.39-5.54-12.39-12.38h24.77c0,6.83-5.54,12.38-12.38,12.38"/>
    </clipPath>
    <clipPath id="clippath-27">
      <path class="cls-1" d="m50.01,44.99c-6.84,0-12.39-5.54-12.39-12.38h24.77c0,6.83-5.54,12.38-12.38,12.38"/>
    </clipPath>
    <clipPath id="clippath-28">
      <path class="cls-1" d="m50.01,44.99c-6.84,0-12.39-5.54-12.39-12.38h24.77c0,6.83-5.54,12.38-12.38,12.38"/>
    </clipPath>
    <clipPath id="clippath-29">
      <path class="cls-1" d="m50.01,44.99c-6.84,0-12.39-5.54-12.39-12.38h24.77c0,6.83-5.54,12.38-12.38,12.38"/>
    </clipPath>
    <clipPath id="clippath-30">
      <path class="cls-1" d="m50.01,44.99c-6.84,0-12.39-5.54-12.39-12.38h24.77c0,6.83-5.54,12.38-12.38,12.38"/>
    </clipPath>
    <clipPath id="clippath-31">
      <path class="cls-1" d="m50.01,44.99c-6.84,0-12.39-5.54-12.39-12.38h24.77c0,6.83-5.54,12.38-12.38,12.38"/>
    </clipPath>
    <clipPath id="clippath-32">
      <path class="cls-1" d="m50.01,44.99c-6.84,0-12.39-5.54-12.39-12.38h24.77c0,6.83-5.54,12.38-12.38,12.38"/>
    </clipPath>
    <clipPath id="clippath-33">
      <path class="cls-1" d="m50.01,44.99c-6.84,0-12.39-5.54-12.39-12.38h24.77c0,6.83-5.54,12.38-12.38,12.38"/>
    </clipPath>
    <clipPath id="clippath-34">
      <path class="cls-1" d="m50.01,44.99c-6.84,0-12.39-5.54-12.39-12.38h24.77c0,6.83-5.54,12.38-12.38,12.38"/>
    </clipPath>
    <clipPath id="clippath-35">
      <path class="cls-1" d="m50.01,44.99c-6.84,0-12.39-5.54-12.39-12.38h24.77c0,6.83-5.54,12.38-12.38,12.38"/>
    </clipPath>
    <clipPath id="clippath-36">
      <path class="cls-1" d="m50.01,44.99c-6.84,0-12.39-5.54-12.39-12.38h24.77c0,6.83-5.54,12.38-12.38,12.38"/>
    </clipPath>
    <clipPath id="clippath-37">
      <path class="cls-1" d="m50.01,44.99c-6.84,0-12.39-5.54-12.39-12.38h24.77c0,6.83-5.54,12.38-12.38,12.38"/>
    </clipPath>
    <clipPath id="clippath-38">
      <path class="cls-1" d="m50.01,44.99c-6.84,0-12.39-5.54-12.39-12.38h24.77c0,6.83-5.54,12.38-12.38,12.38"/>
    </clipPath>
    <clipPath id="clippath-39">
      <path class="cls-1" d="m50.01,44.99c-6.84,0-12.39-5.54-12.39-12.38h24.77c0,6.83-5.54,12.38-12.38,12.38"/>
    </clipPath>
    <clipPath id="clippath-40">
      <path class="cls-1" d="m50.01,44.99c-6.84,0-12.39-5.54-12.39-12.38h24.77c0,6.83-5.54,12.38-12.38,12.38"/>
    </clipPath>
    <clipPath id="clippath-41">
      <path class="cls-1" d="m50.01,44.99c-6.84,0-12.39-5.54-12.39-12.38h24.77c0,6.83-5.54,12.38-12.38,12.38"/>
    </clipPath>
    <clipPath id="clippath-42">
      <path class="cls-1" d="m50.01,44.99c-6.84,0-12.39-5.54-12.39-12.38h24.77c0,6.83-5.54,12.38-12.38,12.38"/>
    </clipPath>
    <clipPath id="clippath-43">
      <path class="cls-1" d="m50.01,44.99c-6.84,0-12.39-5.54-12.39-12.38h24.77c0,6.83-5.54,12.38-12.38,12.38"/>
    </clipPath>
    <clipPath id="clippath-44">
      <path class="cls-1" d="m50.01,44.99c-6.84,0-12.39-5.54-12.39-12.38h24.77c0,6.83-5.54,12.38-12.38,12.38"/>
    </clipPath>
    <clipPath id="clippath-45">
      <path class="cls-1" d="m50.01,44.99c-6.84,0-12.39-5.54-12.39-12.38h24.77c0,6.83-5.54,12.38-12.38,12.38"/>
    </clipPath>
    <clipPath id="clippath-46">
      <path class="cls-1" d="m50.01,44.99c-6.84,0-12.39-5.54-12.39-12.38h24.77c0,6.83-5.54,12.38-12.38,12.38"/>
    </clipPath>
    <clipPath id="clippath-47">
      <path class="cls-1" d="m50.01,44.99c-6.84,0-12.39-5.54-12.39-12.38h24.77c0,6.83-5.54,12.38-12.38,12.38"/>
    </clipPath>
    <clipPath id="clippath-48">
      <path class="cls-1" d="m50.01,44.99c-6.84,0-12.39-5.54-12.39-12.38h24.77c0,6.83-5.54,12.38-12.38,12.38"/>
    </clipPath>
    <clipPath id="clippath-49">
      <path class="cls-1" d="m50.01,44.99c-6.84,0-12.39-5.54-12.39-12.38h24.77c0,6.83-5.54,12.38-12.38,12.38"/>
    </clipPath>
    <clipPath id="clippath-50">
      <path class="cls-1" d="m50.01,44.99c-6.84,0-12.39-5.54-12.39-12.38h24.77c0,6.83-5.54,12.38-12.38,12.38"/>
    </clipPath>
    <clipPath id="clippath-51">
      <path class="cls-1" d="m50.01,44.99c-6.84,0-12.39-5.54-12.39-12.38h24.77c0,6.83-5.54,12.38-12.38,12.38"/>
    </clipPath>
    <clipPath id="clippath-52">
      <path class="cls-1" d="m50.01,44.99c-6.84,0-12.39-5.54-12.39-12.38h24.77c0,6.83-5.54,12.38-12.38,12.38"/>
    </clipPath>
    <clipPath id="clippath-53">
      <path class="cls-1" d="m50.01,44.99c-6.84,0-12.39-5.54-12.39-12.38h24.77c0,6.83-5.54,12.38-12.38,12.38"/>
    </clipPath>
    <clipPath id="clippath-54">
      <path class="cls-1" d="m50.01,44.99c-6.84,0-12.39-5.54-12.39-12.38h24.77c0,6.83-5.54,12.38-12.38,12.38"/>
    </clipPath>
    <clipPath id="clippath-55">
      <path class="cls-1" d="m50.01,44.99c-6.84,0-12.39-5.54-12.39-12.38h24.77c0,6.83-5.54,12.38-12.38,12.38"/>
    </clipPath>
    <clipPath id="clippath-56">
      <path class="cls-1" d="m50.01,44.99c-6.84,0-12.39-5.54-12.39-12.38h24.77c0,6.83-5.54,12.38-12.38,12.38"/>
    </clipPath>
    <clipPath id="clippath-57">
      <path class="cls-1" d="m50.01,44.99c-6.84,0-12.39-5.54-12.39-12.38h24.77c0,6.83-5.54,12.38-12.38,12.38"/>
    </clipPath>
    <clipPath id="clippath-58">
      <path class="cls-1" d="m50.01,44.99c-6.84,0-12.39-5.54-12.39-12.38h24.77c0,6.83-5.54,12.38-12.38,12.38"/>
    </clipPath>
    <clipPath id="clippath-59">
      <path class="cls-1" d="m50.01,44.99c-6.84,0-12.39-5.54-12.39-12.38h24.77c0,6.83-5.54,12.38-12.38,12.38"/>
    </clipPath>
    <clipPath id="clippath-60">
      <path class="cls-1" d="m50.01,44.99c-6.84,0-12.39-5.54-12.39-12.38h24.77c0,6.83-5.54,12.38-12.38,12.38"/>
    </clipPath>
    <clipPath id="clippath-61">
      <path class="cls-1" d="m50.01,44.99c-6.84,0-12.39-5.54-12.39-12.38h24.77c0,6.83-5.54,12.38-12.38,12.38"/>
    </clipPath>
    <clipPath id="clippath-62">
      <path class="cls-1" d="m50.01,44.99c-6.84,0-12.39-5.54-12.39-12.38h24.77c0,6.83-5.54,12.38-12.38,12.38"/>
    </clipPath>
    <clipPath id="clippath-63">
      <path class="cls-1" d="m50.01,44.99c-6.84,0-12.39-5.54-12.39-12.38h24.77c0,6.83-5.54,12.38-12.38,12.38"/>
    </clipPath>
    <clipPath id="clippath-64">
      <path class="cls-1" d="m50.01,44.99c-6.84,0-12.39-5.54-12.39-12.38h24.77c0,6.83-5.54,12.38-12.38,12.38"/>
    </clipPath>
    <clipPath id="clippath-65">
      <path class="cls-1" d="m50.01,44.99c-6.84,0-12.39-5.54-12.39-12.38h24.77c0,6.83-5.54,12.38-12.38,12.38"/>
    </clipPath>
    <clipPath id="clippath-66">
      <path class="cls-1" d="m50.01,44.99c-6.84,0-12.39-5.54-12.39-12.38h24.77c0,6.83-5.54,12.38-12.38,12.38"/>
    </clipPath>
    <clipPath id="clippath-67">
      <path class="cls-1" d="m50.01,44.99c-6.84,0-12.39-5.54-12.39-12.38h24.77c0,6.83-5.54,12.38-12.38,12.38"/>
    </clipPath>
    <clipPath id="clippath-68">
      <path class="cls-1" d="m50.01,44.99c-6.84,0-12.39-5.54-12.39-12.38h24.77c0,6.83-5.54,12.38-12.38,12.38"/>
    </clipPath>
    <clipPath id="clippath-69">
      <path class="cls-1" d="m50.01,44.99c-6.84,0-12.39-5.54-12.39-12.38h24.77c0,6.83-5.54,12.38-12.38,12.38"/>
    </clipPath>
    <clipPath id="clippath-70">
      <path class="cls-1" d="m50.01,44.99c-6.84,0-12.39-5.54-12.39-12.38h24.77c0,6.83-5.54,12.38-12.38,12.38"/>
    </clipPath>
    <clipPath id="clippath-71">
      <path class="cls-1" d="m50.01,44.99c-6.84,0-12.39-5.54-12.39-12.38h24.77c0,6.83-5.54,12.38-12.38,12.38"/>
    </clipPath>
    <clipPath id="clippath-72">
      <path class="cls-1" d="m50.01,44.99c-6.84,0-12.39-5.54-12.39-12.38h24.77c0,6.83-5.54,12.38-12.38,12.38"/>
    </clipPath>
    <clipPath id="clippath-73">
      <path class="cls-1" d="m50.01,44.99c-6.84,0-12.39-5.54-12.39-12.38h24.77c0,6.83-5.54,12.38-12.38,12.38"/>
    </clipPath>
    <clipPath id="clippath-74">
      <path class="cls-1" d="m50.01,44.99c-6.84,0-12.39-5.54-12.39-12.38h24.77c0,6.83-5.54,12.38-12.38,12.38"/>
    </clipPath>
    <clipPath id="clippath-75">
      <path class="cls-1" d="m50.01,44.99c-6.84,0-12.39-5.54-12.39-12.38h24.77c0,6.83-5.54,12.38-12.38,12.38"/>
    </clipPath>
    <clipPath id="clippath-76">
      <path class="cls-1" d="m50.01,44.99c-6.84,0-12.39-5.54-12.39-12.38h24.77c0,6.83-5.54,12.38-12.38,12.38"/>
    </clipPath>
    <clipPath id="clippath-77">
      <path class="cls-1" d="m50.01,44.99c-6.84,0-12.39-5.54-12.39-12.38h24.77c0,6.83-5.54,12.38-12.38,12.38"/>
    </clipPath>
    <clipPath id="clippath-78">
      <rect class="cls-1" x="37.62" y="15" width="24.77" height="16.56"/>
    </clipPath>
    <clipPath id="clippath-79">
      <rect class="cls-1" x="37.62" y="15" width="24.77" height="16.56"/>
    </clipPath>
    <clipPath id="clippath-80">
      <rect class="cls-1" x="37.62" y="15" width="24.77" height="16.56"/>
    </clipPath>
    <clipPath id="clippath-81">
      <rect class="cls-1" x="37.62" y="15" width="24.77" height="16.56"/>
    </clipPath>
    <clipPath id="clippath-82">
      <rect class="cls-1" x="37.62" y="15" width="24.77" height="16.56"/>
    </clipPath>
    <clipPath id="clippath-83">
      <rect class="cls-1" x="37.62" y="15" width="24.77" height="16.56"/>
    </clipPath>
    <clipPath id="clippath-84">
      <rect class="cls-1" x="37.62" y="15" width="24.77" height="16.56"/>
    </clipPath>
    <clipPath id="clippath-85">
      <rect class="cls-1" x="37.62" y="15" width="24.77" height="16.56"/>
    </clipPath>
    <clipPath id="clippath-86">
      <rect class="cls-1" x="37.62" y="15" width="24.77" height="16.56"/>
    </clipPath>
    <clipPath id="clippath-87">
      <rect class="cls-1" x="37.62" y="15" width="24.77" height="16.56"/>
    </clipPath>
    <clipPath id="clippath-88">
      <rect class="cls-1" x="37.62" y="15" width="24.77" height="16.56"/>
    </clipPath>
    <clipPath id="clippath-89">
      <rect class="cls-1" x="37.62" y="15" width="24.77" height="16.56"/>
    </clipPath>
    <clipPath id="clippath-90">
      <rect class="cls-1" x="37.62" y="15" width="24.77" height="16.56"/>
    </clipPath>
    <clipPath id="clippath-91">
      <rect class="cls-1" x="37.62" y="15" width="24.77" height="16.56"/>
    </clipPath>
    <clipPath id="clippath-92">
      <rect class="cls-1" x="37.62" y="15" width="24.77" height="16.56"/>
    </clipPath>
    <clipPath id="clippath-93">
      <rect class="cls-1" x="37.62" y="15" width="24.77" height="16.56"/>
    </clipPath>
    <clipPath id="clippath-94">
      <rect class="cls-1" x="37.62" y="15" width="24.77" height="16.56"/>
    </clipPath>
    <clipPath id="clippath-95">
      <rect class="cls-1" x="37.62" y="15" width="24.77" height="16.56"/>
    </clipPath>
    <clipPath id="clippath-96">
      <rect class="cls-1" x="37.62" y="15" width="24.77" height="16.56"/>
    </clipPath>
    <clipPath id="clippath-97">
      <rect class="cls-1" x="37.62" y="15" width="24.77" height="16.56"/>
    </clipPath>
    <clipPath id="clippath-98">
      <rect class="cls-1" x="37.62" y="15" width="24.77" height="16.56"/>
    </clipPath>
    <clipPath id="clippath-99">
      <rect class="cls-1" x="37.62" y="15" width="24.77" height="16.56"/>
    </clipPath>
    <clipPath id="clippath-100">
      <rect class="cls-1" x="37.62" y="15" width="24.77" height="16.56"/>
    </clipPath>
    <clipPath id="clippath-101">
      <rect class="cls-1" x="37.62" y="15" width="24.77" height="16.56"/>
    </clipPath>
    <clipPath id="clippath-102">
      <rect class="cls-1" x="37.62" y="15" width="24.77" height="16.56"/>
    </clipPath>
    <clipPath id="clippath-103">
      <rect class="cls-1" x="37.62" y="15" width="24.77" height="16.56"/>
    </clipPath>
    <clipPath id="clippath-104">
      <rect class="cls-1" x="37.62" y="15" width="24.77" height="16.56"/>
    </clipPath>
  </defs>
  <g id="Ebene_1-2" data-name="Ebene 1">
    <g id="st-flag-coa">
      <rect id="rect2376" class="cls-11" width="100" height="30"/>
      <rect id="rect2378" class="cls-6" y="30" width="100" height="30"/>
      <g id="g972">
        <g>
          <rect id="rect2610" class="cls-11" x="37.62" y="15" width="24.77" height="16.56"/>
          <rect id="rect2612" class="cls-6" x="37.82" y="16.86" width="24.36" height="1.63"/>
          <rect id="rect2614" class="cls-6" x="37.82" y="20.12" width="24.36" height="1.63"/>
          <rect id="rect2616" class="cls-6" x="37.82" y="26.81" width="24.36" height="1.63"/>
          <rect id="rect2618" class="cls-6" x="37.82" y="23.42" width="24.36" height="1.63"/>
          <rect id="rect2620" class="cls-6" x="37.82" y="30.05" width="24.36" height="1.63"/>
        </g>
        <g id="g2622">
          <g class="cls-5">
            <rect id="rect2630" class="cls-8" x="37.62" y="31.56" width="24.77" height="13.43"/>
          </g>
        </g>
        <path id="path2632" class="cls-2" d="m50.01,44.99c-6.84,0-12.39-5.54-12.39-12.38V15h24.77v17.6c0,6.85-5.54,12.4-12.38,12.4h0Z"/>
        <g>
          <rect id="rect2634" class="cls-6" x="54.71" y="15.07" width="7.69" height="8.41"/>
          <rect id="rect2636" class="cls-8" x="54.77" y="15" width="7.63" height="8.41"/>
          <path id="path2638" class="cls-6" d="m59.36,17.95c-.44,0-.37-.35-.32-.62.06-.27.14-.42.17-.64.02-.14-.03-.19-.12-.23-.12-.05-.17-.05-.28-.08-.15-.04-.24-.13-.39-.11-.05,0-.07.05-.1.09-.05,0-.12-.01-.23,0-.12,0-.24.03-.3.11s-.07.16-.08.24c0,.08-.03.13-.04.21.07-.05.19-.12.28-.12.07,0,.1,0,.17.03-.06.04-.23.12-.39.14-.11.01-.17.01-.28,0-.04,0-.09,0-.1.04-.03.09.26.2.45.19.08,0,.12-.01.19-.05-.01.03-.04.06-.08.1-.01.02-.02.03-.04.06.09-.02.19.01.37-.14.07-.06.11-.09.17-.17-.01.15-.03.24-.08.39-.06.15-.1.28-.19.38-.1.11-.3.18-.45.17-.28,0-.55-.3-.54-.59,0-.3.2-.65.28-.84.03-.1.08-.29,0-.34-.16-.1-.5-.1-.72-.1-.43,0-.55.01-.97.02-.24,0-.38,0-.62.01.01.35.2.56.52.62.21.04.55.03.79.05.04,0,.3,0,.3.04,0,.03-.09.03-.12.03-.25.01-.41.02-.7.02h-.77c0,.14.03.26.13.39.16.19.47.22.65.22.19,0,.34,0,.48,0,.1,0,.26.02.25.05,0,.04-.11.03-.2.03-.44,0-.98,0-1.38,0,0,.14.03.3.15.43.14.15.41.2.6.21.28,0,.5-.01.8,0,.02,0,.06,0,.06,0s-.03.02-.06.02c-.29.04-.5.08-.81.11-.29.03-.45.06-.74.08.06.21.14.35.34.46.15.08.32.1.55.09.33-.01.61-.08.97-.12.03,0,.09-.02.09,0,0,0-.03.02-.06.03-.28.08-.55.17-.9.27-.39.11-.61.17-1.01.26.33.34.48.44.65.46.22.01.52-.13.83-.28.2-.1.38-.18.57-.27.02,0,.05-.02.05-.01,0,0-.03.03-.05.04-.3.18-.56.31-.9.52-.23.14-.35.22-.58.37.22.08.41.18.67.18.15,0,.28-.03.4-.12s.23-.21.39-.35c.14-.13.21-.21.37-.35.02-.01.06-.06.06-.05,0,.01-.03.04-.05.06-.23.29-.38.46-.65.79.29,0,.44,0,.68-.1.3-.12.42-.26.59-.48.02-.03.02.03.01.06-.03.09-.23.27-.36.37-.19.14-.41.27-.62.39.04,0,.06.01.1.03.03.01.05.03.08.06-.1.09-.19.19-.29.26s-.21.1-.32.1c-.1,0-.14,0-.23,0-.03,0-.08-.01-.12-.01-.02,0-.03.02-.04.04-.03,0-.06,0-.08.02-.08.03-.13.08-.14.17,0,.08.02.14.08.18,0-.05.02-.08.06-.11.02-.01.04-.02.07-.03,0,.02.03.03.06.03s.06-.01.09-.02c.03,0,.06,0,.1-.01-.09.06-.16.1-.23.14-.03.02-.05.03-.06.06,0,.02,0,.03.01.06-.03.06-.05.13-.03.21s.11.14.22.17c-.02-.06-.02-.08-.02-.13,0-.03,0-.04.01-.07.03,0,.05,0,.07-.02.03-.04.06-.06.09-.1.04-.05.06-.08.1-.12-.02.08-.03.12-.06.19-.02.06-.03.08-.05.17,0,.02.01.03.03.05,0,.12.03.19.12.24.08.04.22.06.3.03-.07-.03-.11-.06-.14-.13-.02-.03-.03-.06-.03-.1.03,0,.05-.01.06-.06.01-.1.02-.14.03-.23,0-.06.03-.15.04-.14.03.04.06.08.1.14.02.03.04.05.08.04.02,0,.03-.01.04-.03.02.02.03.03.03.06,0,.04,0,.06-.02.11.1.01.19-.03.22-.12.03-.1-.02-.21-.07-.26.02-.04,0-.08-.03-.1-.08-.08-.14-.1-.15-.12-.03-.04-.02-.07,0-.1.05-.07.07-.1.12-.14.06-.06.09-.08.15-.12.03.03.06.06.08.09.03.04.05.07.08.12.04-.08.07-.12.12-.19.06-.08.1-.13.17-.21.07-.07.16-.14.17-.17.02-.03.06.06.08.12.02.05,0,.08,0,.14-.06.22-.21.57-.35.81-.2.34-.45.62-.72.92.1.04.24.06.4.05.15,0,.32-.03.48-.07.08.1.13.14.22.23.12.1.19.15.31.23.12-.08.2-.14.31-.23.1-.08.14-.13.23-.23.17.03.33.06.48.07.15,0,.3,0,.39-.05-.27-.31-.52-.59-.72-.92-.14-.24-.3-.59-.35-.81-.01-.06-.02-.09,0-.14.02-.06.06-.15.08-.12.02.02.11.1.18.17.07.08.1.12.17.21.05.07.08.11.12.19.03-.05.04-.08.08-.12.03-.03.05-.06.08-.09.06.04.1.07.15.12.06.06.08.08.12.14.02.03.03.06,0,.1-.01.02-.08.04-.15.12-.03.03-.04.06-.03.1-.05.04-.1.15-.07.26.03.09.12.13.22.12-.02-.05-.03-.07-.02-.11,0-.03.01-.04.03-.06,0,.01.02.03.04.03.03,0,.06-.01.08-.04.04-.06.07-.1.1-.14.01,0,.03.09.04.14.01.1.02.14.03.23,0,.04.03.06.06.06,0,.04-.01.06-.03.1-.03.07-.08.1-.14.13.08.01.23,0,.3-.03.09-.05.13-.12.12-.24.03,0,.04-.02.03-.05-.01-.08-.03-.1-.05-.17-.02-.08-.03-.12-.06-.19.04.05.06.07.1.12.03.04.06.06.08.1.02.03.04.03.07.02,0,.03.01.04.01.07,0,.05,0,.08-.02.13.1-.03.19-.09.21-.17.03-.08,0-.14-.03-.21.01-.03.02-.05.01-.06,0-.03-.03-.04-.06-.06-.07-.05-.14-.09-.23-.14.04,0,.06,0,.1.01.03,0,.06.02.09.02s.06,0,.06-.03c.03,0,.05,0,.07.03.04.03.06.06.06.11.06-.04.09-.1.08-.18,0-.08-.06-.13-.14-.17-.03-.01-.05-.02-.08-.02,0-.02-.02-.05-.04-.04-.04,0-.08.01-.12.01-.09.01-.14.01-.23,0-.12,0-.22-.03-.33-.1-.11-.07-.19-.17-.29-.26.03-.03.04-.04.08-.06.03-.02.06-.03.1-.03-.21-.12-.43-.25-.62-.39-.13-.1-.33-.28-.36-.37,0-.03,0-.09.01-.06.17.22.3.37.59.48.24.1.39.1.68.1-.28-.33-.43-.5-.65-.79-.02-.02-.06-.06-.05-.06,0,0,.04.03.06.05.17.14.23.22.37.35.14.14.26.26.39.35.12.1.24.12.4.12.26,0,.45-.1.67-.18-.22-.15-.35-.23-.58-.37-.34-.21-.6-.34-.9-.52-.02-.01-.06-.03-.05-.04,0,0,.03,0,.05.01.19.08.37.17.57.27.31.14.61.3.83.28.17-.01.32-.11.65-.46-.4-.1-.62-.15-1.01-.26-.35-.1-.63-.19-.9-.27-.02,0-.06-.01-.06-.03,0,0,.06,0,.09,0,.36.04.63.1.97.12.22.01.4,0,.55-.09.19-.1.28-.24.34-.46-.29-.03-.45-.05-.74-.08-.32-.04-.52-.08-.81-.11-.02,0-.06,0-.06-.02s.03,0,.06,0c.3-.01.52,0,.8,0,.19,0,.46-.06.6-.21.12-.13.14-.28.15-.43-.4,0-.94.02-1.38,0-.09,0-.19,0-.2-.03,0-.03.15-.05.25-.05.15,0,.29,0,.49,0,.18,0,.5-.03.65-.22.1-.12.12-.23.14-.39h-.77c-.3,0-.46,0-.7-.02-.03,0-.12,0-.12-.03,0-.05.26-.03.3-.04.24,0,.57,0,.79-.05.32-.06.5-.27.52-.62-.24,0-.39,0-.62-.01-.41,0-.53-.02-.96-.02-.22,0-.56,0-.72.1-.08.05-.04.24,0,.34.08.19.27.54.28.84,0,.3-.28.59-.56.6"/>
          <path id="path2640" class="cls-6" d="m58.51,22.96c-.1-.06-.15-.1-.24-.17-.12-.1-.18-.16-.27-.28-.17.04-.27.06-.45.06-.14,0-.22,0-.37-.01.23-.28.41-.46.61-.8.2-.34.34-.65.41-.92.01-.05.01-.1,0-.15-.03-.06-.06-.19-.13-.14-.1.07-.16.14-.25.23-.09.1-.13.16-.21.27-.06-.1-.1-.14-.19-.22-.08-.08-.13-.12-.23-.19.18-.12.32-.19.51-.33.14-.11.32-.26.38-.37.03-.06.02-.12,0-.17,0-.03-.04-.05-.09.01-.08.1-.21.26-.36.36-.23.15-.53.22-.79.21.15-.17.23-.27.38-.45.11-.13.17-.2.28-.34.01-.02.03-.04.03-.09s-.06-.03-.1,0c-.2.17-.32.31-.51.48-.23.21-.4.41-.68.41-.23,0-.4-.08-.58-.15.31-.2.48-.31.79-.5.28-.17.49-.28.72-.43.03-.02.03-.06.02-.07-.02-.01-.06,0-.11,0-.17.07-.35.15-.57.26-.3.14-.6.3-.85.31-.21.01-.45-.24-.59-.39.41-.1.63-.15,1.03-.26.32-.09.48-.14.83-.25.07-.02.08-.05.08-.07,0-.04-.03-.06-.11-.05-.26.03-.85.14-1.04.14-.37,0-.68-.08-.79-.46.31-.03.49-.05.8-.1.29-.03.44-.07.73-.11.06,0,.06-.05.06-.07,0-.03,0-.04-.08-.05-.37-.03-.61.02-.94-.01-.32-.03-.57-.21-.59-.54.3,0,.47.01.77.01.28,0,.35,0,.71,0,.05,0,.09-.03.09-.06s0-.07-.06-.08c-.2-.03-.25-.04-.41-.04-.25,0-.48,0-.64-.05-.23-.06-.37-.18-.39-.46.29,0,.46,0,.74,0s.52,0,.74-.02c.02,0,.1-.01.1-.09,0-.07-.12-.08-.16-.08-.3,0-.34,0-.58-.01-.25,0-.5-.03-.63-.13-.19-.13-.21-.23-.23-.41.26,0,.49-.03.74-.03.57,0,1.09-.06,1.41.05.1.03.08.13.06.21-.06.21-.19.41-.28.73-.03.12-.06.3.01.46.09.22.34.41.57.41.18,0,.39-.08.52-.25.14-.18.24-.62.24-.81,0-.2-.1-.32-.1-.46,0-.08.03-.17.12-.17.12,0,.21.08.36.12.12.03.21.06.3.08.07.03.07.12.06.19-.05.23-.12.39-.17.65-.03.14-.06.21-.03.33.01.11.05.19.15.26.07.04.18.06.25.06.23,0,.48-.19.57-.41.07-.17.04-.34.01-.46-.08-.31-.22-.52-.28-.73-.02-.08-.03-.17.06-.21.32-.11.84-.06,1.41-.05.26,0,.49.02.74.03-.03.19-.05.28-.23.41-.14.1-.39.12-.63.13-.23,0-.28.01-.58.01-.03,0-.16.01-.16.08,0,.08.08.09.1.09.23.01.47.02.74.02.29,0,.46,0,.74,0-.03.27-.17.39-.39.46-.17.05-.39.05-.64.05-.17,0-.21,0-.41.04-.06,0-.06.05-.07.08,0,.03.04.06.09.06.36,0,.43,0,.71,0,.3,0,.48,0,.77-.01-.02.33-.28.51-.59.54-.33.03-.57-.01-.94.01-.08,0-.08.01-.08.05,0,.02,0,.06.06.07.3.04.45.07.73.11.31.04.49.06.8.1-.11.37-.43.45-.79.46-.18,0-.79-.1-1.03-.14-.08,0-.1,0-.11.05,0,.02,0,.05.08.07.34.1.5.16.83.25.4.11.63.17,1.03.26-.13.14-.38.39-.59.39-.26-.01-.55-.17-.85-.31-.22-.1-.4-.19-.57-.26-.05-.02-.09-.02-.1,0-.02.01-.01.05.01.07.23.14.44.26.72.43.31.19.49.3.8.5-.18.07-.34.14-.58.15-.28,0-.45-.2-.68-.41-.19-.17-.31-.31-.52-.48-.03-.03-.09-.05-.1,0,0,.04.02.07.03.09.1.14.17.21.28.34.14.17.23.28.37.45-.26,0-.55-.06-.78-.21-.15-.1-.28-.26-.36-.36-.05-.06-.08-.03-.09-.01-.01.05-.02.11,0,.17.06.12.23.26.38.37.19.14.33.21.51.33-.1.06-.14.1-.23.19s-.12.13-.19.22c-.07-.11-.12-.17-.21-.27-.09-.1-.15-.17-.25-.23-.07-.06-.1.08-.13.14-.03.05-.02.1,0,.15.08.28.21.59.41.92s.38.52.62.8c-.14.02-.22.02-.37.01-.18,0-.28-.02-.45-.06-.1.12-.15.18-.27.28-.07.08-.12.12-.22.17"/>
        </g>
        <g>
          <path id="path2642" class="cls-8" d="m57.24,21.68s.02-.03.03-.06c.02-.03.03-.04.06-.06.05.04.06.09.06.14,0,.1-.03.1-.09.13,0-.03,0-.06,0-.09-.01-.02-.03-.04-.06-.06"/>
          <path id="path2644" class="cls-8" d="m56.79,22.02s-.04,0-.07,0c-.02,0-.03,0-.06-.01,0,.04,0,.07.03.1.04.05.08.06.17.09-.02-.02-.03-.04-.05-.07-.01-.05-.02-.07-.02-.1"/>
          <path id="path2646" class="cls-8" d="m56.37,21.77s-.03-.02-.04-.03c-.02-.02-.03-.03-.05-.05-.01.03-.02.06-.02.1,0,.07.03.12.1.15,0-.03,0-.05,0-.08,0-.04,0-.06.02-.09"/>
          <path id="path2648" class="cls-8" d="m56.25,21.19s-.08.02-.11.06c-.04.05-.05.1-.03.16.01-.03.03-.05.06-.07.02-.01.04-.02.08-.02v-.06s0-.04,0-.06"/>
        </g>
        <path id="path2650" class="cls-10" d="m57.31,20.79s.04.03.06.05.03.03.06.06c-.08.05-.11.08-.17.14-.05.06-.08.08-.12.15-.03.05-.03.11,0,.14.04.05.07.05.11.08.03.02.05.03.08.06-.03.03-.06.06-.08.1-.03.04-.06.07-.08.12-.06-.08-.09-.12-.12-.17-.03-.03-.08-.05-.1.03-.02.06-.03.1-.04.17-.01.1-.02.15-.03.23-.04,0-.06,0-.1,0s-.07-.02-.1-.04c.02-.06.03-.1.05-.16.02-.08.03-.1.05-.19,0-.03,0-.06-.01-.08-.03-.02-.06,0-.1.04-.04.06-.06.08-.11.13-.03.03-.04.06-.08.09-.04-.02-.06-.03-.09-.07-.03-.03-.05-.06-.08-.1.06-.04.09-.06.15-.1.06-.04.11-.07.17-.11.02-.01.03-.03.02-.06,0-.03-.05-.03-.08-.02-.05,0-.08.01-.14.02-.03,0-.06,0-.1.01,0-.03,0-.05,0-.08,0-.04,0-.06.01-.1.07.01.11.02.19.03.11,0,.18,0,.3-.03.09-.03.14-.05.22-.1.07-.04.1-.08.16-.14.03-.05.07-.08.12-.12"/>
        <g>
          <path id="path2652" class="cls-8" d="m59.79,21.68s-.02-.03-.03-.06c-.02-.03-.03-.04-.06-.06-.05.04-.06.09-.06.14,0,.1.03.1.09.13,0-.03,0-.06,0-.09,0-.02.02-.04.06-.06"/>
          <path id="path2654" class="cls-8" d="m60.23,22.02s.04,0,.07,0c.02,0,.03,0,.06-.01,0,.04,0,.07-.03.1-.04.05-.08.06-.17.09.02-.02.03-.04.05-.07.01-.05.02-.07.02-.1"/>
          <path id="path2656" class="cls-8" d="m60.66,21.77s.03-.02.04-.03l.05-.05s.02.06.01.1c0,.07-.03.12-.1.15,0-.03,0-.05,0-.08,0-.04,0-.06-.01-.09"/>
          <path id="path2658" class="cls-8" d="m60.77,21.19s.08.02.11.06c.04.05.05.1.03.16-.01-.03-.03-.05-.06-.07-.03-.01-.04-.02-.07-.02v-.06s-.01-.04-.01-.06"/>
        </g>
        <g>
          <path id="path2660" class="cls-10" d="m59.72,20.79s-.04.03-.06.05-.03.03-.06.06c.08.05.12.08.18.14.05.06.08.08.12.15.03.05.03.11,0,.14-.04.05-.07.05-.11.08-.03.02-.05.03-.08.06.03.03.06.06.08.1.03.04.05.07.08.12.06-.08.09-.12.12-.17.03-.03.08-.05.1.03.02.06.03.1.04.17.01.1.02.15.03.23.04,0,.06,0,.1,0s.07-.02.1-.04c-.02-.06-.03-.1-.05-.16-.02-.08-.03-.1-.05-.19,0-.03,0-.06.01-.08.03-.02.06,0,.1.04.04.06.06.08.1.13.03.03.04.06.08.09.04-.02.06-.03.09-.07.03-.03.06-.06.08-.1-.06-.04-.09-.06-.15-.1-.06-.04-.11-.07-.17-.11-.02-.01-.03-.03-.02-.06,0-.03.06-.03.08-.02.05,0,.08.01.14.02.04,0,.06,0,.1.01,0-.03,0-.05,0-.08,0-.04,0-.06-.01-.1-.08.01-.11.02-.19.03-.12,0-.19,0-.3-.03-.09-.03-.14-.05-.23-.1-.07-.04-.1-.08-.16-.14-.03-.05-.06-.08-.11-.12"/>
          <path id="path2662" class="cls-12" d="m57.41,17.04c.1.01.21.01.3,0,.19-.02.3-.08.46-.19h.03c-.1.18-.22.26-.41.28-.14.02-.34-.04-.37-.1"/>
          <path id="path2664" class="cls-10" d="m57.99,17.24c.06-.07.08-.1.13-.17.07-.09.1-.14.17-.22-.02,0-.03-.01-.06-.02-.1-.04-.16-.1-.27-.09-.09,0-.14.02-.21.08.02-.08.01-.11.03-.17.01-.06.02-.08.06-.13.04-.06.13-.08.22-.08s.15,0,.23,0c0,.04-.01.06-.01.1,0,.1.03.15.06.24.01.05.03.1.03.16-.05.06-.08.1-.14.15-.09.06-.17.11-.25.14"/>
          <path id="path2666" class="cls-8" d="m58.6,16.53s-.02.02-.02.04c0,.03,0,.06.04.06.02,0,.04,0,.06-.02,0-.01,0-.03,0-.04.03,0,.04,0,.07,0,.03,0,.05.01.08.05.02.02,0,.06-.03.06-.03.01-.06-.02-.09-.01-.03,0-.03.05-.1.04-.06,0-.12-.05-.12-.11,0-.03-.04-.04-.03-.08,0-.03.04-.03.06-.03.02,0,.06,0,.08.03"/>
        </g>
        <g id="g2668">
          <g class="cls-14">
            <polyline id="polyline2676" class="cls-6" points="37.62 39.52 40.99 39.52 40.99 38.6 42.74 38.6 42.74 39.52 44.24 39.52 44.24 38.6 46 38.6 46 39.52 47.5 39.52 47.5 38.6 49.26 38.6 49.26 39.52 50.76 39.52 50.76 38.6 52.52 38.6 52.52 39.52 54.02 39.52 54.02 38.6 55.78 38.6 55.78 39.52 57.28 39.52 57.28 38.6 59.04 38.6 59.04 39.52 62.39 39.52 62.39 45.64 37.62 45.64 37.62 39.52"/>
          </g>
          <g>
            <g class="cls-17">
              <rect id="rect2678" class="cls-12" x="48.45" y="39.65" width="1.5" height=".78"/>
            </g>
            <g class="cls-16">
              <rect id="rect2680" class="cls-12" x="46.82" y="39.65" width="1.5" height=".78"/>
            </g>
            <g class="cls-15">
              <rect id="rect2682" class="cls-12" x="45.18" y="39.65" width="1.5" height=".78"/>
            </g>
            <g class="cls-21">
              <rect id="rect2684" class="cls-12" x="43.56" y="39.65" width="1.5" height=".78"/>
            </g>
            <g class="cls-20">
              <rect id="rect2686" class="cls-12" x="41.92" y="39.65" width="1.5" height=".78"/>
            </g>
            <g class="cls-18">
              <rect id="rect2688" class="cls-12" x="40.3" y="39.65" width="1.5" height=".78"/>
            </g>
            <g class="cls-19">
              <rect id="rect2690" class="cls-12" x="38.67" y="39.65" width="1.5" height=".78"/>
            </g>
            <g class="cls-22">
              <rect id="rect2692" class="cls-12" x="50.07" y="39.65" width="1.5" height=".78"/>
            </g>
            <g class="cls-106">
              <rect id="rect2694" class="cls-12" x="51.71" y="39.65" width="1.5" height=".78"/>
            </g>
            <g class="cls-111">
              <rect id="rect2696" class="cls-12" x="53.33" y="39.65" width="1.5" height=".78"/>
            </g>
            <g class="cls-105">
              <rect id="rect2698" class="cls-12" x="54.97" y="39.65" width="1.5" height=".78"/>
            </g>
            <g class="cls-104">
              <rect id="rect2700" class="cls-12" x="56.59" y="39.65" width="1.5" height=".78"/>
            </g>
            <g class="cls-103">
              <rect id="rect2702" class="cls-12" x="58.22" y="39.65" width="1.5" height=".78"/>
            </g>
            <g class="cls-107">
              <rect id="rect2704" class="cls-12" x="59.86" y="39.65" width="1.5" height=".78"/>
            </g>
            <g class="cls-109">
              <rect id="rect2706" class="cls-12" x="47.63" y="40.56" width="1.5" height=".79"/>
            </g>
            <g class="cls-108">
              <rect id="rect2708" class="cls-12" x="46" y="40.56" width="1.5" height=".79"/>
            </g>
            <g class="cls-112">
              <rect id="rect2710" class="cls-12" x="44.37" y="40.56" width="1.5" height=".79"/>
            </g>
            <g class="cls-110">
              <rect id="rect2712" class="cls-12" x="42.74" y="40.56" width="1.5" height=".79"/>
            </g>
            <g class="cls-25">
              <rect id="rect2714" class="cls-12" x="41.11" y="40.56" width="1.5" height=".79"/>
            </g>
            <g class="cls-26">
              <rect id="rect2716" class="cls-12" x="39.48" y="40.56" width="1.5" height=".79"/>
            </g>
            <g class="cls-29">
              <rect id="rect2718" class="cls-12" x="50.89" y="40.56" width="1.5" height=".79"/>
            </g>
            <g class="cls-28">
              <rect id="rect2720" class="cls-12" x="52.52" y="40.56" width="1.5" height=".79"/>
            </g>
            <g class="cls-27">
              <rect id="rect2722" class="cls-12" x="54.15" y="40.56" width="1.5" height=".79"/>
            </g>
            <g class="cls-30">
              <rect id="rect2724" class="cls-12" x="55.78" y="40.56" width="1.5" height=".79"/>
            </g>
            <g class="cls-54">
              <rect id="rect2726" class="cls-12" x="57.41" y="40.56" width="1.5" height=".79"/>
            </g>
            <g class="cls-52">
              <rect id="rect2728" class="cls-12" x="59.04" y="40.56" width="1.5" height=".79"/>
            </g>
            <g class="cls-53">
              <rect id="rect2730" class="cls-12" x="46.82" y="41.47" width="1.5" height=".79"/>
            </g>
            <g class="cls-55">
              <rect id="rect2732" class="cls-12" x="45.18" y="41.47" width="1.5" height=".79"/>
            </g>
            <g class="cls-63">
              <rect id="rect2734" class="cls-12" x="43.56" y="41.47" width="1.5" height=".79"/>
            </g>
            <g class="cls-65">
              <rect id="rect2736" class="cls-12" x="41.92" y="41.47" width="1.5" height=".79"/>
            </g>
            <g class="cls-62">
              <rect id="rect2738" class="cls-12" x="40.3" y="41.47" width="1.5" height=".79"/>
            </g>
            <g class="cls-61">
              <rect id="rect2740" class="cls-12" x="51.71" y="41.47" width="1.5" height=".79"/>
            </g>
            <g class="cls-56">
              <rect id="rect2742" class="cls-12" x="53.33" y="41.47" width="1.5" height=".79"/>
            </g>
            <g class="cls-57">
              <rect id="rect2744" class="cls-12" x="54.97" y="41.47" width="1.5" height=".79"/>
            </g>
            <g class="cls-58">
              <rect id="rect2746" class="cls-12" x="56.59" y="41.47" width="1.5" height=".79"/>
            </g>
            <g class="cls-59">
              <rect id="rect2748" class="cls-12" x="58.22" y="41.47" width="1.5" height=".79"/>
            </g>
            <g class="cls-64">
              <rect id="rect2750" class="cls-12" x="47.63" y="42.39" width="1.5" height=".79"/>
            </g>
            <g class="cls-60">
              <rect id="rect2752" class="cls-12" x="46" y="42.39" width="1.5" height=".79"/>
            </g>
            <g class="cls-33">
              <rect id="rect2754" class="cls-12" x="44.37" y="42.39" width="1.5" height=".79"/>
            </g>
            <g class="cls-35">
              <rect id="rect2756" class="cls-12" x="42.74" y="42.39" width="1.5" height=".79"/>
            </g>
            <g class="cls-34">
              <rect id="rect2758" class="cls-12" x="41.11" y="42.39" width="1.5" height=".79"/>
            </g>
            <g class="cls-37">
              <rect id="rect2760" class="cls-12" x="50.89" y="42.39" width="1.5" height=".79"/>
            </g>
            <g class="cls-31">
              <rect id="rect2762" class="cls-12" x="52.52" y="42.39" width="1.5" height=".79"/>
            </g>
            <g class="cls-32">
              <rect id="rect2764" class="cls-12" x="54.15" y="42.39" width="1.5" height=".79"/>
            </g>
            <g class="cls-38">
              <rect id="rect2766" class="cls-12" x="55.78" y="42.39" width="1.5" height=".79"/>
            </g>
            <g class="cls-36">
              <rect id="rect2768" class="cls-12" x="57.41" y="42.39" width="1.5" height=".79"/>
            </g>
            <g class="cls-39">
              <rect id="rect2770" class="cls-12" x="46.82" y="43.3" width="1.5" height=".78"/>
            </g>
            <g class="cls-40">
              <rect id="rect2772" class="cls-12" x="45.18" y="43.3" width="1.5" height=".78"/>
            </g>
            <g class="cls-77">
              <rect id="rect2774" class="cls-12" x="43.56" y="43.3" width="1.5" height=".78"/>
            </g>
            <g class="cls-78">
              <rect id="rect2776" class="cls-12" x="51.71" y="43.3" width="1.5" height=".78"/>
            </g>
            <g class="cls-79">
              <rect id="rect2778" class="cls-12" x="53.33" y="43.3" width="1.5" height=".78"/>
            </g>
            <g class="cls-75">
              <rect id="rect2780" class="cls-12" x="54.97" y="43.3" width="1.5" height=".78"/>
            </g>
            <g class="cls-76">
              <rect id="rect2782" class="cls-12" x="47.63" y="44.21" width="1.5" height=".79"/>
            </g>
            <g class="cls-80">
              <rect id="rect2784" class="cls-12" x="46" y="44.21" width="1.5" height=".79"/>
            </g>
            <g class="cls-81">
              <rect id="rect2786" class="cls-12" x="50.89" y="44.21" width="1.5" height=".79"/>
            </g>
            <g class="cls-82">
              <rect id="rect2788" class="cls-12" x="52.52" y="44.21" width="1.5" height=".79"/>
            </g>
            <g class="cls-83">
              <rect id="rect2790" class="cls-12" x="47.63" y="38.73" width="1.5" height=".79"/>
            </g>
            <g class="cls-91">
              <rect id="rect2792" class="cls-12" x="44.37" y="38.73" width="1.5" height=".79"/>
            </g>
            <g class="cls-23">
              <rect id="rect2794" class="cls-12" x="41.11" y="38.73" width="1.5" height=".79"/>
            </g>
            <g class="cls-85">
              <rect id="rect2796" class="cls-12" x="50.89" y="38.73" width="1.5" height=".79"/>
            </g>
            <g class="cls-87">
              <rect id="rect2798" class="cls-12" x="54.15" y="38.73" width="1.5" height=".79"/>
            </g>
            <g class="cls-93">
              <rect id="rect2800" class="cls-12" x="57.41" y="38.73" width="1.5" height=".79"/>
            </g>
            <g class="cls-86">
              <rect id="rect2802" class="cls-12" x="49.26" y="40.56" width="1.5" height=".79"/>
            </g>
          </g>
          <g class="cls-92">
            <path id="path2804" class="cls-6" d="m50.01,40.43c.97,0,1.76.79,1.76,1.76v3.45h-3.52v-3.45c0-.97.79-1.76,1.77-1.76"/>
          </g>
          <g>
            <g class="cls-94">
              <rect id="rect2806" class="cls-12" x="48.38" y="42.39" width=".52" height=".78"/>
            </g>
            <g class="cls-89">
              <rect id="rect2808" class="cls-12" x="48.38" y="43.3" width=".52" height=".78"/>
            </g>
            <g class="cls-88">
              <rect id="rect2810" class="cls-12" x="48.38" y="44.21" width=".52" height=".79"/>
            </g>
            <g class="cls-24">
              <path id="path2812" class="cls-12" d="m48.6,41.37c.15-.26.37-.47.63-.61l.24.53c-.16.09-.3.21-.39.37l-.48-.28"/>
            </g>
            <g class="cls-95">
              <path id="path2814" class="cls-12" d="m49.02,41.76l-.48-.28c-.1.21-.16.46-.16.7v.06h.52c0-.17.04-.34.12-.49"/>
            </g>
            <g class="cls-99">
              <rect id="rect2816" class="cls-12" x="51.12" y="42.39" width=".52" height=".78"/>
            </g>
            <g class="cls-97">
              <rect id="rect2818" class="cls-12" x="51.12" y="43.3" width=".52" height=".78"/>
            </g>
            <g class="cls-90">
              <rect id="rect2820" class="cls-12" x="51.12" y="44.21" width=".52" height=".79"/>
            </g>
            <g class="cls-101">
              <path id="path2822" class="cls-12" d="m51.42,41.37c-.15-.26-.37-.47-.63-.61l-.24.53c.16.09.3.21.39.37l.48-.28"/>
            </g>
            <g class="cls-96">
              <path id="path2824" class="cls-12" d="m51,41.76l.48-.28c.1.21.16.46.16.7v.06h-.52c0-.17-.04-.34-.12-.49"/>
            </g>
          </g>
          <g class="cls-102">
            <path id="path2826" class="cls-8" d="m50.01,41.28c.54,0,.98.44.98.98v3.39h-1.95v-3.39c0-.54.43-.98.97-.98"/>
          </g>
          <g class="cls-100">
            <path id="path2828" class="cls-12" d="m50.01,40.56c-.23,0-.46.05-.65.14l.24.53c.12-.05.27-.08.41-.08s.28.03.41.08l.24-.53c-.2-.09-.42-.14-.65-.14"/>
          </g>
        </g>
        <g id="g2830">
          <g class="cls-98">
            <path id="path2838" class="cls-6" d="m67.76,31.3c-.3-.2-.7-.12-.9.18-.16.23-.14.52,0,.74-.04.07-.08.14-.12.19.1-.28,0-.59-.25-.77-.3-.2-.7-.12-.9.18-.2.3-.12.7.17.9.21.14.48.14.68.03-.52.48-1.11.42-1.51.15-.39-.27-.62-.64-.58-1.15.27.09.58,0,.74-.26.2-.3.12-.7-.18-.9-.3-.2-.7-.12-.9.17-.17.24-.14.57.04.78-.46.23-.9.17-1.29-.1-.4-.27-.68-.81-.42-1.47-.03.25.07.5.28.64.3.2.7.12.9-.17.2-.3.12-.7-.18-.9-.26-.17-.6-.14-.81.07.04-.07.09-.13.14-.2.26.06.53-.03.69-.27.2-.3.12-.7-.17-.9s-.7-.12-.9.18c-.15.23-.14.52,0,.74-.03.07-.08.14-.12.19.1-.28,0-.59-.25-.77-.3-.2-.7-.12-.9.18-.2.3-.12.7.18.9.21.14.48.14.68.03-.52.48-1.11.42-1.5.15s-.62-.64-.58-1.16c.27.09.58,0,.74-.26.2-.3.12-.7-.17-.9s-.7-.12-.9.18c-.17.24-.14.57.04.78-.46.23-.9.17-1.29-.1-.4-.27-.68-.81-.42-1.47-.03.25.06.5.28.64.3.2.7.12.9-.18.2-.3.12-.7-.18-.9-.26-.17-.6-.14-.81.07.04-.06.09-.13.14-.2.26.06.53-.03.69-.27.2-.3.12-.7-.18-.9-.3-.2-.7-.12-.9.18-.16.23-.14.52,0,.74-.04.07-.08.13-.12.19.1-.28,0-.59-.25-.77-.3-.2-.7-.12-.9.17s-.12.7.18.9c.21.14.48.14.68.03-.52.48-1.1.42-1.5.15-.39-.27-.62-.64-.58-1.16.27.09.58,0,.74-.26.2-.3.12-.7-.17-.9s-.7-.12-.9.18c-.17.25-.14.57.04.78-.46.23-.9.17-1.29-.1-.4-.27-.67-.81-.42-1.47-.03.25.06.5.28.64.3.2.7.12.9-.18.2-.3.12-.7-.17-.9-.26-.17-.6-.14-.81.07.04-.06.09-.13.14-.2.26.06.53-.03.69-.27.2-.3.12-.7-.18-.9-.3-.2-.7-.12-.9.17-.16.23-.14.52,0,.74-.04.07-.08.13-.12.19.1-.28,0-.59-.25-.77-.3-.2-.7-.12-.9.17s-.12.7.17.9c.21.14.48.14.68.03-.52.48-1.1.42-1.5.15-.39-.27-.62-.64-.58-1.16.27.09.58,0,.74-.26.2-.3.12-.7-.18-.9-.3-.2-.7-.12-.9.18-.17.25-.14.57.04.78-.46.23-.9.17-1.29-.1-.4-.27-.68-.81-.42-1.48-.03.25.06.5.28.64.3.2.7.12.9-.18.2-.3.12-.7-.17-.9-.26-.17-.6-.14-.81.07.04-.07.09-.13.14-.19.26.06.53-.04.69-.27.2-.3.12-.7-.17-.9s-.7-.12-.9.17c-.15.23-.14.52,0,.74-.04.07-.08.14-.12.19.1-.28,0-.59-.25-.77-.3-.2-.7-.12-.9.17s-.12.7.18.9c.21.14.48.14.68.03-.52.48-1.11.42-1.5.15s-.62-.64-.58-1.16c.27.09.58,0,.74-.26.2-.3.12-.7-.17-.9s-.7-.12-.9.17c-.17.25-.14.57.04.78-.46.23-.9.17-1.29-.1-.4-.27-.68-.81-.42-1.47-.03.25.07.5.28.64.3.2.7.12.9-.17s.12-.7-.18-.9c-.26-.17-.6-.14-.81.07.04-.07.09-.13.14-.2.26.06.53-.03.69-.27.2-.3.12-.7-.18-.9-.3-.2-.7-.12-.9.18-.15.23-.14.52,0,.74-.03.07-.08.14-.12.19.1-.28,0-.59-.25-.77-.3-.2-.7-.12-.9.18-.2.3-.12.7.18.9.21.14.48.14.68.03-.52.48-1.1.42-1.5.15-.39-.27-.62-.64-.58-1.15.27.09.58,0,.74-.26.2-.3.12-.7-.17-.9s-.7-.12-.9.17c-.17.25-.14.57.04.78-.46.23-.9.17-1.29-.1-.4-.27-.68-.81-.42-1.47-.03.25.06.5.28.64.3.2.7.12.9-.17s.12-.7-.18-.9c-.26-.17-.6-.14-.81.07.04-.06.09-.13.14-.2.26.06.53-.03.69-.27.2-.3.12-.7-.18-.9-.3-.2-.7-.12-.9.18-.16.23-.14.52,0,.74-.04.07-.08.13-.12.19.1-.28,0-.59-.25-.77-.3-.2-.7-.12-.9.18-.2.3-.12.7.17.9.21.14.48.14.68.03-.52.48-1.11.42-1.5.15s-.62-.64-.58-1.16c.27.09.58,0,.74-.26.2-.3.12-.7-.18-.9-.3-.2-.7-.12-.9.18-.17.25-.14.57.04.78-.46.23-.9.17-1.29-.1-.4-.27-.68-.81-.42-1.47-.03.25.06.5.28.64.3.2.7.12.9-.18.2-.3.12-.7-.17-.9-.26-.17-.6-.14-.81.07.04-.06.09-.13.14-.2.26.06.53-.03.69-.27.2-.26.12-.66-.18-.86l-3.63,5.38,31.85,21.48,3.62-5.38"/>
          </g>
          <g>
            <g class="cls-84">
              <path id="path2840" class="cls-13" d="m66.54,33.18l-2.34,3.47-31.83-21.48,2.34-3.47c-.12.62.11,1.25.61,1.59.47.32.96.39,1.47.22.06.51.24.93.7,1.24.57.39,1.19.39,1.77.02-.12.62.11,1.25.61,1.59.47.32.95.39,1.47.22.06.51.24.93.7,1.24.57.39,1.19.39,1.77.02-.12.62.11,1.25.61,1.59.48.32.96.39,1.47.22.06.51.24.93.7,1.24.57.39,1.19.39,1.77.02-.12.62.11,1.24.61,1.59.48.32.96.39,1.47.22.06.51.24.93.7,1.24.57.39,1.19.39,1.77.02-.12.62.11,1.24.61,1.59.47.32.95.39,1.47.22.06.51.24.93.7,1.24.57.39,1.19.39,1.77.02-.12.62.11,1.25.61,1.59.47.32.95.39,1.47.22.06.51.24.93.7,1.24.57.39,1.19.39,1.77.02-.12.62.11,1.25.61,1.59.48.32.96.39,1.47.22.06.51.24.93.7,1.24.57.39,1.18.39,1.76.02"/>
            </g>
            <g class="cls-47">
              <path id="path2842" class="cls-13" d="m49.85,21.19c.18-.27.11-.63-.16-.81-.27-.18-.63-.11-.81.16-.18.27-.11.63.16.81.27.19.63.12.81-.15"/>
            </g>
            <g class="cls-44">
              <path id="path2844" class="cls-13" d="m51.42,22.25c.18-.27.11-.63-.16-.81s-.63-.11-.81.16-.11.63.16.81c.26.18.63.11.81-.16"/>
            </g>
            <g class="cls-49">
              <path id="path2846" class="cls-13" d="m52.01,22.65c.18-.27.54-.34.81-.16.27.18.34.54.16.81s-.54.34-.81.16c-.27-.18-.34-.54-.16-.81"/>
            </g>
            <g class="cls-45">
              <path id="path2848" class="cls-13" d="m54.4,24.26c.18-.27.11-.63-.16-.81s-.63-.11-.81.16-.11.63.16.81c.27.17.63.1.81-.17"/>
            </g>
            <g class="cls-41">
              <path id="path2850" class="cls-13" d="m55.96,25.32c.18-.27.11-.63-.16-.81s-.63-.11-.81.16-.11.63.16.81.63.11.81-.16"/>
            </g>
            <g class="cls-46">
              <path id="path2852" class="cls-13" d="m56.56,25.72c.18-.27.54-.34.81-.16.27.18.34.54.16.81-.18.27-.54.34-.81.16-.27-.17-.34-.54-.16-.81"/>
            </g>
            <g class="cls-43">
              <path id="path2854" class="cls-13" d="m58.95,27.33c.18-.27.11-.63-.16-.81s-.63-.11-.81.16-.11.63.16.81c.26.18.63.11.81-.16"/>
            </g>
            <g class="cls-48">
              <path id="path2856" class="cls-13" d="m60.51,28.38c.18-.27.11-.63-.16-.81-.27-.18-.63-.11-.81.16s-.11.63.16.81c.26.19.63.12.81-.15"/>
            </g>
            <g class="cls-42">
              <path id="path2858" class="cls-13" d="m61.1,28.79c.18-.27.54-.34.81-.16s.34.54.16.81c-.18.27-.54.34-.81.16-.27-.18-.34-.54-.17-.81"/>
            </g>
            <g class="cls-51">
              <path id="path2860" class="cls-13" d="m45.3,18.12c.18-.27.11-.63-.16-.81s-.63-.11-.81.16-.11.63.16.81c.26.18.63.11.81-.16"/>
            </g>
            <g class="cls-72">
              <path id="path2862" class="cls-13" d="m46.87,19.18c.18-.27.11-.63-.16-.81s-.63-.11-.81.16c-.18.27-.11.63.16.81.27.17.63.1.81-.17"/>
            </g>
            <g class="cls-70">
              <path id="path2864" class="cls-13" d="m47.46,19.59c.18-.27.54-.34.81-.16s.34.54.16.81c-.18.27-.54.34-.81.16s-.34-.54-.16-.81"/>
            </g>
            <g class="cls-73">
              <path id="path2866" class="cls-13" d="m40.75,15.06c.18-.27.11-.63-.16-.81s-.63-.11-.81.16-.11.63.16.81c.26.18.63.11.81-.16"/>
            </g>
            <g class="cls-68">
              <path id="path2868" class="cls-13" d="m42.32,16.11c.18-.27.11-.63-.16-.81s-.63-.11-.81.16-.11.63.16.81c.26.18.63.11.81-.16"/>
            </g>
            <g class="cls-69">
              <path id="path2870" class="cls-13" d="m42.91,16.52c.18-.27.54-.34.81-.16.27.18.34.54.16.81-.18.27-.54.34-.81.16s-.34-.54-.16-.81"/>
            </g>
            <g class="cls-66">
              <path id="path2872" class="cls-13" d="m44.98,16.01c.27.18.34.54.16.81-.18.27-.54.34-.81.16-.27-.18-.34-.54-.16-.81.18-.27.54-.34.81-.16"/>
            </g>
            <g class="cls-71">
              <path id="path2874" class="cls-13" d="m49.53,19.08c.27.18.34.54.16.81-.18.27-.54.34-.81.16s-.34-.54-.16-.81c.19-.26.54-.33.81-.15"/>
            </g>
            <g class="cls-74">
              <path id="path2876" class="cls-13" d="m54.09,22.15c-.27-.18-.63-.11-.81.16-.18.27-.11.63.16.81s.63.11.81-.16c.19-.26.12-.63-.15-.81"/>
            </g>
            <g class="cls-50">
              <path id="path2878" class="cls-13" d="m58.63,25.22c-.27-.18-.63-.11-.81.16s-.11.63.16.81.63.11.81-.16c.18-.26.11-.63-.16-.81"/>
            </g>
            <g class="cls-67">
              <path id="path2880" class="cls-13" d="m63.18,28.29c-.27-.18-.63-.11-.81.16s-.11.63.16.81.63.11.81-.16c.18-.26.11-.63-.16-.81"/>
            </g>
            <g class="cls-113">
              <path id="path2882" class="cls-13" d="m67.04,32.38s-.09-.07-.12-.11c-.57,1.02-1.44,1.06-1.99.68-.41-.28-.66-.68-.61-1.23-.03-.01-.07-.03-.1-.06-.03-.02-.06-.05-.09-.08-.49.26-.96.18-1.37-.1-.56-.37-.84-1.2-.11-2.11-.05-.01-.1-.04-.15-.08-.05-.03-.09-.07-.12-.11-.57,1.02-1.43,1.06-1.99.68-.41-.28-.66-.68-.61-1.23-.03-.01-.07-.03-.1-.06-.03-.02-.06-.05-.09-.08-.49.26-.96.18-1.37-.1-.56-.38-.84-1.2-.11-2.11-.05-.02-.1-.04-.15-.08s-.09-.07-.12-.11c-.57,1.02-1.43,1.06-1.99.69-.41-.28-.65-.68-.61-1.23-.03-.01-.07-.03-.1-.06-.03-.02-.06-.05-.09-.08-.49.26-.96.18-1.37-.1-.56-.38-.84-1.2-.11-2.1-.05-.02-.1-.04-.15-.08s-.09-.07-.12-.11c-.57,1.02-1.44,1.06-1.99.69-.41-.28-.66-.68-.61-1.23-.03-.01-.07-.03-.1-.06-.03-.02-.06-.05-.09-.07-.49.25-.96.18-1.37-.1-.56-.38-.84-1.2-.11-2.11-.05-.02-.1-.04-.15-.08s-.09-.07-.12-.11c-.57,1.02-1.44,1.06-1.99.69-.41-.28-.66-.68-.61-1.23-.03-.01-.07-.03-.1-.06-.03-.02-.06-.05-.09-.07-.49.26-.96.18-1.37-.1-.56-.38-.84-1.2-.11-2.11-.05-.01-.1-.04-.15-.08s-.09-.07-.12-.11c-.57,1.02-1.43,1.06-1.99.69-.41-.28-.65-.68-.61-1.23-.03-.01-.07-.03-.1-.06-.03-.02-.06-.05-.09-.08-.49.26-.96.18-1.37-.1-.56-.37-.84-1.2-.11-2.11-.05-.01-.1-.04-.15-.08s-.09-.07-.12-.11c-.6,1.05-1.48,1.1-2.03.72-.41-.28-.66-.68-.61-1.23-.03-.01-.07-.03-.1-.06-.03-.02-.06-.05-.09-.08-.49.26-.96.18-1.37-.1-.56-.38-.84-1.2-.11-2.1-.05-.02-.1-.04-.15-.08l-.36.54c-.28.68-.04,1.43.52,1.81.47.32.94.37,1.46.17.03.54.23.97.7,1.3.56.37,1.35.31,1.87-.21-.28.68-.05,1.43.51,1.81.47.32.94.37,1.46.17.03.54.23.98.7,1.3.56.38,1.35.31,1.87-.2-.28.68-.05,1.43.51,1.81.47.32.94.37,1.46.17.03.54.23.98.7,1.3.56.38,1.34.31,1.87-.2-.28.68-.05,1.43.51,1.81.47.32.94.37,1.46.17.03.54.23.98.7,1.3.56.38,1.34.31,1.87-.2-.28.68-.05,1.43.51,1.81.47.32.94.37,1.46.17.03.54.23.97.7,1.29.56.38,1.34.31,1.87-.2-.28.68-.05,1.43.51,1.81.47.32.94.37,1.46.17.03.54.23.98.7,1.3.56.37,1.34.31,1.87-.21-.28.68-.04,1.43.52,1.81.47.32.94.37,1.46.17.03.54.23.98.7,1.3.56.38,1.34.31,1.87-.2.02,0,.39-.52.38-.53"/>
            </g>
          </g>
          <g class="cls-117">
            <polygon id="polygon2884" class="cls-6" points="33.79 13.07 65.61 34.53 65.59 34.58 33.77 13.11 33.79 13.07"/>
          </g>
          <g class="cls-114">
            <polygon id="polygon2886" class="cls-3" points="33.79 13.07 65.61 34.53 65.59 34.58 33.77 13.11 33.79 13.07"/>
          </g>
          <g class="cls-115">
            <polygon id="polygon2888" class="cls-6" points="32.66 14.75 64.48 36.22 64.45 36.26 32.63 14.79 32.66 14.75"/>
          </g>
          <g class="cls-116">
            <polygon id="polygon2890" class="cls-3" points="32.66 14.75 64.48 36.22 64.45 36.26 32.63 14.79 32.66 14.75"/>
          </g>
        </g>
        <line id="line2892" class="cls-4" x1="37.62" y1="31.47" x2="62.39" y2="31.47"/>
        <g>
          <path id="path2894" class="cls-7" d="m50.01,44.99c-6.84,0-12.39-5.54-12.39-12.38V15h24.77v17.6c0,6.84-5.54,12.39-12.38,12.39m0-.2c-6.74,0-12.19-5.46-12.19-12.19V15.2h24.38v17.4c0,6.74-5.46,12.19-12.19,12.19h0Z"/>
          <path id="path2896" class="cls-6" d="m47.54,32.37c.26-.12.39-.18.64-.27.04-.01.07-.03.11-.03.29-.03.44-.04.72-.05.19,0,.29,0,.48,0,.06,0,.1,0,.16.03.17.12.29.23.47.38.18.15.28.23.47.39-.01.11-.03.17-.08.27-.06.11-.09.17-.17.26.12-.09.19-.19.27-.34.05-.08.07-.13.1-.23.01-.04.04-.06.1-.04.39.13.75.26,1.25.3.08,0,.12.01.22.01.05,0,.09,0,.13.03.23.1.35.17.57.3.24.15.47.27.69.51.19.21.32.3.57.43.17.08.26.08.47.15.03.01.05.03.06.08.07.26.1.43.15.7.06.27.09.42.15.69.16.18.26.27.46.4.16.1.26.15.44.22.08.43.1.68.12,1.1,0,.27,0,.42,0,.69-.03.11-.06.16-.17.23-.07.05-.17.06-.22.06h-1.5c-.1-.09-.14-.2-.11-.34.03-.12.1-.19.22-.23.12-.04.24-.04.39-.04,0-.12-.02-.28-.07-.37-.03-.06-.08-.09-.14-.13-.32-.23-.5-.35-.76-.57-.16-.12-.23-.2-.36-.34,0-.05-.01-.07-.03-.12,0-.03,0-.04-.01-.07.03-.05.05-.08.07-.13.03-.08.04-.12.06-.2-.03.1-.05.14-.1.23-.02.03-.03.05-.06.08.06.23.08.37.11.61.03.19.03.3.04.5-.12.24-.23.39-.39.65-.08.13-.21.28-.32.39-.06.06-.15.06-.24.06h-1.52c-.08-.07-.12-.14-.12-.24,0-.17.1-.32.3-.37.09-.03.21-.03.31-.02.01-.08.02-.12.03-.21,0-.08,0-.12,0-.22,0-.04,0-.08-.03-.11-.1-.13-.21-.26-.3-.46-.04-.08-.06-.14-.08-.23-.25-.03-.39-.05-.63-.09-.21-.03-.33-.06-.54-.09-.18-.14-.36-.25-.52-.29-.03,0-.06,0-.09,0-.03-.06-.05-.09-.07-.14-.02-.06-.04-.13-.07-.33,0,.23.05.4.12.59.07.2.08.25.15.5.01.06.01.09,0,.14-.06.3-.1.43-.18.71-.09.29-.15.51-.26.73-.03.06-.08.14-.14.14h-1.61c-.06-.08-.09-.19-.08-.29,0-.08.04-.16.1-.21s.23-.18.5-.22c0-.3-.01-.43-.01-.71v-.74c-.08-.12-.1-.16-.14-.27-.04-.12-.06-.19-.08-.3,0,.1,0,.17.02.27.03.12.07.21.12.3-.22.21-.36.31-.61.48-.21.14-.34.22-.57.34-.01.1-.02.14-.06.2-.06.09-.15.15-.21.15h-1.32c-.09,0-.21-.33-.1-.44.21-.22.32-.35.5-.6.14-.19.24-.34.35-.51.1-.15.31-.21.53-.32.19-.1.3-.14.5-.21,0,0,.03-.17-.02-.17-.05,0-.19,0-.3-.01-.17-.03-.28-.07-.46-.13s-.27-.1-.43-.19c-.14,0-.22,0-.36-.02-.13-.01-.2-.02-.33-.04,0,0-.06-.21,0-.21.05,0,.07,0,.12-.01.05,0,.13.01.13-.03-.1,0-.16,0-.28.01h-.21s-.11-.08-.19-.17c-.09-.09-.19-.17-.19-.21v-.23s0-.1.05-.1c.09-.02.24-.06.24-.06.11-.1.2-.18.32-.27.13-.11.21-.16.35-.26.05-.22.06-.39.2-.42.19-.04.39-.08.7-.08.03-.12.08-.2.19-.26.14-.08.34-.08.48-.08.12.14.23.31.26.55.02.15-.01.26-.06.39.03-.05.06-.08.07-.13.07-.26-.03-.58-.1-.77,0-.03.33-.1.67-.26"/>
          <path id="path2898" class="cls-6" d="m46.74,35.27s.03.1.03.16c0,.06,0,.1-.01.17-.17.06-.26.1-.43.18-.21.1-.37.17-.52.27-.06.03-.08.08-.12.13-.13.21-.21.31-.35.5-.17.21-.31.38-.46.53-.04.04-.06.08-.05.14.02.11.06.19.1.19h1.18c.07,0,.14-.01.17-.04.07-.06.12-.14.1-.27.26-.13.4-.22.64-.39.21-.14.32-.24.51-.41-.05-.1-.07-.16-.09-.27-.03-.12-.04-.19-.03-.3.02-.12.04-.19.12-.3.01.12.02.18.05.3.03.14.04.23.1.37.03.08.06.12.11.18,0,.26,0,.41,0,.66,0,.33,0,.5.01.84,0,.04-.02.07-.06.08-.08,0-.22.06-.26.07-.13.06-.24.13-.27.26-.01.09.01.22.06.22h1.51c.1,0,.24-.42.34-.76.08-.28.14-.47.19-.71.01-.06.01-.11,0-.17-.03-.09-.11-.35-.18-.55-.07-.21-.08-.37-.1-.57,0-.16.02-.26.13-.36,0,.14,0,.23.02.37.03.17.05.26.11.41.07.01.11.03.17.05.15.06.27.14.43.26.18.03.28.05.46.08.3.05.46.07.76.1.02.11.04.17.09.28.08.18.21.33.32.46.03.03.03.06.03.1,0,.1,0,.17,0,.26,0,.16-.03.31-.08.31-.09-.03-.17-.01-.23-.01-.14,0-.3.08-.32.31,0,.07.05.15.11.15h1.47s.13,0,.17-.04c.14-.16.24-.3.37-.5.12-.19.19-.3.3-.5,0-.18-.01-.28-.03-.46-.03-.26-.06-.39-.11-.64.06-.08.08-.12.12-.21.07-.14.1-.23.12-.38.05.1.06.16.06.27,0,.16-.06.27-.13.39-.03.05.19.24.33.37.15.14.33.28.56.44.11.08.2.13.28.19.1.07.15.14.18.26.03.1.03.2.03.39h-.21c-.18,0-.36.03-.39.24,0,.08.03.19.1.19h1.42c.06,0,.09,0,.14-.03.08-.04.16-.12.17-.18.02-.28.01-.46,0-.76-.01-.38-.04-.59-.1-.97-.19-.07-.28-.12-.45-.23-.17-.12-.32-.25-.43-.39-.03-.03-.03-.08-.05-.12-.08-.38-.11-.49-.17-.81-.04-.2-.07-.32-.1-.52-.17-.06-.26-.07-.39-.12-.19-.08-.34-.17-.48-.28-.12-.09-.19-.19-.3-.3-.17-.17-.31-.24-.52-.37-.23-.14-.48-.26-.62-.33-.04-.02-.07-.03-.12-.03-.12,0-.3,0-.5-.04-.3-.06-.68-.17-.99-.28-.05.12-.08.2-.14.31-.13.23-.28.34-.5.36,0-.02.14-.14.21-.26.08-.13.12-.21.16-.37-.15-.12-.24-.19-.39-.32-.21-.17-.32-.26-.53-.43-.19,0-.3,0-.49,0-.31,0-.48.02-.79.05-.17.07-.27.11-.44.18-.19.08-.29.13-.48.2-.16.06-.25.09-.41.14.04.14.09.31.09.54,0,.14-.02.28-.11.39-.06.07-.15.13-.24.19.06-.12.08-.2.11-.33.02-.1.06-.17.04-.28-.03-.26-.13-.41-.21-.52-.09,0-.25.01-.33.04-.14.06-.21.17-.24.32-.14,0-.22,0-.36.01-.15.01-.27.03-.38.06-.03,0-.06.03-.06.06-.03.1-.06.22-.08.34-.14.08-.21.14-.34.23-.14.11-.32.28-.36.3s-.07.02-.11.03c-.05.01-.08.02-.13.03v.23c.06.06.09.08.14.14l.17.17c.14,0,.22-.01.36,0,.15,0,.38,0,.39.03-.06.06-.1.1-.17.12-.11.03-.17.03-.3.05v.06c.1.01.14.02.23.03.17.02.26.02.43.02.14.07.21.1.35.16.18.07.29.12.48.15.07.01.1.01.17.02.07.03.12.03.21.02"/>
        </g>
        <g>
          <path id="path2900" class="cls-8" d="m54.26,38.28c0,.07.02.14.1.14.03,0,.03,0,.05-.02.02-.02,0-.05.02-.08.02-.05.05-.06.08-.12,0-.02,0-.06-.03-.06-.03,0-.05,0-.09,0-.07-.01-.11.06-.12.13"/>
          <path id="path2902" class="cls-8" d="m54.5,38.28c0,.07.02.14.1.14.03,0,.03,0,.05-.02.02-.02,0-.05.02-.08.02-.05.05-.06.07-.12.01-.02,0-.06-.03-.06-.03,0-.05,0-.09,0-.06-.01-.11.06-.11.13"/>
          <path id="path2904" class="cls-8" d="m51.06,38.28c0,.07.02.14.1.14.03,0,.03,0,.05-.02.02-.02,0-.05.02-.08.02-.05.05-.06.08-.12,0-.02,0-.06-.03-.06-.03,0-.05,0-.09,0-.07-.01-.11.06-.12.13"/>
          <path id="path2906" class="cls-8" d="m51.3,38.28c0,.07.02.14.1.14.03,0,.03,0,.05-.02.02-.02,0-.05.02-.08.02-.05.05-.06.08-.12,0-.02,0-.06-.03-.06-.03,0-.05,0-.09,0-.07-.01-.12.06-.12.13"/>
          <path id="path2908" class="cls-8" d="m47.32,38.28c0,.07.02.14.1.14.03,0,.03,0,.05-.02.02-.02,0-.05.02-.08.02-.05.05-.06.08-.12,0-.02-.01-.06-.03-.06-.03,0-.05,0-.09,0-.07-.01-.11.06-.12.13"/>
          <path id="path2910" class="cls-8" d="m47.56,38.28c0,.07.02.14.1.14.03,0,.03,0,.05-.02.02-.02,0-.05.02-.08.02-.05.05-.06.08-.12,0-.02-.01-.06-.03-.06-.03,0-.05,0-.09,0-.08-.01-.12.06-.12.13"/>
          <path id="path2912" class="cls-8" d="m44.94,37.34c0,.07.02.14.1.14.03,0,.03,0,.05-.03s0-.05.02-.08c.02-.06.05-.06.08-.12,0-.02-.01-.06-.03-.06-.03,0-.05,0-.09,0-.07,0-.12.08-.12.14"/>
          <path id="path2914" class="cls-8" d="m45.18,37.34c0,.07.02.14.1.14.03,0,.03,0,.05-.03.02-.02,0-.05.02-.08.02-.06.05-.06.08-.12,0-.02-.01-.06-.03-.06-.03,0-.05,0-.09,0-.07,0-.11.08-.12.14"/>
          <g>
            <path id="path2916" class="cls-9" d="m45.03,37.44s.01-.06.03-.09c.02-.03.03-.06.06-.08,0,0-.06,0-.1,0-.03.02-.04.04-.04.08,0,.04.01.09.06.1"/>
            <path id="path2918" class="cls-9" d="m45.27,37.44s.01-.06.03-.09c.01-.03.03-.06.06-.08,0,0-.06,0-.1,0-.03.02-.04.04-.04.08,0,.04,0,.09.06.1"/>
            <path id="path2920" class="cls-9" d="m47.42,38.38s.01-.06.03-.09c.01-.03.03-.06.06-.08,0,0-.06,0-.1,0-.03.02-.04.04-.04.08,0,.03,0,.08.06.1"/>
            <path id="path2922" class="cls-9" d="m47.65,38.38s.01-.06.03-.09.03-.06.06-.08c0,0-.06,0-.09,0-.03.02-.04.04-.04.08,0,.03,0,.08.05.1"/>
            <path id="path2924" class="cls-9" d="m51.15,38.38s.01-.06.03-.09c.02-.03.03-.06.06-.08,0,0-.06,0-.1,0-.03.02-.04.04-.04.08,0,.03.01.08.06.1"/>
            <path id="path2926" class="cls-9" d="m51.39,38.38s.01-.06.03-.09c.02-.03.03-.06.06-.08,0,0-.06,0-.1,0-.03.02-.04.04-.04.08,0,.03.01.08.06.1"/>
            <path id="path2928" class="cls-9" d="m54.35,38.38s.01-.06.03-.09c.02-.03.03-.06.06-.08,0,0-.06,0-.09,0-.03.02-.04.04-.04.08,0,.03,0,.08.05.1"/>
            <path id="path2930" class="cls-9" d="m54.59,38.38s.01-.06.03-.09c.02-.03.03-.06.06-.08,0,0-.06,0-.1,0-.03.02-.04.04-.04.08,0,.03.01.08.06.1"/>
          </g>
          <path id="path2932" class="cls-8" d="m45.58,33.4c-.04.07-.06.12-.05.21,0,.11.06.18.14.24v-.09h.06s.06,0,.1-.02c-.06-.03-.1-.06-.14-.12-.06-.07-.09-.12-.12-.22"/>
          <path id="path2934" class="cls-8" d="m45.58,33.53s.03.06.05.09c.03.04.06.06.1.09-.02,0-.03,0-.06,0-.02,0-.03,0-.06,0,0-.02-.01-.03-.02-.05,0-.05-.01-.08,0-.12"/>
        </g>
        <path id="path2936" class="cls-7" d="m49.99,45c-6.84,0-12.39-5.54-12.39-12.38V15.02h24.77v17.6c0,6.84-5.54,12.38-12.38,12.38m0-.19c-6.74,0-12.19-5.46-12.19-12.19V15.22h24.38v17.4c0,6.74-5.46,12.19-12.19,12.19h0Z"/>
      </g>
    </g>
  </g>
</svg>