<?xml version="1.0" encoding="UTF-8"?>
<svg id="Ebene_2" data-name="Ebene 2" xmlns="http://www.w3.org/2000/svg" xmlns:xlink="http://www.w3.org/1999/xlink" viewBox="0 0 407.9 487.83">
  <defs>
    <style>
      .cls-1 {
        fill: none;
      }

      .cls-2 {
        clip-path: url(#clippath);
      }

      .cls-3 {
        fill: #d00;
      }

      .cls-3, .cls-4, .cls-5 {
        fill-rule: evenodd;
      }

      .cls-4 {
        fill: #fff;
      }
    </style>
    <clipPath id="clippath">
      <rect class="cls-1" width="407.9" height="487.83"/>
    </clipPath>
  </defs>
  <g id="Ebene_1-2" data-name="Ebene 1">
    <g id="ni-coa.svg">
      <g class="cls-2">
        <g>
          <g>
            <path class="cls-3" d="m3.95,3.95v280c.04,110.43,89.57,199.93,200,199.93s199.96-89.5,200-199.93V3.95H3.95Z"/>
            <path d="m203.95,487.88c-54.48,0-105.7-21.21-144.23-59.73C21.2,389.65-.03,338.43-.05,283.96V-.04h408v284c-.02,54.48-21.25,105.69-59.78,144.2-38.53,38.51-89.75,59.73-144.22,59.73ZM7.95,7.96v276c.04,108.04,87.96,195.93,196,195.93s195.96-87.89,196-195.93V7.96H7.95Z"/>
          </g>
          <path class="cls-5" d="m206.91,162.41c3.75-1.04,3.97-8.35,3.1-12.07-3.17-6.06,5.22-11.34,1.43-18.26-.17-4.28-5.4-6.81-2.6-10.9,1.87-7.98-1.51-16.61-7.61-21.35-.06-7.13-.34-17.05-8.19-19.71-5.24-.64-3.08-6.05-5.27-9.49-2.33-3.08-5.76-4-6.62-8.12-3.85-7.16-14.35-1.25-17.67-8.31-3.14-6.14-3.16-13.53-4.98-19.82-6.56-1.76-8.4,6.67-9.77,11.4-3.27-2.21,4.23-9.34-4.61-6.21,1.86-8.11-6.3-4.8-7.94-.31-.34,5.86-6.8,2.66-10.24,5.3-4.5,2.04-4.62,9.29-1.57,12.54-4.03,2.69-12.49,1.25-12.69,8.46-5.25,4.46-10.61,8.28-15.8,13.04-5,.6-7.63,5.39-11.3,8.35-2.67,5.73,1.67,11.42-.11,17.46-1.07,9.32,11.59,4.33,12.51,9.98,1.98,6.11,9.25,2.53,13.6,3.63,6.49-.76,5.66-12.4,13.13-9.42,4.06,1.69,8.22-1.35,11.71-1.41,4.89,6.36-.41,15.17-4.46,20.58-6.76,7.8-14.85,16.38-14.85,27.83-2.74,4.49-8.28,6.87-9.88,12.47-2.24,2.48-.07,12.69-5.23,7.47-6.24-3.32-13.74-4.17-17.81-10.75-5.69-1.62-12.24-1.62-18.11-1.49-4.96,1.07-6.74,6.24-8.49,10.29-5.85,6.97-11.57,15.66-19.39,20.93-2.87,3.45-8.38,5.04-8.56,10.29-3.19,6.3,1.14,13.39-.42,20.3-.62,6.15-.79,13.26,6.38,14.85,3.55,2.97,8.15,8.48,12.76,5.91,3.31-8.83,7.26-18.77,4.35-28.17-2.82-2.06-4.1-5.42-7.53-6.52-1.36-4.72,4.11-8.72,6.07-2.86,8.25-1.47,9.8-12.13,13.57-18.72,2.01-8,13.22-8.34,16.35-1.07,4,5.93,9.12,12.27,13.39,17.5-7.58,0-14.68-3.18-21.29-6.33-5.52-1.68-8.43,3.38-10.35,7.62-5.5,2.91-8.08,10.25-4.87,15.9,1.19,12.46,1.6,25.09-1.36,37.23-2.4,6.58,3.18,10.94,2.99,17.14.5,5.68,5.5,8.88,5.65,14.52,2.31,5.14,9.02,4.56,13.5,7.13,6.13,2.75,11.61-1.13,9.31-7.95-.35-7.29.37-17.07-5.54-21.94-4.64-1.21-13.25-.99-9.95-8.84,4.35-1.88,8.71-3.14,5.78-9.26-3.06-8.07-7.11-16.4-4.75-25.44,2.66-6.26,11.58-2.25,14.3,2.19,9.31,10.17,19.77,20.83,33.8,23.25,6.91.35,12.53,9.45,19.79,5.64,1.63-5.34,6.51-4.42,10.6-2.04,7.9,3.45,14.85,9.14,23.42,10.95,13.79,4.95,28.72,3.91,42.87,1.22,7.3-.76,14.33,3.65,17.34,10.29,4.18,6.05,11.69,3.61,17.56,4.88,3.74,7.51,12.62,6.18,19.53,7.05,9.89,5.34,13.83,17.39,18.03,27.41,5.3,11.93,4.83,27.09-3.55,37.17-2.34,5.45-11.08,4.99-10.5,12.27-1.41,6.33-8.13,12.26-7.13,19.63,6.82,2.73,15.24.99,22.3-.74,7.48-1.27,15.67-7.1,13.62-16.15-3.37-4.46-1.14-9.52,2.63-12.81,1.49-3.9,3.56-6.92,7.9-6.4,5.66,2.11,3.2-7.32,2.89-10.71-.8-6.02-5.38-10.51-6.84-16.54-1.14-3.98-4.35-15.75,1.94-8.96,7.32,7.68,13.62,16.69,15.07,27.87,2.72,9.21.78,18.77-1.61,27.71-2.39,4.94-5.71,9.67-10.68,11.86-1.63,3.63-2.77,7.23-5.12,10.64-1.45,5.11-6.94,10.26-4.35,15.48,11.07,2.07,23.93.21,32.59-7.58,3.74-6.46-2.97-15.33,3.59-20.69,2.07-4.32,5.79-6.22,10.33-6.8,5.96-1.36,3.77-10.38,2.76-14.98-4.08-8.7-8.77-17.2-9.91-27.1-2.35-6.3-4.6-13.14-3.51-19.86-2.72-9.38-14.6-9.28-19.13-17.15-3.65-5.78-7.37-11.74-12.47-16.5.29-7.84,3.07-16.18,0-24.13-2.69-7.56.31-16.21-2.85-23.9-.67-3.91-2.73-7.49-3.58-11.13,8.03.84,16.22-3.61,19.2-11.4,5.15-5.12,11.45,3.87,7.02,8.77-3,5.06-8.24,9.46-7.79,16.24-1.4,10.83,4.91,20.05,12.33,26.53,3.8,4.81,1.88,13.87-4.61,10.75.01,7.2,8.98,3.83,12.25,1.26,2.97-5.92,4.44-9.9,3.58.11-.44,3.58-8.52,8.01-.73,6.82,5.58-1.56,6.89-8.34,8.08-13.08-.83,8.44,4.02,3.36,4.1-1.6,1.38-.89,1.05,10.83-.95,14.52-2.35,5.17-11.53,9.65-14.6,3.35-4.43,5.45,6.36,9.04,10.64,6.63,10.56-2.85,17.28-14.34,17.63-25.2-.33-4.96-3.12-9.1-4.98-13.34,5.01,3.66,12.33,2.83,14.41-3.58,2.39-8.82-5.61,2.74-9-3.35-5.65-8.77,3.68-17.28,2.85-26.42,2.17-8.26-2.38-16.02-6.91-22.15,2.49-10.2,2.2-22.71-6.36-29.7-4.2-5.3-11.62-4.77-17.52-5.49-4.87-11-19.85-10.15-29.12-5.68-12.3,5.02-19.05,23.56-10.32,34.72,5.59,2.82,9.12,11.98,2.52,15.74-6.01,5.03-14.09-.72-19.42-4.19-10.8-9.27-25.1-14.41-39.32-13.02-15.02,1.74-30.43-1.93-43.64-9.16-4.08-2.44-2.5-4.29.11-7.2.63-2.32,2.32-3.58,3.12-5.62h0s0,0,0,0Z"/>
          <g>
            <path class="cls-4" d="m206.18,163.39c-3.99-3.52.03-8.06-1.56-12.17-4.99-5.31-5.65-4.87-1.5,1.11-3.23,1.99-7.45-5.04-9.04-6.86,1.11,6.03,8.32,7.62,8.6,14.3-.64,6.6-2.76,7.74-2.93.65-.5-5.45-7.74-5.74-7.65-11.55-1.7,3.31,2.82,7.08,5.38,9.11,2.26,3.26,1.79,11.48-3.18,10.75,3.31-5.2.1-9.91-4.06-12.65-3.43-4.74-.88,5.53.18,9.72-2.74-5.82-.09,10.74,3.68,5.52,12.33,10.87,29.26,16.02,45.3,15.52,10.12.35,20.68-.65,30.25,3.74,11.69,3.7,19.79,15.04,32.47,15.79,6.86.11,12.95-7.45,9.39-14.27-1.33-6.04-9.11-8.3-9.23-15.05-1.78-8.75,3.12-18.12,10.54-22.22,6.64-4.52,16.61-5.35,23.82-1.66,3.87,1.18,3.4,7.53,7.82,7.07,7.22-.43,14.4,2.19,18.03,9.03,5.23,7.07,1.62,16.38,2.38,24.32,3.45,5.53,7.57,11.17,6.66,18.41-.12,6.46-2.12,13.1-4.86,18.53.06-7.41,3.87-15.01.51-22.18,2.67,9.63-4.76,19.05-.95,28.51,1.02,4.26,4.12,8.24,7.68,9.38-8.83.45-15.14-9.93-12.86-18.63.17-7.18,3.23-16.09-2.76-21.63.35,4.45,2.06,11.69.7,17.27-2.84,8.89-2.14,19.33,3.84,26.46,5.92,9.24,4.62,24.58-4.76,30.49.42-2.79,3.19-6.98,2.74-10.83,3.38-10.2-4.59-18.36-9.84-25.5-6.02-8.2,1.29-18.29-1.98-26.87.18,3.07.4,8.13-.91,11.93-2.55,8.32,1.04,16.42,5.99,22.6,3.89,10.86.18,6.76-3.38,1.26-3.64-6.46-11.29-10.97-11.06-19.45-1.7,4.75,2.04,11.11,5.78,14.52,3.86,5.45,7.7,13.04,4.43,19.82-1.81-6.04-3.09-14.34-9.44-17.73-4.99-4.53-8.79-10.63-8.45-17.92-2.05,5.36,1.73,12.78,5.3,17.35,3.31,3.88,6.98,11.98,2.52,15.78.37-6.89-3.89-12.01-8.63-16.01-6.14-6.39-7.12-16.75-4.83-25.12,4.73-5.07,11.3-12.47,6.04-19.78-1.37-2.49-9.57-2.46-3.88-4.73,3.9-3.37,10.63,9.26,9,3.01-2.65-6.6-12.74-7.44-15.29-.46-1.97,10.23-13.92,15.42-22.72,10.83-6.9.44,4.21,5.96,3.66,10.25,3.01,8.11,3.95,17.26,2.82,26,2.95,8.33,4.16,18,.36,26.16,4.43,3.24,8.71,8.37,11.53,13.71,3.18,5.66,7,11.39,13.24,13.84,2.98,2.39,7.93,4.76,7.64,9.07-.12,9.57,3.76,18.92,6.36,28.09,1.7,9.52,9.89,16.92,7.94,27.37-2.99,3.52-10.03-.89-9.92,3.8-1.06,5.53-6.77,8.62-8.19,13.93-8.8-1.33,7.05,5.93.82,6.28-4.3-3.42-11.82-2.83-15.78-3.27,5.52,2.93,14.85.56,17.16,8.07-6.49,7.36-17.48,8.6-26.63,8.17-3.64-2.42,1.58-7.23,2.38-10.48,1.48-4.18,5.47-6.78,5.17-11.48,6.32-2.57,9.66-9.51,13.15-15.17,1.39,5.95,2.93.72,7.97-.63.05-2.64-9.28-1.36-7.53-6.46,2.89-8-.45-16.82-1.78-24.89-1.58-7.4-5.11-13.47-9.63-19.14-4.41-6.96-11.65-10.37-19.09-12.62-9.21-2.48-17.72-7.35-23.74-14.52-3.94-3.39-7.81-6.95-13.13-7.81-7.18-.94-11.55-7.28-13.57-14.03-4.28-8.18-14.18-11.45-22.5-11.82-4.1.82,6.45,1.14,8.89,2.63,5.09,1.81,11.38,5.19,12.44,11.02-4.23,1.08-10.35,1.4-12.44-3.89-4.61-4.48,5.96-3.35-4.97-4.66-15.62,2.49-31.52,7.6-47.42,3.87-11.62-1.52-22.07-7.2-32.11-12.98-6.95-1.15-5.54-5.31.66-2.67,4.09,2.47,4.18,1.44,1.5-2.74-2.09-2.77,2.17-14.69,1.37-5.83.3,15.93,2.96,1.15,2.62-5.98-5.65,1.65-8.6,7.04-12.4,11.13-4.56.95-5.85,5.75-7.86,9.23-7.25.25-11.69-7.64-19.2-7.09-10.08-3.24-18.99-9.27-26.3-17.23-5.1-5.83-12.13-14.79-20.67-10.22-3.51,3.29-5.35,9.89-4.06,14.29,1.57-8.2,1.32,4.63,2.49,7.28.32,4.8,6.53,9.5,3.36,13.91-7.35.77-6.96,11.39-2.12,15.1-.83,5.75,7.3-2.94,10.06,2.78,2.78,7.25,3.63,16.08,1.79,23.48-5.22-.16-10.82-2.65-15.66-4.04-4.19-1.26-.29-5.83-3.84-7.93-3.7-4.54-3.36-10.88-4.39-16.43,5.36,2.48,6.03-11.7,1.97-2.55-4.77,5.26-4.32-4.63-3-8.27,2.3-11.68,1.45-23.92.66-35.6-2.82-5.37.14-10.49,4.39-13.42,2.13-4.05,6.22-8.95,10.94-5.03,8.87,5.43,19.21,4.4,28.79,7.36,6.52,2.52,12.42,6.26,16.75,11.74,1.05-2.46-9.96-9.97-1.68-7.55,3.52,1.38,6.47,6.45,10.68,4.8-2.83-1.96-7-3.49-9.99-6.02-5.45-1.03-6.97-4.24-4.13-9.61,3.47-7.32-.46-15.99,3.79-23.24,1.87-6.18,7.61-9.58,12.38-12.74,3.42-4.27,8.56-5.64,13.27-7.67-5.13-.43-11.98,3.23-15.84,7.89-7.5,2.13-12.01,10.06-13.72,17.73-.45,6.36.73,12.87-2.99,18.4-.61,4.13-1.22,9.62-5.86,5.27-4.03-3.55-1.56-11.22.14-15.97,3.37-8.16-1.65-17.62,3-25.58,3.27-6.82,4.28-3.52,2.29,2.32-1.43,2.6,1.45,12.83,1.81,6.45-2.29-8.98,6.07-15.5,5.96-24.15.84-10.79,10-17.03,15.51-25.02,3.44-5.53,6.38-12.41,4.9-19.36,2.23,1.28,9.22-1.37,8.52-1.14-5.89,5.33-1.18,4.24,2.09-.88,1.53-4.48,7.72-5.7,7.9-11.13,2.64-11.43-.28-14.17-1.66-2.61-.76,8.75-11.48,13.69-18.75,9.32-5.77.04-10.95,5.02-17.04,2.52-1.11-6.5-2.87,3.55-6.4,4.04-2.54,11.36-6.19.96-11.05,5.91-7.39.33,4.44-1.82,4.61-6.1,4.73-3.03,5.39-7.58-1.65-5.72-4.93,1.46-7.67,8.67-13.75,5.91-5.3,1.29-8.63-5.71-4.86-9.3.12-4.29-3.74-10.35,1.57-12.81,2-4.39,6.53-4.24,9.88-6.48,3.29-7.07,12.43-7.78,15.97-14.26.43-6.71,9.28-3.3,12.45-7.85,3.7-4.34,8.03-.64,12.36-.95.72-2.7-6.76-2.32-7.87-6.4-5.72,1.81-10.78,1.01-4.02-4.33,4.5-1.96,9.78.99,12.8,3.57.35-9.74,5.56-5.43,7.35.95-.94,4.21-1.01,9.37,1.79,12.77-.06-3.03-1.82-7.75-.04-11.82,1.96-4.69.71-11.46,5.52-14.41,1.78,4.39,2.03,10.84,4.19,15.78,1.75,4.64,4.18,12.5-1.82,14.9-3.09,1.08,6.35,1.71,5.16,3.36,2.72,2.6,2.07,6.96,1.9,10.41,1.39-5.41.48-14.41,3.51-4.46,2.07,2.66-2.48,12.76,1.43,6.94-1.27-9.07,1.37-7.71,4.03-1.05,1.72,6.02,4.18,12.56,2.44,18.73,3.78-2.39.22-11.15-.73-15.51-1.05-6.57,3.47,1.13,3.4,3.74,1.18,3.32.29-5.66,2.93,2.55,3.54,9.57,6.2,19.45,6.32,29.8.92,11.55-2.42,22.87-6.57,33.48,1.53-.08,4.75-10.25,2.74-1.91-.38,1.47-3.31,8.96-1.46,5.91,6.54-15.29,8.2-32.68,5.45-49.21-2.56-13.33-7.42-25.96-15.33-36.49-1.95-4.13-5.65-6.92-8.82-9.76-1.87-5.72,6.79-2.21,10.61-2.13,5.99.6,4.75,7.29-1.02,4.88-6.21-1.16,3.6,2.72,5.82,1.56,3.67.36,9.07,5.1,5.22,8.65-5.71-5.22-2.5.42.73,3.16,3.13,1.52,8.89,1.29,9.36,5.91-5.13-1.76-12.33-.75-3.4.27,4.28.42,7.78,8.1,1.54,4.12-4.54-1.62-10.77-1.53-2.45.27,3.49.21,9.93,7.27,3.44,7.43-4.4-2.25-7.45-4.33-1.65.38,4.12,2.16,10.37,3.34,11.08,9.15-3.14.78-13.91-6.43-8.34-1.3,4.6,1.63,11.12,3.38,10.68,10.03,1.47,7.09-3.89,8.07-2.67.27-1.04-5.61-7.48-4-10.53-7.36,2.18,4.48,11.1,4.11,8.93,11.02-1.48,6.53-10.31-8.48-4.79,1.26,4.14,2.76,9.49,3.76,11.6,9.03,4.16,2.86-3.24,16.14-2.05,10.71,2.65-5.05-.78-12.44-6.26-12.96,2.29,2.08,6.79,5.6,5.09,8.96-2.91-3.13-8.04-2.99-9-8.04-2.15-1.48,2.27,7.6,6.07,7.32,5.81,7.03-7.21,6.01-6.76-.68-2.58-1.39,1.79,7.09,4.79,7.04,7.49,1.84,8.25,11.56,5.77,17.72-.31,1.02,1.92,1.31-.07,2.19h0s0,0,0,0Z"/>
            <path class="cls-4" d="m246.72,272.76c1.19.07,2.33.45,3.32,1.11.47.49.76,1.14,1.1,1.73.29.52.33,1.14.09,1.68-.13.46-.43.92-.91,1-.51.25-1.07.36-1.64.3-1.39,0-2.79.04-4.18.04-.67-.13-1.35-.09-2.01-.2-.79-.31-1.59-.59-2.39-.86-.36-.13-.64-.42-.95-.63-.21-.6-.12-1.22.25-1.72.36-.61.98-.98,1.57-1.3.47-.24,1-.29,1.51-.26.86-.06,1.73-.15,2.52-.52.54-.23,1.12-.45,1.72-.37h0ZM140.17,38.38c.32,0,.72-.08.94.23.37.67.31,1.46.35,2.21.25.92-.06,1.88-.5,2.69-.32.6-.59,1.24-1.06,1.73-.39.26-.87.09-1.28-.02-.58-.21-.96-.85-.93-1.49-.05-.76-.13-1.56.17-2.29.16-.42.33-.84.55-1.23.16-.27.41-.45.61-.68.21-.26.36-.58.62-.79m-31.95,67.64c-.19.88-.86,1.49-1.34,2.2-.42.57-1.03.95-1.46,1.51-.47.61-1.04,1.15-1.71,1.52-.76.42-1.61.7-2.47.75-.49-.07-1.08.06-1.46-.36l-.53-.46c-.14-.44.35-.69.71-.62.56.11,1.14,0,1.7-.08.44-.07.87-.27,1.32-.24.36,0,.75-.11.93-.45.32-.45.68-.87.93-1.38.71-.52.99-1.48,1.76-1.93.49-.32,1.07-.46,1.65-.45m-74.29,95.1c.98-.49,1.94-1.05,2.66-1.98,1.65-1.41,3.13-3.07,5.08-4.02,1.23-1.36,2.79-2.41,4.01-3.8,2.27-2.12,4.28-4.5,6.17-6.98,1.74-2.31,3.67-4.46,5.39-6.78.74-1.24,2-2.23,2.65-3.56.48-1.6,1.63-2.89,2.03-4.55.89-1.37,1.68-2.93,3.21-3.51,1.55-.57,3.22-1.02,4.79-.25,2.61.87,5.24.89,7.85.24,1.84-.33,4.12-.73,5.45.98,1.02.49.91,1.83,1.86,2.41,1.04,1.5,2.12,3.15,3.97,3.52,2.84,1.31,5.91,2.02,8.64,3.64,2.36,1.36,5.36,1.75,7.04,4.18,1.51.9,1.12,3.04,1.38,4.57-.01,2.21,0,4.49-.97,6.51-1.75.49-1.52,2.43-2.42,3.77-2.68.5,1.23-3.67-1.88-2.36-1.57,1.84-3.7,3.46-6.2,3.4-.15,2.06,2.36,2.13,2.68,4.04.49,1.23,1.4,2.26,2.47,2.95,1.03.55,3.07.48,2.91,2.14-.85.91-3.2.25-4.03-.86-1.81-1.69-3.83-3.17-5.53-4.96-.73-.98-1.18-2.25-2.18-3.05-1.99-1.87-3.88-3.91-5.12-6.34-.44-1.12-1.46-1.75-1.86-2.92-.62-1-1.21-1.82-1.77-2.84-1.68-2.02-3.94-3.21-6.36-3.93-1.53-.63-3.26-.9-4.86-.97-2.62.07-4.7,1.79-6.9,3.04-1.52,1.98-2.52,4.29-3.46,6.61-1.3,3.31-2.68,6.59-4.29,9.75-.83.86-1.64,1.8-2.21,2.93-.9,1.69-2.53,2.1-3.6.39-1.22-.98-2.97-.93-4.37-.78-1.2.99-2.66,1.93-3.28,3.47-1.46,2.71-1.98,6.22-.8,9.1,1.01,1.26,3.42-.74,4.2,1.21.66,1.07,1.98,1.43,2.53,2.56,1.88,2.76,1.72,6.35,1.03,9.51.09,3.11-1.04,6.04-1.7,9.03-.78,1.66-1.04,3.57-1.88,5.16-.97,1.71-2.83.31-4.12-.23-1.29-.83-2.67-1.46-3.75-2.56-.97-.41-1.68-1.24-2.52-1.93-.99-.14-2.91-1.68-1.42-2.53,1.32-.49,2.51-1.41,3.38-2.52,1.31-2.25,2.03-4.91,3.07-7.36.21-1.31,1.29-2.1,1.67-3.33.76-1.14,1.72-2.13,2.9-2.81-1.1-1.84-3.5,1.57-4.66,2.88-1.22,2.63-2.27,5.41-3.23,8.18-.75,1.17-1.96,2.02-2.84,2.97-.35,2.71-4.53,2.56-3.28-.15,2.36-1.02-.26-3.72.04-5.53.42-3.15.5-6.34.51-9.5-.06-2.23-.34-4.49-1.41-6.46-.26-1.42-.35-3.09.8-4.12.54-1.7.52-3.74,2.05-4.9.05-.4.38-.55.62-.78m268.79,141.52c-.99-.06-1.87.43-2.81-.06-1.14-.29-1.8-1.57-2.93-1.98-1.18-1.25-1.28-3.25-.48-4.75.13-1.95.09-3.9-.05-5.89-.52-2.94-1.31-5.83-1.83-8.75-.8-2.33-1.75-4.6-2.24-7.03-.93-2.13-1.43-4.44-2.38-6.57-.34-.99-2.14-2.65-.62-3.3,1.33-.1,3.01-1.3,4.04.05.73.38,1.5.95,2.14,1.54,1.2.66,2.09,1.73,2.59,3.04.6.86.97,2.17,2.2,2,1.8.31,1.42,2.79,2.11,4.15.35,1.74,1.4.4.9-.76-.38-1.91-1.51-3.82-.92-5.77.8-2.11,3.16-.89,3.05,1.2.94,3.24,1.6,6.55,1.96,9.9.84,2.46,1.16,5.15,2.23,7.5.72,1.2.96,2.87,2.09,3.79,1.06,1.33,1.43,3.1,2.6,4.36.77,2.24,1.17,4.66,1.63,7.01-.08,1.43-.86,2.47-1.68,3.55-1.54.43-2.94,1.78-4.6.99-1.48.44-2.49-2.58-3.53-.28-1.06,1.88.2,4.15-.98,6-.84.9-.88,2.34-1.8,3.2-.24,1.18-1.59,1.69-1.85,2.92-.47,1.45-.94,2.9-1.25,4.4-.54,1.14-3.53-.52-2.87,1.17,1.29.4,2.75.8,3.32,2.22,1.64,1.94.14,4.04-1.81,2.45-3.45-1.36-7.25-1.64-10.89-1.23-1.21.45-5.98-1.38-4.22.47,3.02,1.41,6.29-.12,9.41.58,1.49.03,3.04.08,4.24,1.11,1.6.65,2.92,1.75,3.9,3.22.39,1.12.9,2.41-.22,3.29-1.4,1.05-2.37,2.78-4.15,3.23-2.02,1.01-4.2,1.65-6.35,2.27-2.67.88-5.49,1.21-8.26,1.69-2.09.23-4.19.58-6.27.32-1.32-.43-4.52.91-3.78-1.64.19-3.12,1.71-5.91,3.23-8.54.78-1.25,1.52-2.48,1.96-3.91.58-1.11.2-2.57,1.26-3.41.56-1.66-.26-4.11,1.55-5.06,1.7-.36,2.96-1.65,4.48-2.4.76-.61,1.49-1.11,2.26-1.73,1.49-1.02,1.82-2.88,2.87-4.26,1.21-2.17,2.49-4.29,3.74-6.44.49-.88.99-1.64,1.7-2.39,1.7-1.83,1.39,1.36,1.17,2.59,1.52.42,2.07-.61,3.21-1.32,1.23-.46,2.88-1.15,2.98-2.72m-111.79-184.66c.23.23.51.4.75.61.26.24.55.46.8.7.27.3.55.58.81.89.11.15.23.29.29.46.1.21.18.43.24.66.08.28.24.53.32.82.16.49.24,1.04.04,1.53-.08.29-.13.58-.22.86-.06.12-.12.23-.12.01-.22-1.06-.58-2.08-1.03-3.06-.56-1.2-1.25-2.33-1.87-3.5Z"/>
          </g>
          <path class="cls-5" d="m155.02,46.35c-.79.07-1.09.98-1.17,1.68-.27,1.89.17,3.82-.27,5.69-.03.72-.45,1.29-.68,1.93-.14.81-.4,1.59-.53,2.4-.12.75,0,1.5.29,2.19.06.45.32.83.67,1.09l.63.57c.87.22.86-.88.6-1.42.05-.74-.37-1.42-.26-2.14-.04-.76,1.1-.97,1.29-.23.57.8.68,1.91.35,2.84-.33.44-.65.92-.85,1.44-.38.71.23,1.9,1.04,1.3.6-.53,1.19-1.12,1.5-1.89.37-.85.68-1.88.29-2.78-.12-.66-.32-1.28-.49-1.93-.15-.7-.64-1.24-.88-1.88-.39-.4-.51-.93-.71-1.44-.23-.56-.4-1.14-.52-1.74-.34-.62-.32-1.35-.42-2.05,0-.75,0-1.51.09-2.27.11-.45.16-.91.05-1.36h0Zm-25.31,17.96c-.71.26-1.49.24-2.18.59-.64.06-1.27.14-1.85.43-.88.18-1.64.68-2.45,1.08-.87.54-1.3,1.56-1.59,2.53-.32.77.75,1.24.96.39.21-.65.57-1.22.93-1.79.3-.5.72-.91,1.22-1.22.51-.26,1.04-.6,1.63-.49.72.05,1.43-.14,2.07-.46.68-.22,1.42-.19,2.12-.11.67.12,1.38.08,2,.4.8.23,1.43.82,2.01,1.41.57.35,1.05.93,1.21,1.62-.13.67.73,1.38,1.07.56.39-.74.19-1.75-.49-2.22-.48-.33-.93-.64-1.26-1.14-.56-.25-.96-.77-1.54-.98-.58-.21-1.24-.07-1.78-.42-.66-.09-1.35,0-2-.13l-.09-.06h0Zm14.81.61c-.32.34-.8.53-.9,1.05-.31.72-.39,1.51-.63,2.25,0,.36-.21.67-.33.99-.38.23-.33.68-.58.99-.26.27-.35.64-.66.84-.34.32-.62.77-1.09.89-.33.2-.68.4-.87.76-.14.4.09.97.57.88.51-.05.97-.31,1.41-.56.32-.09.57-.36.81-.54.37-.19.62-.51.88-.83.21-.25.45-.5.49-.85.11-.25.2-.49.31-.73.1-.26.06-.7.26-.97.06-.36.15-.7.08-1.07-.03-.91.16-1.8.54-2.63.07-.21-.11-.43-.29-.49Z"/>
          <path class="cls-5" d="m127.11,67.42c-.64.26-1.32.38-1.96.69-.72.38-1.33.99-1.76,1.7-.5.35-.65,1.02-.98,1.51-.27.57-.7,1.03-1.06,1.53-.51.65.42,1.53.99.95.53-.39,1.14-.65,1.53-1.24.45-.45.61-1.12.9-1.68.33-.48.77-1.02,1.26-1.37.54-.21,1.37-.33,1.68.31.22.72-.32,1.43-.86,1.82-.7.28-.69,1.21-.05,1.56.51.58,1.31.6,1.99.41.7-.23,1.06-1.08,1.83-1.11.43-.12.66.31.95.56l1.06,1.04c.82.07,1.58.44,2.36.63.67-.05,1.51-.18,1.92-.79.46-.71-.4-1.03-.94-.81-.47-.03-1,.24-1.43-.06l-1.59-.81c-.57-.72-1.1-1.5-1.41-2.39-.39-.66-.98-1.17-1.54-1.66-.86-.57-1.89-.81-2.9-.8h0Zm-2.41,6.94c-.07.25-.12.53,0,.78.23.5.74.74,1.2.94.39.16.8.29,1.21.38.56.06,1.09-.13,1.62-.27.29-.03.55-.16.84-.22.35-.1.74-.3.85-.7.07-.2-.08-.38-.13-.56-.47-.01-.92.16-1.3.43-.21.14-.44.24-.69.24-.35.04-.69.12-1.04.1-.37.04-.69-.18-1.03-.27-.14-.14-.39-.16-.44-.38-.12-.22-.37-.33-.59-.39-.17-.04-.33-.06-.5-.06Zm-11.57,2.03c-.73.5-1.55.84-2.34,1.22-.82.85-1.89,1.4-2.84,2.05-1.05.61-1.98,1.41-2.73,2.36-.81.73-1.56,1.45-1.99,2.48-.7,1.17-.4,2.62-.59,3.93-.18,1.76-.86,3.53-2.22,4.65-.92.93-2.19,1.36-3.12,2.26-.68.22-1.29,1.79-.11,1.51,1.6-.74,3.08-1.71,4.51-2.74.62-.59.88-1.47,1.56-2.01.54-.71.81-1.61,1.01-2.48.15-1.23-.36-2.42-.34-3.63.14-1.13.84-2.04,1.6-2.8,1.27-1.39,2.86-2.4,4.35-3.51.86-.5,1.53-1.27,2.35-1.82.55-.13,2.19-1.06,1.02-1.45l-.11-.02h0s0,0,0,0Zm-15.22,9.06c-.67.06-1.26.46-1.94.47-.35.47-.96.54-1.34.93-.36.57-.85,1.01-1.29,1.51-.51.47-1.05.9-1.57,1.36-.59.33-.95.97-1.18,1.61-.12.5-.14,1.15.25,1.54.46.25.78-.32,1.02-.64.26-.44.75-.89,1.29-.68.48.17.86.67,1.4.64.67.34-.31.98-.56,1.31-.22.51-.74.73-.96,1.22-.39.43-.97,1.21-.4,1.74.64.14.89-.72,1.26-1.09.42-.64,1.01-1.12,1.59-1.58.52-.27,1.04-.51,1.44-.96.44-.35.97-.52,1.37-.92.46-.29.76-.76,1.13-1.15.35-.55.62-1.15.82-1.77.07-.69.01-1.4-.29-2.02-.39-.73-1.03-1.45-1.87-1.51h-.09s-.09.02-.09.02h0Zm34.24,2.29c-.44,0-.77.98-.77,1.87,0,.95.3,1.8.7,3.09.39,1.29.87,3.11.48,4.54-.46,1.49-1.68,2.66-3.18,3.54-1.5.75-3.16,1.28-3.55,1.75-.32.48.61.96,1.72.76,1.11-.14,2.28-.82,3.59-1.91,1.24-1.09,2.59-2.45,3.11-4.08.52-1.7.2-3.56-.26-5.53-.46-1.84-1.19-3.66-1.65-4-.07-.04-.12-.04-.18-.04h0Zm18.44.54c-.28-.01-.56.08-.77.27-.52.54-.3,1.68-.37,2.63-.07.95-.35,1.7-.8,2.78-.59,1.09-1.43,2.39-1.24,2.59.26.14,1.63-.8,2.67-2.36.98-1.63,1.77-3.76,1.57-4.92-.12-.68-.59-.97-1.06-.99Zm3.92.15c-.29.04-.63.47-.88,1.07-.39,1.02-.58,2.51-.84,4-.26,1.56-.67,3.06-1.32,3.81-.65.75-1.56.82-2.34.95-.8.18-1.45.44-1.65.99-.2.48.18,1.39,1.1,1.53.85,0,2.37-.61,3.48-1.91,1.11-1.36,1.89-3.33,2.41-5.3.46-2.04.63-4.02.44-4.76-.1-.28-.23-.4-.4-.38h0Zm25.12,15.63c-.24.03-.5.27-.66.65-.46.75-.52,2.09-.84,3.32-.33,1.22-.92,2.33-1.83,3.96-.78,1.55-1.81,3.51-1.94,4.19-.2.68.52.06,1.17-.69.65-.75,1.24-1.77,1.76-2.52.46-.82.9-1.4,1.35-1.94.39-.61.78-1.22,1.17-2.52.33-1.22.6-3.07.4-3.89-.1-.44-.34-.61-.59-.57Zm-28.68,7.01c-.34.08-.78.3-1.17.57-.85.54-1.51,1.22-2.16,1.91-.65.74-1.3,1.42-2.34,2.44-1.04,1.02-2.48,2.37-2.74,3.05-.2.68.85.6,1.83.19.91-.48,1.76-1.39,2.67-2.21.91-.95,1.87-1.85,2.78-2.93.91-1.09,1.78-2.31,1.72-2.78,0-.24-.24-.31-.59-.23h0Zm30,.77c-.39.14-.52,1.42-.91,2.78-.39,1.43-1.12,3.12-1.9,4.96-.78,1.92-1.7,4.04-1.43,4.23.26.13,1.64-1.73,2.82-3.7,1.24-1.97,2.21-4.05,2.34-5.68.2-1.63-.52-2.66-.91-2.59h0Zm-32.77,6.78c-.41.07-1.06.73-1.98,1.56-1.11.88-2.57,2.12-2.63,2.67-.07.55,1.3.55,2.41.08,1.12-.43,2.02-1.3,2.49-2.4.39-.88.24-1.77-.15-1.91-.05-.02-.09-.01-.15,0h0Zm34.12,2.6c-.24-.03-.59.2-.91.61-.59.88-1.05,2.46-1.57,3.89-.59,1.49-1.23,2.83-1.68,3.85-.44,1.09-.69,1.85-.37,2.13.29.24,1.21.04,1.72-.69.59-.61.8-1.7,1.39-3.47.65-1.77,1.69-4.3,1.76-5.45.07-.58-.09-.85-.33-.88h0Zm1.36,7.36c-.35,0-.76.19-1.02.53-.46.68-.39,1.84-.59,2.86-.2,1.02-.67,1.89-1.65,3.66-.96,1.7-2.4,4.33-2.6,5.49-.26,1.16.79.89,1.57.08.78-.74,1.23-1.98,1.76-3.2.52-1.22,1.11-2.37,1.83-4,.65-1.7,1.48-3.74,1.35-4.69-.03-.51-.31-.72-.66-.72h0Zm-49.35,17.3c-.6-.05-2.23.52-3.66,1.3-1.5.83-2.73,2.1-2.93,2.86-.26.75.44,1.1,1.35.76.91-.27,2.05-1.24,3.29-2.32,1.17-1.09,2.38-2.24,2.12-2.52-.05-.04-.12-.07-.18-.08h0Zm1.48,3.13c-.33-.05-.88.06-1.46.27-1.11.48-2.26,1.22-3.44,2.17-1.17.88-2.28,1.9-3.25,2.78-.9.96-1.7,1.77-2.34,2.78h-.04c-.65,1.09-1.14,2.45-1.54,3.47-.46,1.09-.81,1.91-.55,2.25.26.27,1.21,0,1.79-.61.46-.61.65-1.62.91-2.36.33-.88.75-1.59,1.54-2.48.78-.88,1.85-2,3.55-3.43,1.76-1.43,4.22-3.26,4.94-4.08.33-.48.22-.71-.11-.76Zm190.02,9.26c-.5.07-.82.27-.99.57-.33.54.03,1.43,1.13,1.91,1.17.54,3.19.75,4.5.95,1.43.13,2.15.35,2.67.42.46.09.73.07.91-.08-2.08-1.63-4.52-3-6.22-3.54-.85-.24-1.52-.3-2.01-.23h0Zm-2.41,4.99c-1.57.07-3,.14-3.58.69-.65.54-.37,1.56.22,1.83.59.2,1.48-.26,2.52-.53,1.1-.22,2.36-.21,3.4-.08,1.04.14,1.9.57,2.82.84.98.27,1.92.49,2.71,1.03.78.48,1.32,1.21,1.65,1.14.2-.14.24-1.16-.15-1.91-.39-.75-1.23-1.21-2.01-1.75-.91-.48-1.77-.9-3.07-1.1-1.3-.2-2.93-.15-4.5-.15h0Zm19.78,1.41c-.08.01-.16.05-.22.12-.26.27,0,.78.58,1.26.65.54,1.77.98,2.82,1.52.99.54,1.81,1.2,2.85,1.94.98.75,2.1,1.52,2.56,1.45.33-.13,0-1.11-.58-1.79-.52-.68-1.24-1.13-1.83-1.68-.65-.48-1.24-1.01-2.08-1.49-.78-.48-1.92-.75-2.71-.95-.68-.21-1.12-.4-1.39-.38h0Zm-.88,4.27c-1.01.01-1.38.67-1.1,1.14.26.54,1.44.74,2.41,1.14.98.27,1.81.82,2.85,1.56.99.88,2.23,2.1,3.15,2.44.85.27,1.43-.21,1.17-.95-.2-.75-1.19-1.76-2.82-2.78-1.57-1.09-3.82-2.31-5.19-2.52-.16-.03-.32-.04-.48-.04Zm-2.93,3.35c-1.04.07-1.19.85-.73,1.26.46.48,1.56.45,2.34.72.9.34,1.64.84,2.41,1.45.91.61,1.91,1.4,2.89,1.68.98.27,1.94.06,1.94-.42.07-.41-.83-1-1.68-1.68-.78-.61-1.45-1.29-2.82-1.83-1.3-.68-3.31-1.25-4.35-1.18h0Zm-205.76.23c-.24,0-.49.04-.73.08-.98.2-1.78.67-2.56,1.14-.85.54-1.46,1.15-2.38,2.17-.98,1.01-2.09,2.43-3,4-.98,1.56-1.79,3.33-1.72,4.08,0,.75.79.54,1.24-.08.52-.54.65-1.43.91-2.17.26-.75.65-1.29,1.76-2.44,1.11-1.09,2.94-2.66,4.5-3.81,1.63-1.22,3.05-1.96,3.18-2.44.1-.36-.49-.53-1.21-.53h0,0Zm52.9,2.4c-.53.01-.98.52-1.02,1.18-.13.88.35,2.06.8,3.62.52,1.56.97,3.51,1.43,4.8.46,1.2.96,1.94,1.21,2.52.26-2.76.24-5.45-.04-7.55-.39-2.44-1.11-3.91-1.83-4.38-.2-.12-.37-.2-.55-.19h0Zm5.85,2.55c-.17,0-.34.06-.48.15-.52.34-.21,1.07.18,2.36.26,1.23.65,2.99.59,4.69-.13,1.63-.57,3.32-.51,4.35.13,1.15.86,1.65,1.24,1.37.39-.27.46-1.3.59-2.25.13-.88.27-1.77.4-3.47.19-1.77.31-4.4-.15-5.83-.44-1.02-1.28-1.4-1.87-1.37Zm5.37,3.66c-.26.01-.51.11-.66.34-.32.54-.1,1.85-.04,3.54,0,1.77-.21,3.78.18,4.46.4.61,1.3-.25,1.76-1.14.52-.81.51-1.83.51-3.05,0-1.15,0-2.58-.51-3.39-.32-.51-.82-.78-1.24-.76h0Zm-67.22.27c-.2,0-.41.02-.62.08-.91.27-1.96,1.01-3,1.83s-2.03,1.69-3.07,3.05c-1.04,1.42-1.99,3.45-2.19,4.35-.13,1.02.58.85,1.1.3.52-.48.77-1.3,1.43-2.25.59-1.02,1.51-2.13,2.49-3.01,1.04-.95,2.13-1.6,3.11-2.21.98-.68,1.83-1.23,1.83-1.64,0-.3-.46-.51-1.06-.5h0Zm71.8,2.6c-.38,0-.85.53-1.1,1.3-.26,1.02-.28,2.38-.15,3.47.07,1.09.26,1.96.59,1.75.26-.06.73-1.2.99-2.63.2-1.36.26-3.15,0-3.7-.1-.14-.2-.19-.33-.19h0Zm-30.76,5.26c-.28-.02-.67.21-1.06.57-.46.48-.9,1.22-1.68,3.13-.85,1.85-1.96,4.99-3.59,7.78-1.7,2.72-3.87,5.13-5.56,6.9-1.7,1.77-2.91,2.85-3.11,3.39-.07.54.96.54,1.94,0,1.11-.54,2.23-1.55,3.73-3.05,1.5-1.56,3.34-3.53,4.9-5.91,1.63-2.31,2.84-5.1,3.62-6.94.72-1.9,1-2.9,1.13-3.85.13-.88.19-1.7-.07-1.91-.07-.07-.16-.11-.26-.11Zm.07,10.14c-.25.04-.54.43-.88.99-.39.74-.98,1.7-1.5,2.78-.52,1.02-1.02,2.04-1.87,3.12-.72,1.02-1.84,2.1-3.15,3.39-1.24,1.29-2.8,2.72-4.43,4.08-1.63,1.43-3.45,2.69-4.43,3.51-.92.72-1.13,1.04-1.21,1.3,3.31-1.43,6.42-3.24,8.89-5.07,2.41-1.97,4.18-3.94,5.74-5.91,1.5-1.9,2.8-3.88,3.26-5.37.46-1.49.08-2.47-.18-2.74-.07-.06-.16-.09-.26-.08h0Zm-.36,8.92c-.47-.04-1.35.76-1.98,1.71-.65.95-.98,2.22-1.5,3.24-.59,1.15-1.32,2.2-1.98,3.01-.65.81-1.37,1.57-2.16,2.25-.91.88-2.01,1.81-2.01,2.29,0,.54,1.19.54,2.23,0,1.05-.54,1.9-1.54,2.74-2.63.78-1.09,1.57-2.18,2.41-3.2.78-1.09,1.56-2.18,2.09-3.47.52-1.29.75-2.79.29-3.13-.05-.04-.08-.07-.15-.08h0Zm-100.85.95c-.39.07-1.36,1.52-2.34,3.01-.91,1.49-1.7,2.9-1.24,3.58.47.73,2.04.67,3.47-.08,1.43-.75,2.65-2.15,2.78-2.63.2-.54-.82-.15-1.54-.15-.65,0-1.14-.45-1.14-1.33-.07-.88.33-2.4,0-2.4h0Zm219.37,7.36c-.05,0-.1.01-.15.04-.39.13-.39,1.11.07,2.06.39.88,1.15,1.91,1.86,2.86.79.95,1.65,1.97,2.3,3.74.58,1.87,1.15,4.5,1.35,6.67.19,2.22.15,3.98.15,5.26,0,1.49.04,2.58.36,3.13.33.54.93.56,1.32.15.39-.41.64-1.21.77-2.1.13-.95.07-1.93,0-3.35,0-1.5-.03-3.3-.88-6.02-.72-2.65-2.25-6.12-3.29-8.16-1.11-2.04-1.76-2.66-2.41-3.2-.63-.6-1.12-1.09-1.46-1.07h0Zm-129.67,5.31c-.34,0-.78.11-1.21.34-.85.48-1.64,1.47-1.57,1.94.14.4,1.06.21,1.9-.27.85-.48,1.63-1.2,1.5-1.68-.03-.2-.28-.34-.62-.34Zm127.37,9.42c-.38,0-.8.19-1.06.5-.52.68-.49,1.69-.36,3.32.07,1.56.19,3.62-.07,4.84-.26,1.22-.86,1.63-1.32,2.52-.52.74-.95,2.04-.7,2.52.33.48,1.24.19,1.83-.42.52-.61.78-1.55,1.17-3.05.45-1.56,1.11-3.54,1.5-5.38.32-1.9.45-3.52,0-4.27-.19-.36-.58-.59-.99-.57h0Zm-182.64,2.32c-1.28.43.9,1.81,1.3,2.46,1.38.74,2.22,2.13,3.53,2.97,1.24.46,2.36,1.23,3.39,1.99,1.57.61,3.31.64,4.48,1.98,1.16.5,2.46.06,3.67.4,1.97.43,4.07.29,5.89,1.32,1.41.53,2.33,1.72,3.48,2.58.98.98,2.49,1.38,3.85,1.48,1.41.32,2.97.06,3.73-1.36.95-.98,1.59-2.22,2.16-3.49.77-1.47,2.37-2.25,3.77-2.93,1.12-.18,2.54-2.71.51-1.9-.93.8-2.16,1.16-3.17,1.87-1.22.63-2.31,1.5-3.18,2.57-1.02,1.49-2.51,2.93-4.34,3.15-1.64-.26-3.28-.9-4.25-2.35-1.15-1.18-2.69-2.26-4.42-1.91-2.4.13-4.81-.19-7.1-.95-1.24-.6-2.61-.76-3.86-1.37-1.33-.3-2.24-1.28-3.43-1.86-1.34-1.1-2.62-2.26-4.03-3.3-.67-.4-1.2-1.18-2.01-1.35h0Zm58.23,2.48c-.35.06-.76.9-1.1,1.79-.39,1.02-.6,2.04-.73,4.08-.19,1.96-.31,4.98.15,6.48.46,1.49,1.48,1.46,1.94.99.46-.54.39-1.61.33-3.51,0-1.84,0-4.51-.07-6.48,0-1.9-.04-3.18-.37-3.32-.05-.02-.1-.05-.15-.04h0Zm127.29,1.79c-.3-.06-.65.69-.88,1.52-.26.95-.51,1.96-.77,3.05-.26,1.02-.45,1.97-1.1,3.39-.58,1.37-1.57,3.13-2.34,4.42-.85,1.29-1.45,2.08-1.32,2.29.13.2,1.03-.14,1.68-.69.71-.61,1.19-1.4,1.65-2.21.52-.88.96-1.72,1.68-3.01.72-1.43,1.68-3.26,2.01-4.96.26-1.76-.12-3.33-.51-3.74-.04-.04-.07-.07-.11-.08h0Zm-122.25.12c-.5-.14-1.32,1.24-1.72,3.09-.53,2.1-.53,4.8-.07,6.63v.04c.39,1.83,1.25,2.76,1.9,2.9.59,0,.99-.74.99-1.49s-.32-1.43-.51-2.25c-.2-.82-.29-1.82-.22-3.66.07-1.83.27-4.56-.18-5.11-.06-.09-.11-.13-.18-.15Zm5.04,1.67c-.29-.02-.73.39-1.02.8-.46.48-.6.87-.73,1.41-.19.48-.26,1.12-.26,2.48s.09,3.32.48,4.61c.32,1.29.91,1.81,1.5,1.68.46-.07.97-.82,1.1-1.56.07-.82-.33-1.54-.66-2.55-.32-.95-.72-2.11-.66-3.47.07-1.29.54-2.79.48-3.2-.05-.12-.12-.18-.22-.19h0Zm4.54,4.2c-.28-.05-.54.54-.66,1.37-.07.95.1,2.24.37,3.39.4,1.09.86,2.04,1.32,2.1.39.07.84-.82.84-1.64s-.45-1.61-.84-2.63c-.32-1.02-.59-2.24-.91-2.52-.04-.03-.07-.07-.11-.08h0Zm115.44,1.72c-.39-.03-.9.18-1.24.53-.46.41-.57,1.17-.7,2.06-.07.81-.14,1.75.18,2.02.27.28.9-.26,1.35-.8.46-.61.75-1.23.88-1.91.13-.75.18-1.59-.15-1.79-.1-.07-.21-.11-.33-.12Zm4.54.04c-.48-.05-.66.75-.55,1.52,0,.82.38,1.7.77,2.86.39,1.22.72,2.65.66,4.96,0,2.32-.46,5.49-1.17,7.59-.72,2.11-1.68,3.19-2.6,4.35-.85,1.15-1.7,2.41-1.57,3.09.07.54.97.54,1.68,0,.65-.55,1.14-1.59,2.05-3.36.98-1.77,2.39-4.22,3.11-7.28.72-3.06.67-6.63.15-9.15-.52-2.58-1.65-4.16-2.3-4.5-.07-.04-.14-.07-.22-.08h0Zm-7.06,6.48c-.26.01-.7.34-1.06.76-.59.68-.85,1.6-1.5,2.55-.6.88-1.51,1.78-1.57,2.32-.06.61.72.81,1.24.53.65-.34.99-1.14,1.65-2.36.59-1.22,1.5-2.92,1.5-3.47,0-.25-.1-.35-.26-.34h0Zm4.42,1.37c-1.63,2.65-3.45,5.2-5.01,7.24-1.56,1.97-3.02,3.35-3.48,4.23-.39,1.02.14,1.5.73,1.3.65-.14,1.3-1.02,2.01-1.91.78-.88,1.55-1.64,2.27-2.86.72-1.16,1.46-2.71,2.05-4,.59-1.29,1.01-2.25,1.21-2.86.27-.67.29-.88.22-1.14Zm-9.81,5.84c-.58,0-1.29.87-1.1,1.41.2.4,1.26.48,1.65,0,.33-.55-.03-1.41-.55-1.41Zm15.4,4.92c-.07.02-.12.07-.18.11-.39.34-.47,1.54-.73,2.55-.2,1.02-.58,1.99-1.43,3.28-.85,1.29-2.14,3.05-2.52,4.27-.32,1.09.19,1.72,1.1.76.98-.95,2.36-3.33,3.4-5.3.91-2.04,1.56-3.55,1.5-4.57-.06-.83-.64-1.24-1.13-1.11Zm-18.98,5.06c-2.28,0-6.06,1.98-8.67,2.25-5.93.68-11.13-2.41-16.02-2.14-.59,0-1.05.88-.99,1.22.07.27.59.36,1.24.49.59.07,1.62.62,2.6.95,3.85,1.23,7.57,2.36,11.74,2.36,2.61,0,9.72-2.02,11.16-4.46.33-.55-.48-.69-1.06-.69h0Zm-205.72,4.7c-.72.86-1.04,1.98-1.57,2.97-.31.91-.6,1.85-.51,2.82-.11.94-.17,1.89-.22,2.84-.06.8-.15,1.6-.26,2.4-.17.82-.35,1.65-.83,2.35-.7,1.24-1.68,2.27-2.68,3.24-.57.33-.86,1.95.15,1.46.58-.54,1.14-1.1,1.66-1.69.56-.59,1.17-1.11,1.78-1.64.51-1.2,1.16-2.38,1.36-3.69.07-1.31.33-2.61.37-3.92.07-.68.1-1.38.13-2.07.29-1.14.44-2.33,1-3.37.15-.5.77-1.37.1-1.68-.16-.04-.32-.04-.48-.02h0Zm209.01.11c-.59-.14-1.5.44-2.41.92-.98.54-1.95.95-3.26,1.22-1.24.2-2.81.2-3.99,0-1.24-.27-2.14-.63-2.6-.42-.52.2-.66.96-.66,1.37,0,.48.12.48.77.61.65.14,1.9.4,2.82.53.91.14,1.63.14,3.26-.27,1.76-.41,4.58-1.28,5.82-2.1,1.17-.89.91-1.73.26-1.87h0Zm20.57,5.04c-.81.06-1.51.51-1.32,1.22.26.82,2.08,2.13,3.51,3.36,1.5,1.16,2.6,2.21,2.93,2.21.39,0,.2-1.01-.26-1.75-.4-.82-.93-1.49-1.57-2.44-.65-.89-1.45-2.11-2.49-2.52-.26-.07-.53-.1-.8-.08h0ZM37.05,207.42h.47c.24.28.32.73.11,1.06-.21.6-.85.83-1.17,1.34-.54.67-1.03,1.42-1.75,1.89-.8.56-1.78.8-2.75.67-.41-.09-.73-.62-.49-1.02.21-.36.66-.42,1.02-.36.31.05.63.03.94-.07.48-.14.96-.35,1.35-.67.29-.33.55-.7.92-.94.29-.32.52-.7.83-1.02.2-.28.33-.6.53-.87m30.31-35.79c-1.96.61-3.13,2.11-3.26,2.85-.13.75.85.61,1.96.27,1.17-.27,2.48-.82,4.56-.61,2.09.2,5.02,1.09,6.59,1.15,1.56.07,1.89-.82,2.08-2.04.2-1.22.33-2.72-.46-3.06-.78-.34-2.61.61-4.76.88-2.15.33-4.82-.07-6.72.54h0s0,0,0,0Zm26.81,14.41c.78-.2,1.5-.61,2.28-1.29.78-.54,1.7-1.29,1.63-1.7-.13-.27-1.24-.27-2.15,0-.91.34-1.63.95-2.35,1.56-.65.61-1.37,1.15-1.3,1.43.12.27,1.03.21,1.88,0h0Zm1.3,4.15c.78-.13,1.69-.68,2.74-1.22,1.04-.54,2.15-1.02,2.35-1.56.19-.54-.59-1.15-1.3-1.02-.85.07-1.69.88-2.61,1.49-.77.51-1.58.97-2.41,1.36q-.52.27-.26.48c.26.2.78.52,1.5.46h0s0,.01,0,.01h0Z"/>
          <path class="cls-4" d="m95.81,91.83c.1-.39.51-.56.66-.92.14-.19.14-.5.36-.61.19-.09.23-.3.3-.48.08-.26.15-.53.26-.77.08-.25.11-.52.15-.78.08-.22.14-.44.28-.63.14-.21.44-.27.63-.12.4.24.56.74.54,1.2,0,.33-.1.65-.24.94-.17.16-.39.26-.48.5-.49.67-1.1,1.28-1.87,1.56-.19.07-.39.1-.59.1"/>
        </g>
      </g>
    </g>
  </g>
</svg>