<svg xmlns="http://www.w3.org/2000/svg" width="882.148" height="823.338" viewBox="0 0 882.148 823.338">
  <g id="bg-bundesadler-dark" transform="translate(0)" opacity="0.055">
    <g transform="translate(433.723 36.499)">
      <path d="M118,212.346H219.631c59.766,0,118.869-38.594,118.869-88.141,0-26.317-11.8-44.806-26.464-65.242a148.09,148.09,0,0,1-22.568,2.205c-27.089,0-41.755-14.482-42.784-28.707,0-12.828,10.365-22.532,26.575-22.532,25.178,0,70.829,23.487,116.995,23.487-4.595,3.455-12.13,7.057-21.245,10.549a166.434,166.434,0,0,1,51.973,91.854l70.682,113.025c11.836,19,36.977,56.127,74.762,85.127-45.688,0-76.012,1.1-114.642-60.133l-36.2-58a159.343,159.343,0,0,1-9.887,22.054L477.7,353.159c12.019,19.187,36.793,55.98,74.8,85.127-45.725,0-76.049,1.1-114.642-60.1l-62.044-99.315c-4.594,4.962-9.52,9.74-14.666,14.408L448.622,433.4c10.88,17.239,31.978,48.812,63.919,76.2l10.88,8.895c-24.443,0-44.512.22-63.772-8.858-16.761-7.866-32.934-22.826-50.871-51.275L323.467,321.769c-5.624,3.529-11.358,6.947-17.275,10.218L410.285,498.64l6.91,10.99c13.563,20.032,35.984,49.658,67.815,74.064-45.688,0-75.975,1.066-114.679-60.1l-8.674-13.967-98.47-157.684q-9.538,3.639-19.334,6.837L338.022,509.63l26.942,43.152c11.835,18.856,37.124,56.127,74.762,85.054-45.688,0-75.975,1.029-114.642-60.133L282.557,509.63,196,370.912c-7.462,11.909-9.887,22.311-9.887,32.713,0,38.337,14.776,74.1,37.491,106,15.732,22.127,35.286,42.453,56.237,60.648-3.234,1.433-8.932,1.985-14.225,1.985a134.478,134.478,0,0,1-22.164-1.434c11.836,26.906,37.307,61.714,50.135,79.724,16.761-3.014,41.13-5.366,57.082-5.366,16.651,0,18.525,9.777,18.525,18.488,0,15.18-7.057,27.31-15.327,34.036-3.051-7.9-9.336-18.158-40.138-18.158,5.918,10.145,34.147,33.007,34.147,51.422,0,12.13-13.306,30.361-30.949,30.361a38.269,38.269,0,0,0,.882-10.255c0-14.813-13.122-32.235-24.259-44.4a53.564,53.564,0,0,1,.147,7.425c0,35.212-3.2,51.385-25.509,51.385-10.953,0-18.488-6.028-21.1-7.792,14.482-13.416,15.217-23.855,15.217-43.629l-.11-17.092a103.642,103.642,0,0,1,.735-14.776,101.667,101.667,0,0,0-17.349-1.1s-31.721-2.5-39.366,14c-8.6-7.9-21.1-19.04-21.1-31.39,0-8.086,3.859-17.312,20.179-17.312,6.175,0,25.656,3.786,41.976,3.786-4.411-9.777-23.891-38.263-40.763-58.957-2.573,8.05-6.543,16.761-15.364,23.818-1.213-13.269-9.042-55.318-29.809-79.908-2.426,16.577-5.7,33.632-5.7,69.579,0,87.443,21.025,152.023,65.647,164.41-5.808,10.145-18.121,19.15-30.838,19.15-16.32,0-25.178-18.488-34.293-35.874-4.7,12.9-17.753,44.365-30.8,44.365A11.85,11.85,0,0,1,118,793.645Z" transform="translate(-118 -9.93)" fill="#fffffd"/>
      <path d="M322.351,108.781c0-43.078-31.316-77.188-42.343-86.781l-7.939,1.838c11.688,14.335,32.419,38.3,32.419,70.02,0,62.485-66.014,116.7-141.291,117.73.882,10.659.588,30.875-1.066,43.078,85.458-1.507,160.22-71.05,160.22-145.885ZM204.511,625.867c-36.425,0-44.365-3.823-53.958-3.823-6.175,0-12.093.625-12.093,9.373,0,6.1,6.873,14.923,13.012,19.591,8.6-8.527,20.363-10.4,39.366-10.4,8.858,0,20.988,1.728,26.354,2.5a140.357,140.357,0,0,0-1.8,21.539c0,5.072.184,10.917.184,17.128,0,21.576-3.161,32.97-10.7,41.571,1.654.992,6.028,1.948,8.564,1.948,13.931,0,17.5-7.2,17.5-43.482,0-10.953.956-21.025.956-23.671,19.481,14.849,39.366,41.461,39.366,60.648,6.359-3.2,13.93-12.865,13.93-20.106,0-13.049-21.943-32.566-45.1-56.09,3.234-.772,11.836-3.271,18.893-3.271,18.268,0,32.97,3.014,41.534,13.159,3.418-3.676,6.212-14.739,6.212-21.1,0-10.953-6.285-10.512-10.806-10.512-19.407,0-43.409,3.014-60.574,5.807-6.249-8.27-45.982-62.118-56.274-90.788a24.63,24.63,0,0,0-10.145-1.985c-9.593,0-12.019,6.726-14.555,15.879,21.943,26.648,43,55.539,50.135,76.085Z" transform="translate(-63.257 22.365)" fill="#313336"/>
    </g>
    <g transform="translate(448.425 823.338) rotate(180)">
      <path d="M0,584.423H101.631c59.765,0,118.869,38.594,118.869,88.141,0,26.317-11.8,44.806-26.464,65.242a148.085,148.085,0,0,0-22.568-2.205c-27.089,0-41.755,14.482-42.784,28.707,0,12.828,10.365,22.531,26.575,22.531,25.178,0,70.829-23.487,116.995-23.487-4.595-3.455-12.13-7.057-21.245-10.549a166.434,166.434,0,0,0,51.973-91.854l70.682-113.025c11.836-19,36.977-56.127,74.762-85.127-45.688,0-76.012-1.1-114.643,60.133l-36.2,58a159.362,159.362,0,0,0-9.887-22.054L359.7,443.61c12.019-19.187,36.793-55.98,74.8-85.127-45.725,0-76.049-1.1-114.642,60.1l-62.044,99.315c-4.595-4.962-9.52-9.74-14.666-14.408l87.48-140.114c10.88-17.239,31.978-48.812,63.919-76.2l10.88-8.895c-24.443,0-44.512-.221-63.772,8.858-16.761,7.866-32.934,22.826-50.871,51.275L205.467,475c-5.624-3.529-11.358-6.947-17.275-10.218L292.285,298.129l6.91-10.99c13.563-20.032,35.984-49.658,67.815-74.064-45.688,0-75.975-1.066-114.679,60.1l-8.674,13.967-98.47,157.684q-9.538-3.639-19.334-6.837l94.169-150.847,26.942-43.152c11.835-18.856,37.124-56.127,74.762-85.054-45.688,0-75.975-1.029-114.642,60.133l-42.527,68.072L78,425.857c-7.461-11.909-9.887-22.311-9.887-32.713,0-38.337,14.776-74.1,37.491-106,15.732-22.127,35.286-42.453,56.237-60.648-3.235-1.433-8.932-1.985-14.225-1.985a134.479,134.479,0,0,0-22.164,1.434c11.835-26.906,37.308-61.714,50.135-79.724,16.761,3.014,41.13,5.366,57.082,5.366,16.651,0,18.525-9.777,18.525-18.488,0-15.18-7.057-27.31-15.327-34.036-3.051,7.9-9.336,18.158-40.138,18.158,5.918-10.145,34.146-33.007,34.146-51.422,0-12.13-13.306-30.361-30.949-30.361a38.269,38.269,0,0,1,.882,10.255c0,14.813-13.122,32.235-24.259,44.4a53.574,53.574,0,0,0,.147-7.425c0-35.212-3.2-51.385-25.509-51.385-10.953,0-18.488,6.028-21.1,7.792C143.569,52.488,144.3,62.927,144.3,82.7l-.11,17.092a103.65,103.65,0,0,0,.735,14.776,101.663,101.663,0,0,1-17.349,1.1s-31.721,2.5-39.366-14c-8.6,7.9-21.1,19.04-21.1,31.39,0,8.086,3.859,17.312,20.179,17.312,6.175,0,25.656-3.786,41.976-3.786-4.411,9.777-23.892,38.263-40.763,58.957-2.573-8.05-6.543-16.761-15.364-23.818C71.932,194.991,64.1,237.04,43.335,261.63c-2.426-16.577-5.7-33.632-5.7-69.579,0-87.443,21.025-152.023,65.646-164.41C97.477,17.5,85.164,8.491,72.446,8.491c-16.32,0-25.178,18.488-34.293,35.874C33.448,31.463,20.4,0,7.351,0A11.85,11.85,0,0,0,0,3.124Z" transform="translate(0)" fill="#fffffd"/>
      <path  d="M183.891,616.511c0,43.078-31.316,77.188-42.343,86.781l-7.939-1.838c11.688-14.335,32.419-38.3,32.419-70.02,0-62.486-66.014-116.7-141.291-117.73.882-10.659.588-30.875-1.066-43.078C109.129,472.133,183.891,541.675,183.891,616.511ZM66.051,99.425c-36.425,0-44.365,3.823-53.958,3.823C5.918,103.248,0,102.623,0,93.875c0-6.1,6.873-14.923,13.012-19.591,8.6,8.528,20.363,10.4,39.366,10.4,8.858,0,20.988-1.728,26.354-2.5a140.344,140.344,0,0,1-1.8-21.539c0-5.072.184-10.917.184-17.128,0-21.576-3.161-32.97-10.7-41.571C68.072.956,72.446,0,74.983,0c13.931,0,17.5,7.2,17.5,43.483,0,10.953.956,21.025.956,23.671C112.915,52.3,132.8,25.693,132.8,6.506c6.359,3.2,13.931,12.865,13.931,20.106,0,13.048-21.943,32.566-45.1,56.09,3.235.772,11.835,3.271,18.893,3.271,18.268,0,32.97-3.014,41.534-13.159,3.418,3.676,6.212,14.739,6.212,21.1,0,10.953-6.285,10.512-10.806,10.512-19.407,0-43.409-3.014-60.574-5.807-6.249,8.27-45.982,62.118-56.274,90.788a24.632,24.632,0,0,1-10.145,1.985c-9.593,0-12.019-6.726-14.555-15.879,21.943-26.648,43-55.539,50.135-76.085Z" transform="translate(75.203 39.182)" fill="#313336"/>
    </g>
    <path d="M102.5,242.591c12.387-44.181,38.447-70.462,58.553-96.191-24.112-8.785-51.017-31.684-51.017-42.086,3.051-1.764,49.29,12.754,54.068,14.041,8.711-1.691,13.379-9.887,13.379-10.733-4.925-.845-33.926-4.558-53.738-11.8-15.033-5.513-22.679-15.511-22.679-19.3,4.852-.809,23.156,8.858,50.1,8.858,9.961,0,11.872-.4,21.8-1.617-6.947-16.54-20.032-30.544-34.7-30.544-5.918,0-18.819,3.676-29.626,9.116C101.106,50.613,94.49,35.249,94.49,26.832c0-9.924,9.814-21.539,37.491-21.539a106.523,106.523,0,0,1,36.462,6.065C167.855,4.043,171.347,0,184.285,0c22.752,0,46.129,7.535,74.725,7.535,7.388,0,12.424-.331,16.687-2.132-1.838,5.734-9.887,14.114-17.2,20.914,4.521,6.212,16.32,21.208,16.32,45.467,0,38.962-25.619,71.086-25.619,110.415,0,23.414,17.974,44.071,24.553,60.39Z" transform="translate(252.819)" fill="#fffffd"/>
    <path d="M179.21,83.818c3.97-8.968,9.262-19.7,9.262-31.5,0-32.713-27.089-48.3-63.368-48.3-18.635,0-28.045,6.028-28.045,12.056s6.138,19.334,8.564,23.45c6.69-2.94,18.746-6.506,25.766-6.506C156.274,33.021,174.873,60.919,179.21,83.818Zm17.863-41.755c21.171,4.117,35.617-22.973,15.511-27.788,2.794,8.932-10.806,15.254-10.806,15.254s-5.146-12.056,1.507-18.819c-12.277-6.028-15.4,1.286-15.658,8.932A50.624,50.624,0,0,1,197.073,42.063Z" transform="translate(259.695 10.756)" fill="#313336"/>
  </g>
</svg>
